<?xml version="1.0" encoding="UTF-8"?>
<!--Generator: Apple Native CoreSVG 129-->
<!DOCTYPE svg
PUBLIC "-//W3C//DTD SVG 1.1//EN"
       "http://www.w3.org/Graphics/SVG/1.1/DTD/svg11.dtd">
<svg version="1.1" xmlns="http://www.w3.org/2000/svg" xmlns:xlink="http://www.w3.org/1999/xlink" width="3300" height="2200">
 <!--glyph: "uni10031E.medium", point size: 100.000000, font version: "Version 16.0d9e1", template writer version: "8"-->
 <g id="Notes">
  <rect height="2200" id="artboard" style="fill:white;opacity:1" width="3300" x="0" y="0"/>
  <line id="" style="fill:none;stroke:black;opacity:1;stroke-width:0.5;" x1="263" x2="3036" y1="292" y2="292"/>
  <text style="stroke:none;fill:black;font-family:-apple-system,&quot;SF Pro Display&quot;,&quot;SF Pro Text&quot;,Helvetica,sans-serif;font-weight:bold;" transform="matrix(1 0 0 1 263 322)">Weight/Scale Variations</text>
  <text style="stroke:none;fill:black;font-family:-apple-system,&quot;SF Pro Display&quot;,&quot;SF Pro Text&quot;,Helvetica,sans-serif;text-anchor:middle;" transform="matrix(1 0 0 1 559.711 322)">Ultralight</text>
  <text style="stroke:none;fill:black;font-family:-apple-system,&quot;SF Pro Display&quot;,&quot;SF Pro Text&quot;,Helvetica,sans-serif;text-anchor:middle;" transform="matrix(1 0 0 1 856.422 322)">Thin</text>
  <text style="stroke:none;fill:black;font-family:-apple-system,&quot;SF Pro Display&quot;,&quot;SF Pro Text&quot;,Helvetica,sans-serif;text-anchor:middle;" transform="matrix(1 0 0 1 1153.13 322)">Light</text>
  <text style="stroke:none;fill:black;font-family:-apple-system,&quot;SF Pro Display&quot;,&quot;SF Pro Text&quot;,Helvetica,sans-serif;text-anchor:middle;" transform="matrix(1 0 0 1 1449.84 322)">Regular</text>
  <text style="stroke:none;fill:black;font-family:-apple-system,&quot;SF Pro Display&quot;,&quot;SF Pro Text&quot;,Helvetica,sans-serif;text-anchor:middle;" transform="matrix(1 0 0 1 1746.56 322)">Medium</text>
  <text style="stroke:none;fill:black;font-family:-apple-system,&quot;SF Pro Display&quot;,&quot;SF Pro Text&quot;,Helvetica,sans-serif;text-anchor:middle;" transform="matrix(1 0 0 1 2043.27 322)">Semibold</text>
  <text style="stroke:none;fill:black;font-family:-apple-system,&quot;SF Pro Display&quot;,&quot;SF Pro Text&quot;,Helvetica,sans-serif;text-anchor:middle;" transform="matrix(1 0 0 1 2339.98 322)">Bold</text>
  <text style="stroke:none;fill:black;font-family:-apple-system,&quot;SF Pro Display&quot;,&quot;SF Pro Text&quot;,Helvetica,sans-serif;text-anchor:middle;" transform="matrix(1 0 0 1 2636.69 322)">Heavy</text>
  <text style="stroke:none;fill:black;font-family:-apple-system,&quot;SF Pro Display&quot;,&quot;SF Pro Text&quot;,Helvetica,sans-serif;text-anchor:middle;" transform="matrix(1 0 0 1 2933.4 322)">Black</text>
  <line id="" style="fill:none;stroke:black;opacity:1;stroke-width:0.5;" x1="263" x2="3036" y1="1903" y2="1903"/>
  <g id="" transform="matrix(1 0 0 1 263 1933)">
   <path d="M 9.24805 0.830078 C 13.5547 0.830078 17.1387 -2.74414 17.1387 -7.05078 C 17.1387 -11.3574 13.5449 -14.9316 9.23828 -14.9316 C 4.94141 -14.9316 1.36719 -11.3574 1.36719 -7.05078 C 1.36719 -2.74414 4.95117 0.830078 9.24805 0.830078 Z M 9.24805 -0.654297 C 5.70312 -0.654297 2.87109 -3.49609 2.87109 -7.05078 C 2.87109 -10.6055 5.69336 -13.4473 9.23828 -13.4473 C 12.793 -13.4473 15.6348 -10.6055 15.6445 -7.05078 C 15.6543 -3.49609 12.8027 -0.654297 9.24805 -0.654297 Z M 9.22852 -3.62305 C 9.69727 -3.62305 9.9707 -3.93555 9.9707 -4.45312 L 9.9707 -6.31836 L 12.002 -6.31836 C 12.5 -6.31836 12.832 -6.57227 12.832 -7.04102 C 12.832 -7.51953 12.5195 -7.7832 12.002 -7.7832 L 9.9707 -7.7832 L 9.9707 -9.81445 C 9.9707 -10.332 9.69727 -10.6543 9.22852 -10.6543 C 8.75977 -10.6543 8.50586 -10.3125 8.50586 -9.81445 L 8.50586 -7.7832 L 6.49414 -7.7832 C 5.97656 -7.7832 5.64453 -7.51953 5.64453 -7.04102 C 5.64453 -6.57227 5.99609 -6.31836 6.49414 -6.31836 L 8.50586 -6.31836 L 8.50586 -4.45312 C 8.50586 -3.95508 8.75977 -3.62305 9.22852 -3.62305 Z"/>
  </g>
  <g id="" transform="matrix(1 0 0 1 281.506 1933)">
   <path d="M 11.709 2.91016 C 17.1582 2.91016 21.6699 -1.61133 21.6699 -7.05078 C 21.6699 -12.5 17.1484 -17.0117 11.6992 -17.0117 C 6.25977 -17.0117 1.74805 -12.5 1.74805 -7.05078 C 1.74805 -1.61133 6.26953 2.91016 11.709 2.91016 Z M 11.709 1.25 C 7.09961 1.25 3.41797 -2.44141 3.41797 -7.05078 C 3.41797 -11.6602 7.08984 -15.3516 11.6992 -15.3516 C 16.3086 -15.3516 20 -11.6602 20.0098 -7.05078 C 20.0195 -2.44141 16.3184 1.25 11.709 1.25 Z M 11.6797 -2.66602 C 12.207 -2.66602 12.5098 -3.01758 12.5098 -3.59375 L 12.5098 -6.23047 L 15.3223 -6.23047 C 15.8691 -6.23047 16.25 -6.51367 16.25 -7.03125 C 16.25 -7.55859 15.8887 -7.86133 15.3223 -7.86133 L 12.5098 -7.86133 L 12.5098 -10.6836 C 12.5098 -11.25 12.207 -11.6113 11.6797 -11.6113 C 11.1621 -11.6113 10.8789 -11.2305 10.8789 -10.6836 L 10.8789 -7.86133 L 8.07617 -7.86133 C 7.50977 -7.86133 7.13867 -7.55859 7.13867 -7.03125 C 7.13867 -6.51367 7.5293 -6.23047 8.07617 -6.23047 L 10.8789 -6.23047 L 10.8789 -3.59375 C 10.8789 -3.03711 11.1621 -2.66602 11.6797 -2.66602 Z"/>
  </g>
  <g id="" transform="matrix(1 0 0 1 304.924 1933)">
   <path d="M 14.9707 5.66406 C 21.9336 5.66406 27.6953 -0.0976562 27.6953 -7.05078 C 27.6953 -14.0137 21.9238 -19.7754 14.9609 -19.7754 C 8.00781 -19.7754 2.25586 -14.0137 2.25586 -7.05078 C 2.25586 -0.0976562 8.01758 5.66406 14.9707 5.66406 Z M 14.9707 3.84766 C 8.93555 3.84766 4.08203 -1.01562 4.08203 -7.05078 C 4.08203 -13.0957 8.92578 -17.9492 14.9609 -17.9492 C 21.0059 -17.9492 25.8594 -13.0957 25.8691 -7.05078 C 25.8789 -1.01562 21.0156 3.84766 14.9707 3.84766 Z M 14.9414 -1.38672 C 15.5176 -1.38672 15.8594 -1.77734 15.8594 -2.38281 L 15.8594 -6.13281 L 19.7754 -6.13281 C 20.3711 -6.13281 20.7812 -6.46484 20.7812 -7.02148 C 20.7812 -7.59766 20.3906 -7.93945 19.7754 -7.93945 L 15.8594 -7.93945 L 15.8594 -11.8652 C 15.8594 -12.4805 15.5176 -12.8711 14.9414 -12.8711 C 14.375 -12.8711 14.0527 -12.4609 14.0527 -11.8652 L 14.0527 -7.93945 L 10.1465 -7.93945 C 9.53125 -7.93945 9.13086 -7.59766 9.13086 -7.02148 C 9.13086 -6.46484 9.55078 -6.13281 10.1465 -6.13281 L 14.0527 -6.13281 L 14.0527 -2.38281 C 14.0527 -1.79688 14.375 -1.38672 14.9414 -1.38672 Z"/>
  </g>
  <text style="stroke:none;fill:black;font-family:-apple-system,&quot;SF Pro Display&quot;,&quot;SF Pro Text&quot;,Helvetica,sans-serif;font-weight:bold;" transform="matrix(1 0 0 1 263 1953)">Design Variations</text>
  <text style="stroke:none;fill:black;font-family:-apple-system,&quot;SF Pro Display&quot;,&quot;SF Pro Text&quot;,Helvetica,sans-serif;" transform="matrix(1 0 0 1 263 1971)">Symbols are supported in up to nine weights and three scales.</text>
  <text style="stroke:none;fill:black;font-family:-apple-system,&quot;SF Pro Display&quot;,&quot;SF Pro Text&quot;,Helvetica,sans-serif;" transform="matrix(1 0 0 1 263 1989)">For optimal layout with text and other symbols, vertically align</text>
  <text style="stroke:none;fill:black;font-family:-apple-system,&quot;SF Pro Display&quot;,&quot;SF Pro Text&quot;,Helvetica,sans-serif;" transform="matrix(1 0 0 1 263 2007)">symbols with the adjacent text.</text>
  <line id="" style="fill:none;stroke:#00AEEF;stroke-width:0.5;opacity:1.0;" x1="776" x2="776" y1="1919" y2="1933"/>
  <g id="" transform="matrix(1 0 0 1 776 1933)">
   <path d="M 3.31055 0.126953 C 3.82812 0.126953 4.08203 -0.0683594 4.26758 -0.605469 L 5.52734 -4.0625 L 11.2891 -4.0625 L 12.5488 -0.605469 C 12.7344 -0.0683594 12.9883 0.126953 13.4961 0.126953 C 14.0137 0.126953 14.3457 -0.185547 14.3457 -0.673828 C 14.3457 -0.839844 14.3164 -0.986328 14.2383 -1.20117 L 9.6582 -13.3887 C 9.43359 -13.9941 9.0332 -14.2871 8.4082 -14.2871 C 7.80273 -14.2871 7.39258 -13.9941 7.17773 -13.3984 L 2.59766 -1.19141 C 2.51953 -0.976562 2.49023 -0.830078 2.49023 -0.664062 C 2.49023 -0.175781 2.80273 0.126953 3.31055 0.126953 Z M 6.00586 -5.53711 L 8.37891 -12.1094 L 8.42773 -12.1094 L 10.8008 -5.53711 Z"/>
  </g>
  <line id="" style="fill:none;stroke:#00AEEF;stroke-width:0.5;opacity:1.0;" x1="792.836" x2="792.836" y1="1919" y2="1933"/>
  <text style="stroke:none;fill:black;font-family:-apple-system,&quot;SF Pro Display&quot;,&quot;SF Pro Text&quot;,Helvetica,sans-serif;font-weight:bold;" transform="matrix(1 0 0 1 776 1953)">Margins</text>
  <text style="stroke:none;fill:black;font-family:-apple-system,&quot;SF Pro Display&quot;,&quot;SF Pro Text&quot;,Helvetica,sans-serif;" transform="matrix(1 0 0 1 776 1971)">Leading and trailing margins on the left and right side of each symbol</text>
  <text style="stroke:none;fill:black;font-family:-apple-system,&quot;SF Pro Display&quot;,&quot;SF Pro Text&quot;,Helvetica,sans-serif;" transform="matrix(1 0 0 1 776 1989)">can be adjusted by modifying the x-location of the margin guidelines.</text>
  <text style="stroke:none;fill:black;font-family:-apple-system,&quot;SF Pro Display&quot;,&quot;SF Pro Text&quot;,Helvetica,sans-serif;" transform="matrix(1 0 0 1 776 2007)">Modifications are automatically applied proportionally to all</text>
  <text style="stroke:none;fill:black;font-family:-apple-system,&quot;SF Pro Display&quot;,&quot;SF Pro Text&quot;,Helvetica,sans-serif;" transform="matrix(1 0 0 1 776 2025)">scales and weights.</text>
  <g id="" transform="matrix(1 0 0 1 1289 1933)">
   <path d="M 2.8418 1.86523 L 4.54102 3.57422 C 5.40039 4.44336 6.38672 4.38477 7.31445 3.35938 L 17.4902 -7.85156 C 17.7539 -7.76367 18.0273 -7.7832 18.3398 -7.8418 L 19.4043 -8.03711 L 20.0684 -7.36328 L 20.0293 -6.80664 C 19.9902 -6.30859 20.1172 -5.92773 20.6055 -5.44922 L 21.3672 -4.70703 C 21.8457 -4.22852 22.4609 -4.19922 22.9297 -4.66797 L 25.8398 -7.58789 C 26.3086 -8.05664 26.2891 -8.65234 25.8105 -9.13086 L 25.0391 -9.89258 C 24.5605 -10.3711 24.1895 -10.5273 23.7109 -10.4883 L 23.1348 -10.4395 L 22.4902 -11.0742 L 22.7344 -12.1973 C 22.8613 -12.7637 22.7051 -13.2031 22.1191 -13.7891 L 19.9219 -15.9766 C 16.582 -19.2969 12.1484 -19.2188 9.25781 -16.3281 C 8.83789 -15.918 8.80859 -15.3418 9.04297 -14.9512 C 9.27734 -14.5898 9.73633 -14.3555 10.3809 -14.5215 C 11.8457 -14.8633 13.3691 -14.9219 14.7949 -13.9844 L 14.209 -12.5293 C 14.0137 -12.0508 13.9844 -11.6504 14.1113 -11.2891 L 3.04688 -0.898438 C 2.06055 0.0195312 1.98242 0.996094 2.8418 1.86523 Z M 10.752 -15.957 C 13.1836 -17.7344 16.4746 -17.4316 18.7012 -15.2051 L 21.1328 -12.793 C 21.3672 -12.5586 21.4062 -12.373 21.3379 -12.0312 L 21.0156 -10.5469 L 22.5195 -9.0625 L 23.5059 -9.12109 C 23.7598 -9.13086 23.8379 -9.11133 24.0332 -8.91602 L 24.6094 -8.33984 L 22.168 -5.89844 L 21.5918 -6.47461 C 21.3965 -6.66992 21.3672 -6.74805 21.377 -7.01172 L 21.4453 -7.98828 L 19.9512 -9.47266 L 18.4277 -9.21875 C 18.1055 -9.15039 17.959 -9.17969 17.7148 -9.41406 L 15.7129 -11.416 C 15.459 -11.6504 15.4297 -11.8164 15.5859 -12.1875 L 16.4648 -14.2773 C 14.9023 -15.7324 12.8711 -16.3574 10.8398 -15.7617 C 10.6836 -15.7227 10.625 -15.8496 10.752 -15.957 Z M 5.27344 2.30469 L 4.10156 1.14258 C 3.63281 0.683594 3.74023 0.341797 4.14062 -0.0195312 L 14.9512 -10.1953 L 16.416 -8.71094 L 6.42578 2.27539 C 6.07422 2.67578 5.74219 2.77344 5.27344 2.30469 Z"/>
  </g>
  <text style="stroke:none;fill:black;font-family:-apple-system,&quot;SF Pro Display&quot;,&quot;SF Pro Text&quot;,Helvetica,sans-serif;font-weight:bold;" transform="matrix(1 0 0 1 1289 1953)">Exporting</text>
  <text style="stroke:none;fill:black;font-family:-apple-system,&quot;SF Pro Display&quot;,&quot;SF Pro Text&quot;,Helvetica,sans-serif;" transform="matrix(1 0 0 1 1289 1971)">Symbols should be outlined when exporting to ensure the</text>
  <text style="stroke:none;fill:black;font-family:-apple-system,&quot;SF Pro Display&quot;,&quot;SF Pro Text&quot;,Helvetica,sans-serif;" transform="matrix(1 0 0 1 1289 1989)">design is preserved when submitting to Xcode.</text>
  <text id="template-version" style="stroke:none;fill:black;font-family:-apple-system,&quot;SF Pro Display&quot;,&quot;SF Pro Text&quot;,Helvetica,sans-serif;text-anchor:end;" transform="matrix(1 0 0 1 3036 1933)">Template v.2.0</text>
  <text style="stroke:none;fill:black;font-family:-apple-system,&quot;SF Pro Display&quot;,&quot;SF Pro Text&quot;,Helvetica,sans-serif;text-anchor:end;" transform="matrix(1 0 0 1 3036 1951)">Requires Xcode 12 or greater</text>
  <text style="stroke:none;fill:black;font-family:-apple-system,&quot;SF Pro Display&quot;,&quot;SF Pro Text&quot;,Helvetica,sans-serif;text-anchor:end;" transform="matrix(1 0 0 1 3036 1969)">Generated from camera</text>
  <text style="stroke:none;fill:black;font-family:-apple-system,&quot;SF Pro Display&quot;,&quot;SF Pro Text&quot;,Helvetica,sans-serif;text-anchor:end;" transform="matrix(1 0 0 1 3036 1987)">Typeset at 100 points</text>
  <text style="stroke:none;fill:black;font-family:-apple-system,&quot;SF Pro Display&quot;,&quot;SF Pro Text&quot;,Helvetica,sans-serif;" transform="matrix(1 0 0 1 263 726)">Small</text>
  <text style="stroke:none;fill:black;font-family:-apple-system,&quot;SF Pro Display&quot;,&quot;SF Pro Text&quot;,Helvetica,sans-serif;" transform="matrix(1 0 0 1 263 1156)">Medium</text>
  <text style="stroke:none;fill:black;font-family:-apple-system,&quot;SF Pro Display&quot;,&quot;SF Pro Text&quot;,Helvetica,sans-serif;" transform="matrix(1 0 0 1 263 1586)">Large</text>
 </g>
 <g id="Guides">
  <g id="H-reference" style="fill:#27AAE1;stroke:none;" transform="matrix(1 0 0 1 339 696)">
   <path d="M 0.976562 0 L 3.66211 0 L 12.9883 -24.4629 L 45.7031 -24.4629 L 55.0781 0 L 57.7148 0 L 30.6152 -70.459 L 28.125 -70.459 Z M 29.2969 -67.1387 L 29.3945 -67.1387 L 44.873 -26.709 L 13.8672 -26.709 Z"/>
  </g>
  <line id="Baseline-S" style="fill:none;stroke:#27AAE1;opacity:1;stroke-width:0.5;" x1="263" x2="3036" y1="696" y2="696"/>
  <line id="Capline-S" style="fill:none;stroke:#27AAE1;opacity:1;stroke-width:0.5;" x1="263" x2="3036" y1="625.541" y2="625.541"/>
  <g id="H-reference" style="fill:#27AAE1;stroke:none;" transform="matrix(1 0 0 1 339 1126)">
   <path d="M 0.976562 0 L 3.66211 0 L 12.9883 -24.4629 L 45.7031 -24.4629 L 55.0781 0 L 57.7148 0 L 30.6152 -70.459 L 28.125 -70.459 Z M 29.2969 -67.1387 L 29.3945 -67.1387 L 44.873 -26.709 L 13.8672 -26.709 Z"/>
  </g>
  <line id="Baseline-M" style="fill:none;stroke:#27AAE1;opacity:1;stroke-width:0.5;" x1="263" x2="3036" y1="1126" y2="1126"/>
  <line id="Capline-M" style="fill:none;stroke:#27AAE1;opacity:1;stroke-width:0.5;" x1="263" x2="3036" y1="1055.54" y2="1055.54"/>
  <g id="H-reference" style="fill:#27AAE1;stroke:none;" transform="matrix(1 0 0 1 339 1556)">
   <path d="M 0.976562 0 L 3.66211 0 L 12.9883 -24.4629 L 45.7031 -24.4629 L 55.0781 0 L 57.7148 0 L 30.6152 -70.459 L 28.125 -70.459 Z M 29.2969 -67.1387 L 29.3945 -67.1387 L 44.873 -26.709 L 13.8672 -26.709 Z"/>
  </g>
  <line id="Baseline-L" style="fill:none;stroke:#27AAE1;opacity:1;stroke-width:0.5;" x1="263" x2="3036" y1="1556" y2="1556"/>
  <line id="Capline-L" style="fill:none;stroke:#27AAE1;opacity:1;stroke-width:0.5;" x1="263" x2="3036" y1="1485.54" y2="1485.54"/>
  <line id="left-margin" style="fill:none;stroke:#00AEEF;stroke-width:0.5;opacity:1.0;" x1="1377.43" x2="1377.43" y1="1030.79" y2="1150.12"/>
  <line id="right-margin" style="fill:none;stroke:#00AEEF;stroke-width:0.5;opacity:1.0;" x1="1522.26" x2="1522.26" y1="1030.79" y2="1150.12"/>
 </g>
 <g id="Symbols">
  <g id="Black-L" transform="matrix(1 0 0 1 2837.57 1556)">
   <path d="M 39.9902 26.5137 L 151.66 26.5137 C 166.895 26.5137 175.586 17.8711 175.586 2.68555 L 175.586 -63.8184 C 175.586 -79.0527 166.895 -87.6465 151.66 -87.6465 L 137.012 -87.6465 C 132.178 -87.6465 130.273 -88.2324 126.66 -91.5039 L 121.875 -95.8984 C 118.164 -99.2676 114.502 -100.635 108.301 -100.635 L 83.3008 -100.635 C 77.0996 -100.635 73.4863 -99.2676 69.7754 -95.8984 L 64.9902 -91.5039 C 61.3281 -88.2324 59.4238 -87.6465 54.6387 -87.6465 L 39.9902 -87.6465 C 24.7559 -87.6465 16.0645 -79.0527 16.0645 -63.8184 L 16.0645 2.68555 C 16.0645 17.8711 24.7559 26.5137 39.9902 26.5137 Z M 42.6758 6.29883 C 38.4766 6.29883 36.3281 4.39453 36.3281 -0.146484 L 36.3281 -60.9863 C 36.3281 -65.5273 38.4766 -67.4316 42.6758 -67.4316 L 61.9141 -67.4316 C 67.5781 -67.4316 70.0684 -68.2617 73.291 -71.6309 L 77.6367 -76.0254 C 80.957 -79.4434 83.1055 -80.3711 88.5254 -80.3711 L 103.125 -80.3711 C 108.545 -80.3711 110.645 -79.3457 113.77 -76.2207 L 118.311 -71.6309 C 121.582 -68.3105 124.072 -67.4316 129.688 -67.4316 L 148.926 -67.4316 C 153.174 -67.4316 155.322 -65.5273 155.322 -60.9863 L 155.322 -0.146484 C 155.322 4.39453 153.174 6.29883 148.926 6.29883 Z M 95.8008 0.390625 C 114.014 0.390625 128.613 -14.209 128.613 -32.4219 C 128.613 -50.6836 114.014 -65.2832 95.8008 -65.2832 C 77.6367 -65.2832 63.0371 -50.6836 63.0371 -32.4219 C 63.0371 -14.209 77.6367 0.390625 95.8008 0.390625 Z M 129.346 -53.1738 C 129.346 -48.0469 133.496 -43.8965 138.623 -43.9941 C 143.652 -44.0918 147.852 -48.0469 147.852 -53.1738 C 147.852 -58.2031 143.604 -62.4023 138.623 -62.4023 C 133.545 -62.4023 129.346 -58.2031 129.346 -53.1738 Z M 95.8008 -16.9434 C 87.2559 -16.9434 80.3711 -23.877 80.3711 -32.4219 C 80.3711 -41.0645 87.2559 -47.9492 95.8008 -47.9492 C 104.443 -47.9492 111.279 -41.0645 111.279 -32.4219 C 111.279 -23.877 104.443 -16.9434 95.8008 -16.9434 Z"/>
  </g>
  <g id="Heavy-L" transform="matrix(1 0 0 1 2541.62 1556)">
   <path d="M 38.8184 25.4883 L 151.318 25.4883 C 165.918 25.4883 174.072 17.4316 174.072 2.88086 L 174.072 -63.5742 C 174.072 -78.125 165.918 -86.1816 151.318 -86.1816 L 135.791 -86.1816 C 130.908 -86.1816 129.15 -86.8164 125.635 -90.0879 L 120.752 -94.8242 C 117.188 -98.2422 113.672 -99.6582 107.422 -99.6582 L 82.5195 -99.6582 C 76.2695 -99.6582 72.7539 -98.2422 69.1895 -94.8242 L 64.3066 -90.0879 C 60.8398 -86.8164 59.0332 -86.1816 54.1504 -86.1816 L 38.8184 -86.1816 C 24.2188 -86.1816 16.0645 -78.125 16.0645 -63.5742 L 16.0645 2.88086 C 16.0645 17.4316 24.2188 25.4883 38.8184 25.4883 Z M 40.918 8.00781 C 36.1328 8.00781 33.5938 5.71289 33.5938 0.585938 L 33.5938 -61.2793 C 33.5938 -66.4062 36.1328 -68.7012 40.918 -68.7012 L 60.2051 -68.7012 C 65.8691 -68.7012 68.457 -69.5801 71.6797 -72.9492 L 76.2207 -77.6855 C 79.5898 -81.2012 81.6406 -82.1777 87.0605 -82.1777 L 102.881 -82.1777 C 108.301 -82.1777 110.352 -81.1523 113.574 -77.832 L 118.262 -72.9492 C 121.484 -69.6289 124.121 -68.7012 129.736 -68.7012 L 149.17 -68.7012 C 154.004 -68.7012 156.543 -66.4062 156.543 -61.2793 L 156.543 0.585938 C 156.543 5.71289 154.004 8.00781 149.17 8.00781 Z M 95.0684 1.2207 C 113.477 1.2207 128.271 -13.5742 128.271 -32.0312 C 128.271 -50.5371 113.525 -65.332 95.0684 -65.332 C 76.6602 -65.332 61.8652 -50.5371 61.8652 -32.0312 C 61.8652 -13.5742 76.6602 1.2207 95.0684 1.2207 Z M 129.492 -53.3691 C 129.492 -48.3887 133.496 -44.4336 138.428 -44.4824 C 143.262 -44.5801 147.266 -48.4375 147.266 -53.3691 C 147.266 -58.1055 143.213 -62.207 138.428 -62.207 C 133.545 -62.207 129.492 -58.1055 129.492 -53.3691 Z M 95.0684 -13.9648 C 85.1074 -13.9648 77.0508 -22.0215 77.0508 -32.0312 C 77.0508 -42.0898 85.1074 -50.1465 95.0684 -50.1465 C 105.078 -50.1465 113.086 -42.0898 113.086 -32.0312 C 113.086 -22.0215 105.078 -13.9648 95.0684 -13.9648 Z"/>
  </g>
  <g id="Bold-L" transform="matrix(1 0 0 1 2245.76 1556)">
   <path d="M 37.5 24.3652 L 150.928 24.3652 C 164.844 24.3652 172.363 16.8945 172.363 3.07617 L 172.363 -63.2324 C 172.363 -77.0508 164.844 -84.5703 150.928 -84.5703 L 134.424 -84.5703 C 129.492 -84.5703 127.832 -85.2539 124.512 -88.5254 L 119.531 -93.6523 C 116.064 -97.1191 112.744 -98.6328 106.445 -98.6328 L 81.5918 -98.6328 C 75.293 -98.6328 71.9727 -97.1191 68.5059 -93.6523 L 63.5254 -88.5254 C 60.2539 -85.3027 58.5449 -84.5703 53.6133 -84.5703 L 37.5 -84.5703 C 23.6328 -84.5703 16.0645 -77.0508 16.0645 -63.2324 L 16.0645 3.07617 C 16.0645 16.8945 23.6328 24.3652 37.5 24.3652 Z M 38.9648 9.91211 C 33.4961 9.91211 30.5176 7.17773 30.5176 1.41602 L 30.5176 -61.6211 C 30.5176 -67.3828 33.4961 -70.1172 38.9648 -70.1172 L 58.252 -70.1172 C 63.916 -70.1172 66.6504 -70.9961 69.873 -74.5117 L 74.6094 -79.541 C 78.0273 -83.252 80.0293 -84.1797 85.4004 -84.1797 L 102.637 -84.1797 C 108.008 -84.1797 110.01 -83.2031 113.33 -79.6387 L 118.164 -74.5117 C 121.387 -71.0449 124.121 -70.1172 129.785 -70.1172 L 149.463 -70.1172 C 154.932 -70.1172 157.91 -67.3828 157.91 -61.6211 L 157.91 1.41602 C 157.91 7.17773 154.932 9.91211 149.463 9.91211 Z M 94.2383 2.14844 C 112.891 2.14844 127.881 -12.8418 127.881 -31.5918 C 127.881 -50.3418 112.939 -65.332 94.2383 -65.332 C 75.5859 -65.332 60.5469 -50.3418 60.5469 -31.5918 C 60.5469 -12.8418 75.5859 2.14844 94.2383 2.14844 Z M 129.688 -53.5156 C 129.688 -48.7793 133.496 -45.0684 138.184 -45.0684 C 142.773 -45.1172 146.631 -48.8281 146.631 -53.5156 C 146.631 -58.0566 142.725 -61.9629 138.184 -61.9629 C 133.545 -61.9629 129.688 -58.0566 129.688 -53.5156 Z M 94.2383 -10.6445 C 82.7148 -10.6445 73.3398 -19.9707 73.3398 -31.5918 C 73.3398 -43.2129 82.666 -52.5391 94.2383 -52.5391 C 105.811 -52.5391 115.088 -43.2129 115.088 -31.5918 C 115.088 -19.9707 105.811 -10.6445 94.2383 -10.6445 Z"/>
  </g>
  <g id="Semibold-L" transform="matrix(1 0 0 1 1949.64 1556)">
   <path d="M 36.6211 23.584 L 150.635 23.584 C 164.062 23.584 171.191 16.5039 171.191 3.17383 L 171.191 -63.0371 C 171.191 -76.3672 164.062 -83.4473 150.635 -83.4473 L 133.496 -83.4473 C 128.516 -83.4473 126.953 -84.1797 123.73 -87.5 L 118.701 -92.8223 C 115.332 -96.2891 112.109 -97.9004 105.811 -97.9004 L 80.957 -97.9004 C 74.6582 -97.9004 71.4355 -96.2891 68.0664 -92.8223 L 62.9883 -87.5 C 59.8633 -84.2285 58.2031 -83.4473 53.2715 -83.4473 L 36.6211 -83.4473 C 23.1934 -83.4473 16.0645 -76.3672 16.0645 -63.0371 L 16.0645 3.17383 C 16.0645 16.5039 23.1934 23.584 36.6211 23.584 Z M 37.5977 11.2793 C 31.6895 11.2793 28.418 8.20312 28.418 1.95312 L 28.418 -61.8164 C 28.418 -68.0664 31.6895 -71.0938 37.5977 -71.0938 L 56.9336 -71.0938 C 62.5977 -71.0938 65.4297 -72.0215 68.6523 -75.5371 L 73.4863 -80.8105 C 77.002 -84.6191 78.9551 -85.5469 84.2773 -85.5469 L 102.441 -85.5469 C 107.812 -85.5469 109.766 -84.6191 113.184 -80.8594 L 118.115 -75.5371 C 121.338 -72.0215 124.121 -71.0938 129.834 -71.0938 L 149.658 -71.0938 C 155.566 -71.0938 158.887 -68.0664 158.887 -61.8164 L 158.887 1.95312 C 158.887 8.20312 155.566 11.2793 149.658 11.2793 Z M 93.6523 2.7832 C 112.451 2.7832 127.588 -12.3535 127.588 -31.2988 C 127.588 -50.1953 112.5 -65.332 93.6523 -65.332 C 74.8047 -65.332 59.668 -50.1953 59.668 -31.2988 C 59.668 -12.3535 74.8047 2.7832 93.6523 2.7832 Z M 129.785 -53.6621 C 129.785 -49.0234 133.545 -45.459 138.037 -45.459 C 142.432 -45.5078 146.191 -49.1211 146.191 -53.6621 C 146.191 -58.0078 142.432 -61.8164 138.037 -61.8164 C 133.545 -61.8164 129.785 -58.0078 129.785 -53.6621 Z M 93.6523 -8.39844 C 81.0547 -8.39844 70.8008 -18.6035 70.8008 -31.2988 C 70.8008 -43.9941 81.0059 -54.1992 93.6523 -54.1992 C 106.299 -54.1992 116.455 -43.9941 116.455 -31.2988 C 116.455 -18.6035 106.299 -8.39844 93.6523 -8.39844 Z"/>
  </g>
  <g id="Medium-L" transform="matrix(1 0 0 1 1653.37 1556)">
   <path d="M 35.9375 22.998 L 150.439 22.998 C 163.477 22.998 170.312 16.2109 170.312 3.27148 L 170.312 -62.8906 C 170.312 -75.8301 163.477 -82.6172 150.439 -82.6172 L 132.764 -82.6172 C 127.783 -82.6172 126.27 -83.3496 123.193 -86.6699 L 118.066 -92.1875 C 114.746 -95.7031 111.621 -97.3145 105.273 -97.3145 L 80.4688 -97.3145 C 74.1211 -97.3145 70.9961 -95.7031 67.7246 -92.1875 L 62.5977 -86.6699 C 59.5703 -83.3984 57.959 -82.6172 52.9785 -82.6172 L 35.9375 -82.6172 C 22.9004 -82.6172 16.0645 -75.8301 16.0645 -62.8906 L 16.0645 3.27148 C 16.0645 16.2109 22.9004 22.998 35.9375 22.998 Z M 36.5723 12.2559 C 30.3223 12.2559 26.8066 8.98438 26.8066 2.39258 L 26.8066 -62.0117 C 26.8066 -68.5547 30.3223 -71.875 36.5723 -71.875 L 55.957 -71.875 C 61.6211 -71.875 64.502 -72.7539 67.6758 -76.3184 L 72.6562 -81.7871 C 76.1719 -85.6934 78.0762 -86.5723 83.4473 -86.5723 L 102.344 -86.5723 C 107.666 -86.5723 109.57 -85.6445 113.086 -81.8359 L 118.066 -76.3184 C 121.289 -72.8027 124.17 -71.875 129.834 -71.875 L 149.805 -71.875 C 156.055 -71.875 159.57 -68.5547 159.57 -62.0117 L 159.57 2.39258 C 159.57 8.98438 156.055 12.2559 149.805 12.2559 Z M 93.2129 3.22266 C 112.158 3.22266 127.393 -11.9629 127.393 -31.0547 C 127.393 -50.0977 112.207 -65.332 93.2129 -65.332 C 74.2188 -65.332 58.9844 -50.0977 58.9844 -31.0547 C 58.9844 -11.9629 74.2188 3.22266 93.2129 3.22266 Z M 129.883 -53.7109 C 129.883 -49.2188 133.545 -45.8008 137.939 -45.8008 C 142.188 -45.8008 145.85 -49.3164 145.85 -53.7109 C 145.85 -58.0078 142.188 -61.6699 137.939 -61.6699 C 133.545 -61.6699 129.883 -58.0078 129.883 -53.7109 Z M 93.2129 -6.64062 C 79.7852 -6.64062 68.8477 -17.5293 68.8477 -31.0547 C 68.8477 -44.5801 79.7363 -55.4688 93.2129 -55.4688 C 106.641 -55.4688 117.529 -44.5801 117.529 -31.0547 C 117.529 -17.5293 106.641 -6.64062 93.2129 -6.64062 Z"/>
  </g>
  <g id="Regular-L" transform="matrix(1 0 0 1 1357.24 1556)">
   <path d="M 35.0586 22.2168 L 150.146 22.2168 C 162.744 22.2168 169.141 15.8691 169.141 3.41797 L 169.141 -62.6953 C 169.141 -75.0977 162.744 -81.4941 150.146 -81.4941 L 131.836 -81.4941 C 126.807 -81.4941 125.391 -82.2754 122.412 -85.5957 L 117.236 -91.4062 C 114.014 -94.9219 110.986 -96.582 104.639 -96.582 L 79.834 -96.582 C 73.4863 -96.582 70.459 -94.9219 67.2363 -91.4062 L 62.0605 -85.5957 C 59.1797 -82.373 57.6172 -81.4941 52.6367 -81.4941 L 35.0586 -81.4941 C 22.4609 -81.4941 16.0645 -75.0977 16.0645 -62.6953 L 16.0645 3.41797 C 16.0645 15.8691 22.4609 22.2168 35.0586 22.2168 Z M 35.2539 13.5742 C 28.5645 13.5742 24.707 9.96094 24.707 2.97852 L 24.707 -62.207 C 24.707 -69.2383 28.5645 -72.8516 35.2539 -72.8516 L 54.6387 -72.8516 C 60.3027 -72.8516 63.2324 -73.7793 66.4551 -77.3926 L 71.5332 -83.0566 C 75.1465 -87.0605 77.002 -87.9395 82.3242 -87.9395 L 102.148 -87.9395 C 107.52 -87.9395 109.326 -87.0605 112.939 -83.0566 L 118.018 -77.3926 C 121.24 -73.7793 124.17 -72.8516 129.883 -72.8516 L 150 -72.8516 C 156.689 -72.8516 160.498 -69.2383 160.498 -62.207 L 160.498 2.97852 C 160.498 9.96094 156.689 13.5742 150 13.5742 Z M 92.627 3.85742 C 111.768 3.85742 127.148 -11.4746 127.148 -30.7617 C 127.148 -50 111.816 -65.332 92.627 -65.332 C 73.4863 -65.332 58.1055 -50 58.1055 -30.7617 C 58.1055 -11.4746 73.4863 3.85742 92.627 3.85742 Z M 129.98 -53.8574 C 129.98 -49.5117 133.545 -46.1914 137.793 -46.1914 C 141.846 -46.1426 145.41 -49.6094 145.41 -53.8574 C 145.41 -57.959 141.846 -61.5234 137.793 -61.5234 C 133.545 -61.5234 129.98 -57.959 129.98 -53.8574 Z M 92.627 -4.39453 C 78.125 -4.39453 66.3086 -16.1133 66.3086 -30.7617 C 66.3086 -45.3613 78.0762 -57.0801 92.627 -57.0801 C 107.129 -57.0801 118.896 -45.3613 118.896 -30.7617 C 118.896 -16.1133 107.129 -4.39453 92.627 -4.39453 Z"/>
  </g>
  <g id="Light-L" transform="matrix(1 0 0 1 1061.63 1556)">
   <path d="M 34.0332 21.4355 L 148.975 21.4355 C 160.84 21.4355 166.943 15.2344 166.943 3.56445 L 166.943 -62.6953 C 166.943 -74.4141 160.84 -80.5664 148.975 -80.5664 L 130.273 -80.5664 C 125.146 -80.5664 123.779 -81.1035 120.654 -84.668 L 115.283 -90.625 C 112.012 -94.2383 109.229 -95.6055 103.076 -95.6055 L 78.7598 -95.6055 C 72.6074 -95.6055 69.8242 -94.2383 66.5039 -90.625 L 61.1816 -84.668 C 58.1055 -81.25 56.5918 -80.5664 51.5137 -80.5664 L 34.0332 -80.5664 C 22.168 -80.5664 16.0645 -74.4141 16.0645 -62.6953 L 16.0645 3.56445 C 16.0645 15.2344 22.168 21.4355 34.0332 21.4355 Z M 34.1797 14.7949 C 26.9043 14.7949 22.7051 10.8398 22.7051 3.22266 L 22.7051 -62.3535 C 22.7051 -70.0195 26.9043 -73.9258 34.1797 -73.9258 L 52.7832 -73.9258 C 58.4961 -73.9258 61.2793 -74.707 64.5996 -78.418 L 69.873 -84.3262 C 73.4375 -88.2812 75.293 -89.0137 80.3223 -89.0137 L 101.514 -89.0137 C 106.543 -89.0137 108.398 -88.2812 111.963 -84.3262 L 117.236 -78.418 C 120.557 -74.707 123.34 -73.9258 129.053 -73.9258 L 148.828 -73.9258 C 156.104 -73.9258 160.303 -70.0195 160.303 -62.3535 L 160.303 3.22266 C 160.303 10.8398 156.104 14.7949 148.828 14.7949 Z M 91.5039 4.15039 C 110.742 4.15039 126.221 -11.2793 126.221 -30.6152 C 126.221 -50 110.84 -65.4297 91.5039 -65.4297 C 72.2656 -65.4297 56.7871 -50 56.7871 -30.6152 C 56.7871 -11.2793 72.2656 4.15039 91.5039 4.15039 Z M 129.492 -53.6133 C 129.492 -49.3652 132.91 -46.2402 137.061 -46.1426 C 141.016 -46.0938 144.434 -49.5117 144.434 -53.6133 C 144.434 -57.5684 141.016 -61.0352 137.061 -61.0352 C 132.91 -61.0352 129.492 -57.5684 129.492 -53.6133 Z M 91.5039 -2.29492 C 75.9277 -2.29492 63.2812 -14.9414 63.2812 -30.6152 C 63.2812 -46.3379 75.8789 -58.9844 91.5039 -58.9844 C 107.129 -58.9844 119.727 -46.3379 119.727 -30.6152 C 119.727 -14.9414 107.129 -2.29492 91.5039 -2.29492 Z"/>
  </g>
  <g id="Thin-L" transform="matrix(1 0 0 1 766.383 1556)">
   <path d="M 32.666 20.3613 L 147.412 20.3613 C 158.301 20.3613 164.014 14.4531 164.014 3.75977 L 164.014 -62.7441 C 164.014 -73.4863 158.301 -79.3457 147.412 -79.3457 L 128.223 -79.3457 C 122.949 -79.3457 121.729 -79.5898 118.311 -83.3984 L 112.744 -89.5996 C 109.326 -93.3105 106.934 -94.3359 100.977 -94.3359 L 77.3438 -94.3359 C 71.3867 -94.3359 68.9453 -93.3105 65.5273 -89.5996 L 59.9609 -83.3984 C 56.7383 -79.7363 55.2734 -79.3457 50.0488 -79.3457 L 32.666 -79.3457 C 21.7773 -79.3457 16.0645 -73.4863 16.0645 -62.7441 L 16.0645 3.75977 C 16.0645 14.4531 21.7773 20.3613 32.666 20.3613 Z M 32.8125 16.4062 C 24.707 16.4062 19.9707 12.0117 19.9707 3.56445 L 19.9707 -62.5488 C 19.9707 -71.0449 24.707 -75.3906 32.8125 -75.3906 L 50.3418 -75.3906 C 56.1035 -75.3906 58.6426 -75.9766 62.0605 -79.7852 L 67.627 -85.9863 C 71.1914 -89.9414 73.0469 -90.3809 77.6367 -90.3809 L 100.635 -90.3809 C 105.273 -90.3809 107.129 -89.9414 110.645 -85.9863 L 116.211 -79.7852 C 119.629 -75.9766 122.217 -75.3906 127.979 -75.3906 L 147.266 -75.3906 C 155.371 -75.3906 160.059 -71.0449 160.059 -62.5488 L 160.059 3.56445 C 160.059 12.0117 155.371 16.4062 147.266 16.4062 Z M 90.0391 4.58984 C 109.375 4.58984 125.049 -10.9863 125.049 -30.4688 C 125.049 -50 109.521 -65.5762 90.0391 -65.5762 C 70.7031 -65.5762 55.0293 -50 55.0293 -30.4688 C 55.0293 -10.9863 70.7031 4.58984 90.0391 4.58984 Z M 90.0391 0.488281 C 72.998 0.488281 59.1797 -13.3301 59.1797 -30.4688 C 59.1797 -47.6562 72.9492 -61.4746 90.0391 -61.4746 C 107.129 -61.4746 120.898 -47.6562 120.898 -30.4688 C 120.898 -13.3301 107.129 0.488281 90.0391 0.488281 Z M 128.809 -53.2715 C 128.809 -49.1699 132.129 -46.2891 136.084 -46.1426 C 139.844 -45.9961 143.164 -49.3652 143.164 -53.2715 C 143.164 -57.0312 139.844 -60.4492 136.084 -60.4492 C 132.129 -60.4492 128.809 -57.0312 128.809 -53.2715 Z"/>
  </g>
  <g id="Ultralight-L" transform="matrix(1 0 0 1 470.429 1556)">
   <path d="M 31.9824 19.7754 L 146.582 19.7754 C 156.982 19.7754 162.5 14.0625 162.5 3.85742 L 162.5 -62.793 C 162.5 -72.998 156.982 -78.7109 146.582 -78.7109 L 127.197 -78.7109 C 121.826 -78.7109 120.654 -78.8086 117.139 -82.7148 L 111.475 -89.0625 C 107.959 -92.8711 105.713 -93.6523 99.9023 -93.6523 L 76.5625 -93.6523 C 70.752 -93.6523 68.5059 -92.8711 65.0391 -89.0625 L 59.375 -82.7148 C 56.0059 -78.9551 54.5898 -78.7109 49.3164 -78.7109 L 31.9824 -78.7109 C 21.582 -78.7109 16.0645 -72.998 16.0645 -62.793 L 16.0645 3.85742 C 16.0645 14.0625 21.582 19.7754 31.9824 19.7754 Z M 32.1289 17.2363 C 23.584 17.2363 18.6035 12.6465 18.6035 3.75977 L 18.6035 -62.6465 C 18.6035 -71.5332 23.584 -76.1719 32.1289 -76.1719 L 49.0723 -76.1719 C 54.8828 -76.1719 57.3242 -76.6113 60.791 -80.4688 L 66.5039 -86.8164 C 70.0195 -90.7715 71.875 -91.1133 76.2695 -91.1133 L 100.195 -91.1133 C 104.59 -91.1133 106.445 -90.7715 110.01 -86.8164 L 115.674 -80.4688 C 119.189 -76.6113 121.631 -76.1719 127.441 -76.1719 L 146.436 -76.1719 C 155.029 -76.1719 159.961 -71.5332 159.961 -62.6465 L 159.961 3.75977 C 159.961 12.6465 155.029 17.2363 146.436 17.2363 Z M 89.3066 4.78516 C 108.691 4.78516 124.414 -10.8398 124.414 -30.4199 C 124.414 -50 108.887 -65.625 89.3066 -65.625 C 69.873 -65.625 54.1504 -50 54.1504 -30.4199 C 54.1504 -10.8398 69.873 4.78516 89.3066 4.78516 Z M 89.3066 1.95312 C 71.4844 1.95312 57.1289 -12.5 57.1289 -30.4199 C 57.1289 -48.291 71.4844 -62.7441 89.3066 -62.7441 C 107.08 -62.7441 121.436 -48.291 121.436 -30.4199 C 121.436 -12.5 107.08 1.95312 89.3066 1.95312 Z M 128.418 -53.125 C 128.418 -49.0723 131.689 -46.2891 135.596 -46.1426 C 139.258 -45.9473 142.529 -49.3164 142.529 -53.125 C 142.529 -56.7871 139.258 -60.1074 135.596 -60.1074 C 131.689 -60.1074 128.418 -56.7871 128.418 -53.125 Z"/>
  </g>
  <g id="Black-M" transform="matrix(1 0 0 1 2858.72 1126)">
   <path d="M 31.9824 13.5742 L 117.383 13.5742 C 129.639 13.5742 136.914 6.29883 136.914 -5.95703 L 136.914 -57.8125 C 136.914 -70.0684 129.639 -77.3438 117.383 -77.3438 L 106.982 -77.3438 C 103.271 -77.3438 101.709 -77.5391 98.5352 -80.1758 L 94.873 -83.252 C 91.7969 -85.8887 88.916 -86.6699 84.2773 -86.6699 L 65.0879 -86.6699 C 60.4492 -86.6699 57.5684 -85.8887 54.4922 -83.252 L 50.8301 -80.1758 C 47.6562 -77.5391 46.0938 -77.3438 42.3828 -77.3438 L 31.9824 -77.3438 C 19.7266 -77.3438 12.4512 -70.0684 12.4512 -57.8125 L 12.4512 -5.95703 C 12.4512 6.29883 19.7266 13.5742 31.9824 13.5742 Z M 34.9121 -4.73633 C 32.0801 -4.73633 30.7617 -5.81055 30.7617 -8.88672 L 30.7617 -54.8828 C 30.7617 -57.959 32.0801 -59.0332 34.9121 -59.0332 L 49.3164 -59.0332 C 53.7109 -59.0332 55.4199 -59.5703 57.959 -62.1582 L 61.2305 -65.2832 C 63.7207 -67.7246 65.4297 -68.4082 69.4824 -68.4082 L 79.8828 -68.4082 C 83.9355 -68.4082 85.6934 -67.627 87.8906 -65.4785 L 91.4062 -62.1582 C 93.9453 -59.668 95.6543 -59.0332 100.049 -59.0332 L 114.453 -59.0332 C 117.285 -59.0332 118.652 -57.959 118.652 -54.8828 L 118.652 -8.88672 C 118.652 -5.81055 117.285 -4.73633 114.453 -4.73633 Z M 74.707 -8.54492 C 88.5742 -8.54492 99.6582 -19.6777 99.6582 -33.5449 C 99.6582 -47.4121 88.5742 -58.5938 74.707 -58.5938 C 60.8887 -58.5938 49.707 -47.4121 49.707 -33.5449 C 49.707 -19.6777 60.8887 -8.54492 74.707 -8.54492 Z M 99.7559 -48.8281 C 99.7559 -44.6289 103.125 -41.2598 107.324 -41.3086 C 111.475 -41.3574 114.844 -44.6289 114.844 -48.8281 C 114.844 -52.8809 111.377 -56.3477 107.324 -56.3477 C 103.223 -56.3477 99.7559 -52.8809 99.7559 -48.8281 Z M 74.707 -23.9258 C 69.3848 -23.9258 65.0879 -28.2227 65.0879 -33.5449 C 65.0879 -38.916 69.3848 -43.2129 74.707 -43.2129 C 80.0781 -43.2129 84.2773 -38.916 84.2773 -33.5449 C 84.2773 -28.2227 80.0781 -23.9258 74.707 -23.9258 Z"/>
  </g>
  <g id="Heavy-M" transform="matrix(1 0 0 1 2562.54 1126)">
   <path d="M 31.0059 12.6465 L 117.285 12.6465 C 129.053 12.6465 135.84 5.9082 135.84 -5.81055 L 135.84 -57.4707 C 135.84 -69.2383 129.053 -75.9766 117.285 -75.9766 L 106.055 -75.9766 C 102.295 -75.9766 100.83 -76.3184 97.9004 -78.9062 L 94.1895 -82.3242 C 91.2598 -84.9609 88.4766 -85.8887 83.7402 -85.8887 L 64.502 -85.8887 C 59.7168 -85.8887 56.9336 -84.9609 54.0527 -82.3242 L 50.293 -78.9062 C 47.3633 -76.3184 45.8984 -75.9766 42.1387 -75.9766 L 31.0059 -75.9766 C 19.2383 -75.9766 12.4512 -69.2383 12.4512 -57.4707 L 12.4512 -5.81055 C 12.4512 5.9082 19.2383 12.6465 31.0059 12.6465 Z M 33.252 -3.17383 C 29.9805 -3.17383 28.2715 -4.63867 28.2715 -8.1543 L 28.2715 -55.127 C 28.2715 -58.6914 29.9805 -60.1562 33.252 -60.1562 L 47.9492 -60.1562 C 52.2949 -60.1562 54.1992 -60.7422 56.6895 -63.3789 L 60.0586 -66.7969 C 62.6465 -69.3359 64.3066 -70.0684 68.4082 -70.0684 L 79.7852 -70.0684 C 83.8867 -70.0684 85.5957 -69.2871 87.9395 -66.9434 L 91.5039 -63.3789 C 94.043 -60.791 95.8984 -60.1562 100.293 -60.1562 L 115.039 -60.1562 C 118.359 -60.1562 120.02 -58.6914 120.02 -55.127 L 120.02 -8.1543 C 120.02 -4.63867 118.359 -3.17383 115.039 -3.17383 Z M 74.1699 -7.71484 C 88.2324 -7.71484 99.5117 -19.043 99.5117 -33.1543 C 99.5117 -47.2656 88.2324 -58.5449 74.1699 -58.5449 C 60.1074 -58.5449 48.7793 -47.2656 48.7793 -33.1543 C 48.7793 -19.043 60.1074 -7.71484 74.1699 -7.71484 Z M 100.049 -49.0723 C 100.049 -45.0195 103.32 -41.8457 107.275 -41.8945 C 111.23 -41.9434 114.453 -45.0684 114.453 -49.0723 C 114.453 -52.9297 111.182 -56.2012 107.275 -56.2012 C 103.369 -56.2012 100.049 -52.9297 100.049 -49.0723 Z M 74.1699 -21.2402 C 67.5781 -21.2402 62.2559 -26.5625 62.2559 -33.1543 C 62.2559 -39.7949 67.5781 -45.0684 74.1699 -45.0684 C 80.7617 -45.0684 86.0352 -39.7949 86.0352 -33.1543 C 86.0352 -26.5625 80.7617 -21.2402 74.1699 -21.2402 Z"/>
  </g>
  <g id="Bold-M" transform="matrix(1 0 0 1 2266.44 1126)">
   <path d="M 29.8828 11.6699 L 117.236 11.6699 C 128.418 11.6699 134.619 5.46875 134.619 -5.66406 L 134.619 -57.1289 C 134.619 -68.3105 128.418 -74.4629 117.236 -74.4629 L 105.029 -74.4629 C 101.27 -74.4629 99.8535 -74.9512 97.2168 -77.4902 L 93.4082 -81.25 C 90.6738 -83.8867 87.9883 -85.0098 83.1055 -85.0098 L 63.8184 -85.0098 C 58.9355 -85.0098 56.25 -83.8867 53.5156 -81.25 L 49.707 -77.4902 C 47.0703 -74.9512 45.6543 -74.4629 41.8945 -74.4629 L 29.8828 -74.4629 C 18.6523 -74.4629 12.4512 -68.3105 12.4512 -57.1289 L 12.4512 -5.66406 C 12.4512 5.46875 18.6523 11.6699 29.8828 11.6699 Z M 31.3965 -1.41602 C 27.5879 -1.41602 25.5371 -3.27148 25.5371 -7.32422 L 25.5371 -55.4688 C 25.5371 -59.5215 27.5879 -61.377 31.3965 -61.377 L 46.3379 -61.377 C 50.7324 -61.377 52.7832 -62.0605 55.2734 -64.7461 L 58.7891 -68.457 C 61.4258 -71.1914 63.0371 -71.9238 67.2363 -71.9238 L 79.6875 -71.9238 C 83.8867 -71.9238 85.498 -71.1426 87.9883 -68.5547 L 91.6504 -64.7461 C 94.1406 -62.1094 96.1914 -61.377 100.586 -61.377 L 115.674 -61.377 C 119.531 -61.377 121.582 -59.5215 121.582 -55.4688 L 121.582 -7.32422 C 121.582 -3.27148 119.531 -1.41602 115.674 -1.41602 Z M 73.5352 -6.83594 C 87.8906 -6.83594 99.3652 -18.3105 99.3652 -32.666 C 99.3652 -47.0703 87.8906 -58.5449 73.5352 -58.5449 C 59.2285 -58.5449 47.7539 -47.0703 47.7539 -32.666 C 47.7539 -18.3105 59.2285 -6.83594 73.5352 -6.83594 Z M 100.391 -49.3164 C 100.391 -45.5078 103.467 -42.4805 107.275 -42.5293 C 110.938 -42.5781 114.062 -45.5078 114.062 -49.3164 C 114.062 -52.9785 110.938 -56.1035 107.275 -56.1035 C 103.516 -56.1035 100.391 -52.9785 100.391 -49.3164 Z M 73.5352 -18.2129 C 65.5762 -18.2129 59.1309 -24.6582 59.1309 -32.666 C 59.1309 -40.7227 65.5762 -47.168 73.5352 -47.168 C 81.543 -47.168 87.9883 -40.7227 87.9883 -32.666 C 87.9883 -24.6582 81.543 -18.2129 73.5352 -18.2129 Z"/>
  </g>
  <g id="Semibold-M" transform="matrix(1 0 0 1 1970.15 1126)">
   <path d="M 29.1016 10.9863 L 117.139 10.9863 C 127.979 10.9863 133.789 5.17578 133.789 -5.56641 L 133.789 -56.8848 C 133.789 -67.627 127.979 -73.4375 117.139 -73.4375 L 104.297 -73.4375 C 100.537 -73.4375 99.2188 -74.0234 96.7285 -76.5137 L 92.8711 -80.4688 C 90.2344 -83.1543 87.6465 -84.4238 82.7148 -84.4238 L 63.3301 -84.4238 C 58.3984 -84.4238 55.8105 -83.1543 53.1738 -80.4688 L 49.3164 -76.5137 C 46.8262 -74.0234 45.5078 -73.4375 41.748 -73.4375 L 29.1016 -73.4375 C 18.2617 -73.4375 12.4512 -67.627 12.4512 -56.8848 L 12.4512 -5.56641 C 12.4512 5.17578 18.2617 10.9863 29.1016 10.9863 Z M 30.127 -0.195312 C 25.9277 -0.195312 23.6328 -2.34375 23.6328 -6.78711 L 23.6328 -55.6641 C 23.6328 -60.1074 25.9277 -62.2559 30.127 -62.2559 L 45.2637 -62.2559 C 49.6582 -62.2559 51.8066 -62.9883 54.2969 -65.6738 L 57.9102 -69.5801 C 60.6445 -72.4609 62.1582 -73.2422 66.4062 -73.2422 L 79.6387 -73.2422 C 83.8867 -73.2422 85.4004 -72.4609 88.0371 -69.6289 L 91.748 -65.6738 C 94.2383 -62.9883 96.3867 -62.2559 100.781 -62.2559 L 116.113 -62.2559 C 120.312 -62.2559 122.656 -60.1074 122.656 -55.6641 L 122.656 -6.78711 C 122.656 -2.34375 120.312 -0.195312 116.113 -0.195312 Z M 73.1445 -6.20117 C 87.5977 -6.20117 99.2188 -17.8223 99.2188 -32.373 C 99.2188 -46.9238 87.6465 -58.5449 73.1445 -58.5449 C 58.6426 -58.5449 47.0215 -46.9238 47.0215 -32.373 C 47.0215 -17.8223 58.6426 -6.20117 73.1445 -6.20117 Z M 100.635 -49.4629 C 100.635 -45.8008 103.613 -42.9199 107.227 -42.9688 C 110.791 -42.9688 113.77 -45.8496 113.77 -49.4629 C 113.77 -52.9785 110.742 -56.0059 107.227 -56.0059 C 103.613 -56.0059 100.635 -52.9785 100.635 -49.4629 Z M 73.1445 -16.1621 C 64.209 -16.1621 56.9336 -23.3887 56.9336 -32.373 C 56.9336 -41.3574 64.1602 -48.584 73.1445 -48.584 C 82.0801 -48.584 89.3066 -41.3574 89.3066 -32.373 C 89.3066 -23.3887 82.0801 -16.1621 73.1445 -16.1621 Z"/>
  </g>
  <g id="Medium-M" transform="matrix(1 0 0 1 1673.73 1126)">
   <path d="M 28.5156 10.4492 L 117.09 10.4492 C 127.637 10.4492 133.203 4.98047 133.203 -5.46875 L 133.203 -56.7383 C 133.203 -67.1875 127.637 -72.6562 117.09 -72.6562 L 103.76 -72.6562 C 99.9512 -72.6562 98.7305 -73.291 96.3379 -75.7812 L 92.4805 -79.9316 C 89.9414 -82.6172 87.3535 -83.9355 82.373 -83.9355 L 62.9883 -83.9355 C 58.0078 -83.9355 55.4688 -82.6172 52.8809 -79.9316 L 49.0234 -75.7812 C 46.6797 -73.3398 45.4102 -72.6562 41.6016 -72.6562 L 28.5156 -72.6562 C 17.9688 -72.6562 12.4512 -67.1875 12.4512 -56.7383 L 12.4512 -5.46875 C 12.4512 4.98047 17.9688 10.4492 28.5156 10.4492 Z M 29.1504 0.732422 C 24.707 0.732422 22.168 -1.61133 22.168 -6.34766 L 22.168 -55.8594 C 22.168 -60.5469 24.707 -62.8906 29.1504 -62.8906 L 44.4336 -62.8906 C 48.8281 -62.8906 51.0742 -63.6719 53.5645 -66.3574 L 57.2754 -70.459 C 60.0098 -73.4375 61.4746 -74.2188 65.7715 -74.2188 L 79.5898 -74.2188 C 83.8867 -74.2188 85.3516 -73.4375 88.0371 -70.5078 L 91.7969 -66.3574 C 94.2871 -63.6719 96.5332 -62.8906 100.928 -62.8906 L 116.455 -62.8906 C 120.947 -62.8906 123.438 -60.5469 123.438 -55.8594 L 123.438 -6.34766 C 123.438 -1.61133 120.947 0.732422 116.455 0.732422 Z M 72.8027 -5.71289 C 87.4512 -5.71289 99.1699 -17.4316 99.1699 -32.1289 C 99.1699 -46.8262 87.4512 -58.5449 72.8027 -58.5449 C 58.2031 -58.5449 46.4844 -46.8262 46.4844 -32.1289 C 46.4844 -17.4316 58.2031 -5.71289 72.8027 -5.71289 Z M 100.83 -49.6094 C 100.83 -46.0449 103.711 -43.2617 107.227 -43.3105 C 110.645 -43.3105 113.525 -46.0938 113.525 -49.6094 C 113.525 -53.0273 110.596 -55.957 107.227 -55.957 C 103.711 -55.957 100.83 -53.0273 100.83 -49.6094 Z M 72.8027 -14.5996 C 63.1836 -14.5996 55.3223 -22.4121 55.3223 -32.1289 C 55.3223 -41.8945 63.1348 -49.6582 72.8027 -49.6582 C 82.5195 -49.6582 90.332 -41.8945 90.332 -32.1289 C 90.332 -22.4121 82.5195 -14.5996 72.8027 -14.5996 Z"/>
  </g>
  <g id="Regular-M" transform="matrix(1 0 0 1 1377.43 1126)">
   <path d="M 27.7832 9.76562 L 117.041 9.76562 C 127.197 9.76562 132.373 4.6875 132.373 -5.37109 L 132.373 -56.4941 C 132.373 -66.5527 127.197 -71.582 117.041 -71.582 L 103.076 -71.582 C 99.2188 -71.582 98.0469 -72.3633 95.8496 -74.8047 L 91.9434 -79.1992 C 89.502 -81.8848 87.0117 -83.3496 81.9824 -83.3496 L 62.5 -83.3496 C 57.4707 -83.3496 54.9805 -81.8848 52.5391 -79.1992 L 48.6328 -74.8047 C 46.4355 -72.4121 45.2148 -71.582 41.4062 -71.582 L 27.7832 -71.582 C 17.5781 -71.582 12.4512 -66.5527 12.4512 -56.4941 L 12.4512 -5.37109 C 12.4512 4.6875 17.5781 9.76562 27.7832 9.76562 Z M 27.8809 1.9043 C 23.0957 1.9043 20.3125 -0.683594 20.3125 -5.76172 L 20.3125 -56.0547 C 20.3125 -61.1328 23.0957 -63.7207 27.8809 -63.7207 L 43.3594 -63.7207 C 47.7539 -63.7207 50.1465 -64.5508 52.5879 -67.2852 L 56.3965 -71.582 C 59.1797 -74.707 60.6445 -75.4883 64.9414 -75.4883 L 79.541 -75.4883 C 83.8379 -75.4883 85.3027 -74.707 88.0859 -71.582 L 91.8945 -67.2852 C 94.3359 -64.5508 96.7285 -63.7207 101.123 -63.7207 L 116.895 -63.7207 C 121.729 -63.7207 124.512 -61.1328 124.512 -56.0547 L 124.512 -5.76172 C 124.512 -0.683594 121.729 1.9043 116.895 1.9043 Z M 72.4121 -5.12695 C 87.1582 -5.12695 99.0234 -16.9434 99.0234 -31.8359 C 99.0234 -46.6797 87.207 -58.4961 72.4121 -58.4961 C 57.6172 -58.4961 45.752 -46.6797 45.752 -31.8359 C 45.752 -16.9434 57.6172 -5.12695 72.4121 -5.12695 Z M 101.025 -49.8047 C 101.025 -46.3867 103.857 -43.7012 107.178 -43.7012 C 110.449 -43.75 113.232 -46.4355 113.232 -49.8047 C 113.232 -53.0273 110.449 -55.8594 107.178 -55.8594 C 103.857 -55.8594 101.025 -53.0273 101.025 -49.8047 Z M 72.4121 -12.5488 C 61.8164 -12.5488 53.125 -21.0938 53.125 -31.8359 C 53.125 -42.5293 61.7676 -51.123 72.4121 -51.123 C 83.0566 -51.123 91.6504 -42.5293 91.6504 -31.8359 C 91.6504 -21.0938 83.0566 -12.5488 72.4121 -12.5488 Z"/>
  </g>
  <g id="Light-M" transform="matrix(1 0 0 1 1081.72 1126)">
   <path d="M 26.8555 9.0332 L 115.967 9.0332 C 125.488 9.0332 130.371 4.15039 130.371 -5.22461 L 130.371 -56.4941 C 130.371 -65.918 125.488 -70.8008 115.967 -70.8008 L 101.66 -70.8008 C 97.7539 -70.8008 96.6309 -71.3379 94.2871 -73.9746 L 90.2344 -78.5156 C 87.6953 -81.25 85.4492 -82.4707 80.5664 -82.4707 L 61.5234 -82.4707 C 56.6406 -82.4707 54.3945 -81.25 51.9043 -78.5156 L 47.8027 -73.9746 C 45.5078 -71.3867 44.3359 -70.8008 40.4297 -70.8008 L 26.8555 -70.8008 C 17.334 -70.8008 12.4512 -65.918 12.4512 -56.4941 L 12.4512 -5.22461 C 12.4512 4.15039 17.334 9.0332 26.8555 9.0332 Z M 26.9531 2.97852 C 21.582 2.97852 18.5059 0.0976562 18.5059 -5.56641 L 18.5059 -56.2012 C 18.5059 -61.8164 21.582 -64.7461 26.9531 -64.7461 L 41.748 -64.7461 C 46.1426 -64.7461 48.3887 -65.3809 50.8789 -68.2129 L 54.8828 -72.7051 C 57.666 -75.7812 59.082 -76.416 63.1348 -76.416 L 78.9551 -76.416 C 83.0078 -76.416 84.4238 -75.7812 87.207 -72.7051 L 91.2109 -68.2129 C 93.75 -65.3809 95.9473 -64.7461 100.391 -64.7461 L 115.869 -64.7461 C 121.24 -64.7461 124.316 -61.8164 124.316 -56.2012 L 124.316 -5.56641 C 124.316 0.0976562 121.24 2.97852 115.869 2.97852 Z M 71.4355 -4.83398 C 86.2793 -4.83398 98.2422 -16.748 98.2422 -31.7383 C 98.2422 -46.6797 86.3281 -58.5938 71.4355 -58.5938 C 56.543 -58.5938 44.5801 -46.6797 44.5801 -31.7383 C 44.5801 -16.748 56.543 -4.83398 71.4355 -4.83398 Z M 100.586 -49.5605 C 100.586 -46.2402 103.271 -43.75 106.543 -43.7012 C 109.668 -43.7012 112.402 -46.3379 112.402 -49.5605 C 112.402 -52.6855 109.668 -55.4688 106.543 -55.4688 C 103.271 -55.4688 100.586 -52.6855 100.586 -49.5605 Z M 71.4355 -10.6445 C 59.8145 -10.6445 50.3906 -20.0195 50.3906 -31.7383 C 50.3906 -43.4082 59.7656 -52.7832 71.4355 -52.7832 C 83.0566 -52.7832 92.4316 -43.4082 92.4316 -31.7383 C 92.4316 -20.0195 83.0566 -10.6445 71.4355 -10.6445 Z"/>
  </g>
  <g id="Thin-M" transform="matrix(1 0 0 1 786.329 1126)">
   <path d="M 25.6348 8.05664 L 114.551 8.05664 C 123.193 8.05664 127.734 3.4668 127.734 -5.0293 L 127.734 -56.543 C 127.734 -65.0879 123.193 -69.6777 114.551 -69.6777 L 99.8047 -69.6777 C 95.752 -69.6777 94.7754 -69.9219 92.1875 -72.8027 L 87.9395 -77.5879 C 85.3027 -80.4688 83.3496 -81.2988 78.7109 -81.2988 L 60.2539 -81.2988 C 55.5664 -81.2988 53.6133 -80.4688 51.0254 -77.5879 L 46.7285 -72.8027 C 44.2871 -70.0195 43.1152 -69.6777 39.1113 -69.6777 L 25.6348 -69.6777 C 16.9922 -69.6777 12.4512 -65.0879 12.4512 -56.543 L 12.4512 -5.0293 C 12.4512 3.4668 16.9922 8.05664 25.6348 8.05664 Z M 25.7324 4.44336 C 19.6289 4.44336 16.0645 1.12305 16.0645 -5.22461 L 16.0645 -56.3477 C 16.0645 -62.7441 19.6289 -66.0645 25.7324 -66.0645 L 39.5508 -66.0645 C 43.9941 -66.0645 46.0449 -66.5039 48.6328 -69.4824 L 52.8809 -74.2188 C 55.6641 -77.2461 57.0801 -77.6855 60.7422 -77.6855 L 78.1738 -77.6855 C 81.8359 -77.6855 83.3008 -77.2461 86.0352 -74.2188 L 90.2832 -69.4824 C 92.9199 -66.5039 94.9219 -66.0645 99.4141 -66.0645 L 114.453 -66.0645 C 120.605 -66.0645 124.121 -62.7441 124.121 -56.3477 L 124.121 -5.22461 C 124.121 1.12305 120.605 4.44336 114.453 4.44336 Z M 70.1172 -4.44336 C 85.0586 -4.44336 97.168 -16.5039 97.168 -31.5918 C 97.168 -46.6797 85.1562 -58.6914 70.1172 -58.6914 C 55.127 -58.6914 43.0176 -46.6797 43.0176 -31.5918 C 43.0176 -16.5039 55.127 -4.44336 70.1172 -4.44336 Z M 70.1172 -8.1543 C 57.1777 -8.1543 46.7773 -18.6035 46.7773 -31.5918 C 46.7773 -44.5801 57.1777 -55.0293 70.1172 -55.0293 C 83.0078 -55.0293 93.457 -44.5801 93.457 -31.5918 C 93.457 -18.6035 83.0078 -8.1543 70.1172 -8.1543 Z M 99.9512 -49.3164 C 99.9512 -46.0449 102.588 -43.7988 105.664 -43.7012 C 108.643 -43.6035 111.23 -46.2402 111.23 -49.3164 C 111.23 -52.2461 108.643 -54.8828 105.664 -54.8828 C 102.588 -54.8828 99.9512 -52.2461 99.9512 -49.3164 Z"/>
  </g>
  <g id="Ultralight-M" transform="matrix(1 0 0 1 490.278 1126)">
   <path d="M 25 7.56836 L 113.867 7.56836 C 122.07 7.56836 126.416 3.125 126.416 -4.98047 L 126.416 -56.5918 C 126.416 -64.6484 122.07 -69.1406 113.867 -69.1406 L 98.877 -69.1406 C 94.7754 -69.1406 93.8477 -69.2383 91.1621 -72.2168 L 86.7676 -77.0996 C 84.082 -80.0293 82.2754 -80.7129 77.7344 -80.7129 L 59.5703 -80.7129 C 55.0293 -80.7129 53.2227 -80.0293 50.5371 -77.0996 L 46.1914 -72.2168 C 43.6035 -69.3359 42.4805 -69.1406 38.4277 -69.1406 L 25 -69.1406 C 16.7969 -69.1406 12.4512 -64.6484 12.4512 -56.5918 L 12.4512 -4.98047 C 12.4512 3.125 16.7969 7.56836 25 7.56836 Z M 25.0977 5.17578 C 18.6035 5.17578 14.8438 1.66016 14.8438 -5.07812 L 14.8438 -56.4453 C 14.8438 -63.2324 18.6035 -66.748 25.0977 -66.748 L 38.4277 -66.748 C 42.9199 -66.748 44.8242 -67.0898 47.5098 -70.0684 L 51.9043 -74.9512 C 54.6387 -78.0273 56.0547 -78.3203 59.5215 -78.3203 L 77.7832 -78.3203 C 81.25 -78.3203 82.7148 -78.0273 85.4492 -74.9512 L 89.8438 -70.0684 C 92.4805 -67.0898 94.4336 -66.748 98.9258 -66.748 L 113.721 -66.748 C 120.264 -66.748 124.023 -63.2324 124.023 -56.4453 L 124.023 -5.07812 C 124.023 1.66016 120.264 5.17578 113.721 5.17578 Z M 69.4336 -4.24805 C 84.4238 -4.24805 96.6309 -16.3574 96.6309 -31.4941 C 96.6309 -46.6797 84.5703 -58.7402 69.4336 -58.7402 C 54.3945 -58.7402 42.2363 -46.6797 42.2363 -31.4941 C 42.2363 -16.3574 54.3945 -4.24805 69.4336 -4.24805 Z M 69.4336 -6.88477 C 55.8594 -6.88477 44.873 -17.8711 44.873 -31.4941 C 44.873 -45.166 55.8594 -56.1523 69.4336 -56.1523 C 83.0078 -56.1523 93.9453 -45.166 93.9453 -31.4941 C 93.9453 -17.8711 83.0078 -6.88477 69.4336 -6.88477 Z M 99.6582 -49.1699 C 99.6582 -45.9961 102.197 -43.7988 105.225 -43.6523 C 108.105 -43.5547 110.645 -46.1426 110.645 -49.1699 C 110.645 -52.002 108.105 -54.6387 105.225 -54.6387 C 102.197 -54.6387 99.6582 -52.002 99.6582 -49.1699 Z"/>
  </g>
  <g id="Black-S" transform="matrix(1 0 0 1 2874.9 696)">
   <path d="M 25 2.92969 L 91.9922 2.92969 C 101.562 2.92969 107.227 -2.73438 107.227 -12.3047 L 107.227 -52.8809 C 107.227 -62.4512 101.562 -68.1152 91.9922 -68.1152 L 83.7891 -68.1152 C 80.8594 -68.1152 79.6387 -68.3105 77.1973 -70.3613 L 74.3164 -72.8027 C 71.9238 -74.8535 69.6777 -75.4883 66.0156 -75.4883 L 50.9766 -75.4883 C 47.3145 -75.4883 45.0684 -74.8535 42.6758 -72.8027 L 39.7949 -70.3613 C 37.3535 -68.3105 36.1328 -68.1152 33.2031 -68.1152 L 25 -68.1152 C 15.4297 -68.1152 9.76562 -62.4512 9.76562 -52.8809 L 9.76562 -12.3047 C 9.76562 -2.73438 15.4297 2.92969 25 2.92969 Z M 27.2461 -11.2305 C 25 -11.2305 23.9258 -12.1094 23.9258 -14.5508 L 23.9258 -50.6348 C 23.9258 -53.0762 25 -53.9551 27.2461 -53.9551 L 38.5742 -53.9551 C 41.9922 -53.9551 43.3594 -54.3945 45.3613 -56.3965 L 47.9004 -58.8867 C 49.8535 -60.791 51.2207 -61.3281 54.3945 -61.3281 L 62.5977 -61.3281 C 65.7715 -61.3281 67.1387 -60.7422 68.8965 -59.0332 L 71.6309 -56.3965 C 73.6328 -54.4434 75 -53.9551 78.418 -53.9551 L 89.7461 -53.9551 C 91.9922 -53.9551 93.0664 -53.0762 93.0664 -50.6348 L 93.0664 -14.5508 C 93.0664 -12.1094 91.9922 -11.2305 89.7461 -11.2305 Z M 58.4961 -14.2578 C 69.3848 -14.2578 78.0762 -22.998 78.0762 -33.8867 C 78.0762 -44.7754 69.3848 -53.5156 58.4961 -53.5156 C 47.6562 -53.5156 38.916 -44.7754 38.916 -33.8867 C 38.916 -22.998 47.6562 -14.2578 58.4961 -14.2578 Z M 78.1738 -45.8984 C 78.1738 -42.627 80.8105 -39.9902 84.082 -40.0391 C 87.3047 -40.0879 89.9414 -42.627 89.9414 -45.8984 C 89.9414 -49.0723 87.2559 -51.7578 84.082 -51.7578 C 80.8594 -51.7578 78.1738 -49.0723 78.1738 -45.8984 Z M 58.4961 -26.1719 C 54.248 -26.1719 50.8301 -29.6387 50.8301 -33.8867 C 50.8301 -38.1836 54.248 -41.6016 58.4961 -41.6016 C 62.793 -41.6016 66.1621 -38.1836 66.1621 -33.8867 C 66.1621 -29.6387 62.793 -26.1719 58.4961 -26.1719 Z"/>
  </g>
  <g id="Heavy-S" transform="matrix(1 0 0 1 2578.49 696)">
   <path d="M 24.3652 2.34375 L 92.041 2.34375 C 101.318 2.34375 106.641 -2.97852 106.641 -12.207 L 106.641 -52.6367 C 106.641 -61.8652 101.318 -67.1875 92.041 -67.1875 L 83.252 -67.1875 C 80.2734 -67.1875 79.1504 -67.4805 76.9043 -69.4824 L 73.9746 -72.1191 C 71.7285 -74.2188 69.4824 -75 65.7715 -75 L 50.6348 -75 C 46.875 -75 44.6777 -74.2188 42.3828 -72.1191 L 39.502 -69.4824 C 37.2559 -67.4805 36.084 -67.1875 33.1543 -67.1875 L 24.3652 -67.1875 C 15.0879 -67.1875 9.76562 -61.8652 9.76562 -52.6367 L 9.76562 -12.207 C 9.76562 -2.97852 15.0879 2.34375 24.3652 2.34375 Z M 26.0742 -10.1562 C 23.5352 -10.1562 22.2656 -11.2793 22.2656 -14.0137 L 22.2656 -50.8301 C 22.2656 -53.5645 23.5352 -54.6875 26.0742 -54.6875 L 37.6953 -54.6875 C 41.1133 -54.6875 42.627 -55.1758 44.5801 -57.2266 L 47.2168 -59.9121 C 49.2188 -61.9141 50.5371 -62.5 53.7598 -62.5 L 62.5977 -62.5 C 65.8691 -62.5 67.1875 -61.8652 69.043 -60.0098 L 71.7773 -57.2266 C 73.7793 -55.2246 75.293 -54.6875 78.7109 -54.6875 L 90.2832 -54.6875 C 92.8711 -54.6875 94.1406 -53.5645 94.1406 -50.8301 L 94.1406 -14.0137 C 94.1406 -11.2793 92.8711 -10.1562 90.2832 -10.1562 Z M 58.2031 -13.6719 C 69.2383 -13.6719 78.0762 -22.5098 78.0762 -33.5938 C 78.0762 -44.6289 69.2383 -53.5156 58.2031 -53.5156 C 47.168 -53.5156 38.3301 -44.6289 38.3301 -33.5938 C 38.3301 -22.5098 47.168 -13.6719 58.2031 -13.6719 Z M 78.4668 -46.0938 C 78.4668 -42.9688 81.0059 -40.4297 84.1309 -40.4785 C 87.207 -40.5273 89.7461 -42.9688 89.7461 -46.0938 C 89.7461 -49.1211 87.1582 -51.709 84.1309 -51.709 C 81.0547 -51.709 78.4668 -49.1211 78.4668 -46.0938 Z M 58.2031 -24.3164 C 53.125 -24.3164 48.9746 -28.4668 48.9746 -33.5938 C 48.9746 -38.7207 53.0762 -42.8223 58.2031 -42.8223 C 63.3301 -42.8223 67.4316 -38.7207 67.4316 -33.5938 C 67.4316 -28.4668 63.3301 -24.3164 58.2031 -24.3164 Z"/>
  </g>
  <g id="Bold-S" transform="matrix(1 0 0 1 2282.12 696)">
   <path d="M 23.6328 1.66016 L 92.0898 1.66016 C 101.025 1.66016 105.957 -3.22266 105.957 -12.1094 L 105.957 -52.3926 C 105.957 -61.2793 101.025 -66.1133 92.0898 -66.1133 L 82.6172 -66.1133 C 79.6875 -66.1133 78.5645 -66.5527 76.5625 -68.5059 L 73.584 -71.3867 C 71.4844 -73.4863 69.3359 -74.4141 65.4785 -74.4141 L 50.1953 -74.4141 C 46.3867 -74.4141 44.2383 -73.4863 42.0898 -71.3867 L 39.1602 -68.5059 C 37.1094 -66.5527 36.0352 -66.1133 33.0566 -66.1133 L 23.6328 -66.1133 C 14.6973 -66.1133 9.76562 -61.2793 9.76562 -52.3926 L 9.76562 -12.1094 C 9.76562 -3.22266 14.6973 1.66016 23.6328 1.66016 Z M 24.8047 -8.93555 C 21.9238 -8.93555 20.3613 -10.3516 20.3613 -13.4277 L 20.3613 -51.0742 C 20.3613 -54.1504 21.9238 -55.5176 24.8047 -55.5176 L 36.6699 -55.5176 C 40.0879 -55.5176 41.748 -56.1035 43.7012 -58.1543 L 46.4355 -61.0352 C 48.4863 -63.1836 49.7559 -63.8184 53.0762 -63.8184 L 62.5977 -63.8184 C 65.9668 -63.8184 67.1875 -63.1836 69.1895 -61.084 L 71.9727 -58.1543 C 73.9258 -56.1035 75.5859 -55.5176 79.0039 -55.5176 L 90.918 -55.5176 C 93.7988 -55.5176 95.3613 -54.1504 95.3613 -51.0742 L 95.3613 -13.4277 C 95.3613 -10.3516 93.7988 -8.93555 90.918 -8.93555 Z M 57.8613 -13.0371 C 69.0918 -13.0371 78.0273 -22.0215 78.0273 -33.252 C 78.0273 -44.4824 69.0918 -53.4668 57.8613 -53.4668 C 46.6797 -53.4668 37.6953 -44.4824 37.6953 -33.252 C 37.6953 -22.0215 46.6797 -13.0371 57.8613 -13.0371 Z M 78.7598 -46.3379 C 78.7598 -43.3105 81.2012 -40.918 84.1797 -40.9668 C 87.1094 -41.0156 89.5508 -43.3105 89.5508 -46.3379 C 89.5508 -49.2188 87.0605 -51.6602 84.1797 -51.6602 C 81.25 -51.6602 78.7598 -49.2188 78.7598 -46.3379 Z M 57.8613 -22.2656 C 51.8066 -22.2656 46.9238 -27.1484 46.9238 -33.252 C 46.9238 -39.3555 51.8066 -44.2383 57.8613 -44.2383 C 63.916 -44.2383 68.7988 -39.3555 68.7988 -33.252 C 68.7988 -27.1484 63.916 -22.2656 57.8613 -22.2656 Z"/>
  </g>
  <g id="Semibold-S" transform="matrix(1 0 0 1 1985.65 696)">
   <path d="M 23.0957 1.17188 L 92.1387 1.17188 C 100.83 1.17188 105.469 -3.36914 105.469 -12.0117 L 105.469 -52.1973 C 105.469 -60.8398 100.83 -65.3809 92.1387 -65.3809 L 82.1777 -65.3809 C 79.248 -65.3809 78.1738 -65.918 76.3184 -67.8223 L 73.3398 -70.8984 C 71.2891 -72.9492 69.1895 -74.0234 65.2832 -74.0234 L 49.9512 -74.0234 C 46.0449 -74.0234 43.8965 -72.9492 41.8945 -70.8984 L 38.916 -67.8223 C 37.0117 -65.918 35.9863 -65.3809 33.0078 -65.3809 L 23.0957 -65.3809 C 14.4043 -65.3809 9.76562 -60.8398 9.76562 -52.1973 L 9.76562 -12.0117 C 9.76562 -3.36914 14.4043 1.17188 23.0957 1.17188 Z M 23.877 -8.10547 C 20.8008 -8.10547 19.0918 -9.7168 19.0918 -12.9883 L 19.0918 -51.2207 C 19.0918 -54.4922 20.8008 -56.1035 23.877 -56.1035 L 35.9863 -56.1035 C 39.4043 -56.1035 41.1621 -56.7383 43.0664 -58.7891 L 45.8984 -61.8164 C 47.998 -64.0625 49.2188 -64.7461 52.5879 -64.7461 L 62.5977 -64.7461 C 66.0156 -64.7461 67.2363 -64.0625 69.2871 -61.8652 L 72.1191 -58.7891 C 74.0234 -56.7383 75.7812 -56.1035 79.1992 -56.1035 L 91.3574 -56.1035 C 94.4824 -56.1035 96.1914 -54.4922 96.1914 -51.2207 L 96.1914 -12.9883 C 96.1914 -9.7168 94.4824 -8.10547 91.3574 -8.10547 Z M 57.6172 -12.5488 C 68.9453 -12.5488 78.0273 -21.6309 78.0273 -33.0078 C 78.0273 -44.3848 68.9453 -53.4668 57.6172 -53.4668 C 46.2891 -53.4668 37.207 -44.3848 37.207 -33.0078 C 37.207 -21.6309 46.2891 -12.5488 57.6172 -12.5488 Z M 79.0039 -46.4844 C 79.0039 -43.5547 81.3477 -41.2598 84.2285 -41.3086 C 87.0117 -41.3574 89.4043 -43.6035 89.4043 -46.4844 C 89.4043 -49.2676 87.0117 -51.6602 84.2285 -51.6602 C 81.3477 -51.6602 79.0039 -49.2676 79.0039 -46.4844 Z M 57.6172 -20.8496 C 50.9277 -20.8496 45.459 -26.2695 45.459 -33.0078 C 45.459 -39.7949 50.9277 -45.166 57.6172 -45.166 C 64.3555 -45.166 69.7754 -39.7949 69.7754 -33.0078 C 69.7754 -26.2695 64.3555 -20.8496 57.6172 -20.8496 Z"/>
  </g>
  <g id="Medium-S" transform="matrix(1 0 0 1 1689.11 696)">
   <path d="M 22.7051 0.830078 L 92.1875 0.830078 C 100.684 0.830078 105.127 -3.51562 105.127 -11.9629 L 105.127 -52.0508 C 105.127 -60.498 100.684 -64.8438 92.1875 -64.8438 L 81.8359 -64.8438 C 78.9062 -64.8438 77.8809 -65.4785 76.123 -67.334 L 73.1445 -70.5078 C 71.1914 -72.5586 69.0918 -73.7305 65.1367 -73.7305 L 49.707 -73.7305 C 45.752 -73.7305 43.6523 -72.5586 41.6992 -70.5078 L 38.7207 -67.334 C 36.9629 -65.4785 35.9375 -64.8438 33.0078 -64.8438 L 22.7051 -64.8438 C 14.209 -64.8438 9.76562 -60.498 9.76562 -52.0508 L 9.76562 -11.9629 C 9.76562 -3.51562 14.209 0.830078 22.7051 0.830078 Z M 23.1934 -7.4707 C 19.9219 -7.4707 18.0664 -9.22852 18.0664 -12.6953 L 18.0664 -51.3184 C 18.0664 -54.7852 19.9219 -56.543 23.1934 -56.543 L 35.498 -56.543 C 38.916 -56.543 40.7227 -57.1777 42.627 -59.2773 L 45.459 -62.4023 C 47.6074 -64.7461 48.7793 -65.4297 52.2461 -65.4297 L 62.5977 -65.4297 C 66.0645 -65.4297 67.2363 -64.7461 69.3359 -62.4023 L 72.2168 -59.2773 C 74.1211 -57.1777 75.9277 -56.543 79.3457 -56.543 L 91.6992 -56.543 C 94.9707 -56.543 96.8262 -54.7852 96.8262 -51.3184 L 96.8262 -12.6953 C 96.8262 -9.22852 94.9707 -7.4707 91.6992 -7.4707 Z M 57.4707 -12.207 C 68.8477 -12.207 78.0273 -21.3867 78.0273 -32.8125 C 78.0273 -44.2871 68.8965 -53.4668 57.4707 -53.4668 C 46.0449 -53.4668 36.8652 -44.2871 36.8652 -32.8125 C 36.8652 -21.3867 46.0449 -12.207 57.4707 -12.207 Z M 79.1504 -46.582 C 79.1504 -43.75 81.4453 -41.5039 84.2285 -41.5527 C 86.9629 -41.6016 89.2578 -43.7988 89.2578 -46.582 C 89.2578 -49.3164 86.9629 -51.6113 84.2285 -51.6113 C 81.4941 -51.6113 79.1504 -49.3164 79.1504 -46.582 Z M 57.4707 -19.7754 C 50.293 -19.7754 44.3848 -25.5859 44.3848 -32.8125 C 44.3848 -40.0879 50.2441 -45.8984 57.4707 -45.8984 C 64.6484 -45.8984 70.5078 -40.0879 70.5078 -32.8125 C 70.5078 -25.5859 64.6484 -19.7754 57.4707 -19.7754 Z"/>
  </g>
  <g id="Regular-S" transform="matrix(1 0 0 1 1392.62 696)">
   <path d="M 22.2168 0.390625 L 92.2363 0.390625 C 100.537 0.390625 104.688 -3.71094 104.688 -11.9141 L 104.688 -51.8555 C 104.688 -60.0586 100.537 -64.1113 92.2363 -64.1113 L 81.4453 -64.1113 C 78.4668 -64.1113 77.5391 -64.8438 75.8789 -66.6504 L 72.9004 -70.0195 C 70.9961 -72.0703 68.9453 -73.3398 64.9414 -73.3398 L 49.4629 -73.3398 C 45.4102 -73.3398 43.3594 -72.0703 41.5039 -70.0195 L 38.4766 -66.6504 C 36.8652 -64.8438 35.8887 -64.1113 32.959 -64.1113 L 22.2168 -64.1113 C 13.916 -64.1113 9.76562 -60.0586 9.76562 -51.8555 L 9.76562 -11.9141 C 9.76562 -3.71094 13.916 0.390625 22.2168 0.390625 Z M 22.3145 -6.68945 C 18.7988 -6.68945 16.7969 -8.54492 16.7969 -12.2559 L 16.7969 -51.4648 C 16.7969 -55.1758 18.7988 -57.0801 22.3145 -57.0801 L 34.8145 -57.0801 C 38.2324 -57.0801 40.1367 -57.8125 42.041 -59.9121 L 44.9219 -63.1836 C 47.1191 -65.625 48.2422 -66.3086 51.7578 -66.3086 L 62.5977 -66.3086 C 66.1133 -66.3086 67.2363 -65.625 69.4336 -63.1836 L 72.3633 -59.9121 C 74.2188 -57.8125 76.1719 -57.0801 79.5898 -57.0801 L 92.1387 -57.0801 C 95.6055 -57.0801 97.6074 -55.1758 97.6074 -51.4648 L 97.6074 -12.2559 C 97.6074 -8.54492 95.6055 -6.68945 92.1387 -6.68945 Z M 57.2266 -11.7676 C 68.75 -11.7676 77.9785 -20.9961 77.9785 -32.6172 C 77.9785 -44.1895 68.75 -53.418 57.2266 -53.418 C 45.7031 -53.418 36.4258 -44.1895 36.4258 -32.6172 C 36.4258 -20.9961 45.7031 -11.7676 57.2266 -11.7676 Z M 79.3945 -46.7285 C 79.3945 -44.043 81.5918 -41.8457 84.2773 -41.8945 C 86.9141 -41.9434 89.1113 -44.043 89.1113 -46.7285 C 89.1113 -49.3652 86.9141 -51.6113 84.2773 -51.6113 C 81.5918 -51.6113 79.3945 -49.3652 79.3945 -46.7285 Z M 57.2266 -18.3594 C 49.4141 -18.3594 42.9688 -24.707 42.9688 -32.6172 C 42.9688 -40.5273 49.3652 -46.8262 57.2266 -46.8262 C 65.0879 -46.8262 71.4355 -40.5273 71.4355 -32.6172 C 71.4355 -24.707 65.0879 -18.3594 57.2266 -18.3594 Z"/>
  </g>
  <g id="Light-S" transform="matrix(1 0 0 1 1096.79 696)">
   <path d="M 21.3867 -0.292969 L 91.2598 -0.292969 C 98.9746 -0.292969 102.93 -4.15039 102.93 -11.7676 L 102.93 -51.9043 C 102.93 -59.5215 98.9746 -63.3789 91.2598 -63.3789 L 80.1758 -63.3789 C 77.1484 -63.3789 76.2695 -63.916 74.4629 -65.918 L 71.3379 -69.3848 C 69.4336 -71.5332 67.5293 -72.5586 63.6719 -72.5586 L 48.584 -72.5586 C 44.7266 -72.5586 42.8711 -71.5332 40.918 -69.3848 L 37.793 -65.918 C 36.0352 -63.916 35.1074 -63.3789 32.0801 -63.3789 L 21.3867 -63.3789 C 13.6719 -63.3789 9.76562 -59.5215 9.76562 -51.9043 L 9.76562 -11.7676 C 9.76562 -4.15039 13.6719 -0.292969 21.3867 -0.292969 Z M 21.4844 -5.71289 C 17.4805 -5.71289 15.1855 -7.86133 15.1855 -12.0605 L 15.1855 -51.6113 C 15.1855 -55.8105 17.4805 -57.959 21.4844 -57.959 L 33.3496 -57.959 C 36.7676 -57.959 38.5742 -58.5449 40.5273 -60.7422 L 43.6035 -64.1602 C 45.8008 -66.6016 46.9238 -67.1387 50.1953 -67.1387 L 62.1094 -67.1387 C 65.3809 -67.1387 66.5039 -66.6016 68.6523 -64.1602 L 71.7285 -60.7422 C 73.6816 -58.5449 75.4883 -57.959 78.9062 -57.959 L 91.1621 -57.959 C 95.166 -57.959 97.4609 -55.8105 97.4609 -51.6113 L 97.4609 -12.0605 C 97.4609 -7.86133 95.166 -5.71289 91.1621 -5.71289 Z M 56.3477 -11.5234 C 67.9688 -11.5234 77.2949 -20.8496 77.2949 -32.5195 C 77.2949 -44.1895 67.9688 -53.5156 56.3477 -53.5156 C 44.7266 -53.5156 35.4004 -44.1895 35.4004 -32.5195 C 35.4004 -20.8496 44.7266 -11.5234 56.3477 -11.5234 Z M 78.9551 -46.5332 C 78.9551 -43.8965 81.1035 -41.8945 83.6914 -41.8945 C 86.1816 -41.8945 88.3789 -43.9453 88.3789 -46.5332 C 88.3789 -49.0723 86.1816 -51.2207 83.6914 -51.2207 C 81.1035 -51.2207 78.9551 -49.0723 78.9551 -46.5332 Z M 56.3477 -16.6992 C 47.6562 -16.6992 40.5273 -23.7305 40.5273 -32.5195 C 40.5273 -41.3086 47.6074 -48.3398 56.3477 -48.3398 C 65.0879 -48.3398 72.1191 -41.3086 72.1191 -32.5195 C 72.1191 -23.7305 65.0879 -16.6992 56.3477 -16.6992 Z"/>
  </g>
  <g id="Thin-S" transform="matrix(1 0 0 1 801.246 696)">
   <path d="M 20.3125 -1.12305 L 90.0391 -1.12305 C 96.9727 -1.12305 100.586 -4.78516 100.586 -11.6211 L 100.586 -51.9043 C 100.586 -58.7891 96.9727 -62.4512 90.0391 -62.4512 L 78.5645 -62.4512 C 75.4395 -62.4512 74.6094 -62.6953 72.6562 -64.8926 L 69.3359 -68.6035 C 67.2852 -70.8008 65.7227 -71.5332 62.0117 -71.5332 L 47.4609 -71.5332 C 43.75 -71.5332 42.1875 -70.8008 40.1367 -68.6035 L 36.8164 -64.8926 C 34.9121 -62.7441 34.0332 -62.4512 30.9082 -62.4512 L 20.3125 -62.4512 C 13.3789 -62.4512 9.76562 -58.7891 9.76562 -51.9043 L 9.76562 -11.6211 C 9.76562 -4.78516 13.3789 -1.12305 20.3125 -1.12305 Z M 20.4102 -4.44336 C 15.7715 -4.44336 13.0859 -6.93359 13.0859 -11.8164 L 13.0859 -51.7578 C 13.0859 -56.5918 15.7715 -59.1309 20.4102 -59.1309 L 31.3965 -59.1309 C 34.9121 -59.1309 36.5234 -59.5215 38.5742 -61.8164 L 41.8457 -65.4785 C 43.9941 -67.8711 45.1172 -68.2617 48.0469 -68.2617 L 61.4258 -68.2617 C 64.3555 -68.2617 65.4785 -67.8711 67.627 -65.4785 L 70.9473 -61.8164 C 72.9492 -59.5215 74.6094 -59.1309 78.0762 -59.1309 L 89.9414 -59.1309 C 94.6289 -59.1309 97.3145 -56.5918 97.3145 -51.7578 L 97.3145 -11.8164 C 97.3145 -6.93359 94.6289 -4.44336 89.9414 -4.44336 Z M 55.1758 -11.1816 C 66.8945 -11.1816 76.3184 -20.6055 76.3184 -32.4219 C 76.3184 -44.1895 66.9434 -53.6133 55.1758 -53.6133 C 43.457 -53.6133 34.0332 -44.1895 34.0332 -32.4219 C 34.0332 -20.6055 43.457 -11.1816 55.1758 -11.1816 Z M 78.418 -46.2891 C 78.418 -43.75 80.4688 -41.8945 82.959 -41.8457 C 85.3027 -41.7969 87.3535 -43.8477 87.3535 -46.2891 C 87.3535 -48.6328 85.3027 -50.7324 82.959 -50.7324 C 80.4688 -50.7324 78.418 -48.6328 78.418 -46.2891 Z M 55.1758 -14.502 C 45.3125 -14.502 37.3535 -22.4609 37.3535 -32.4219 C 37.3535 -42.334 45.3125 -50.293 55.1758 -50.293 C 65.0391 -50.293 72.998 -42.334 72.998 -32.4219 C 72.998 -22.4609 65.0391 -14.502 55.1758 -14.502 Z"/>
  </g>
  <g id="Ultralight-S" transform="matrix(1 0 0 1 505.121 696)">
   <path d="M 19.7754 -1.5625 L 89.4043 -1.5625 C 95.9473 -1.5625 99.4141 -5.12695 99.4141 -11.5234 L 99.4141 -51.9531 C 99.4141 -58.3984 95.9473 -61.9141 89.4043 -61.9141 L 77.7344 -61.9141 C 74.5117 -61.9141 73.7793 -62.0605 71.6797 -64.3555 L 68.3105 -68.1641 C 66.2109 -70.459 64.7461 -70.9961 61.1816 -70.9961 L 46.875 -70.9961 C 43.2617 -70.9961 41.8457 -70.459 39.7461 -68.1641 L 36.3281 -64.3555 C 34.375 -62.1582 33.4961 -61.9141 30.3223 -61.9141 L 19.7754 -61.9141 C 13.2324 -61.9141 9.76562 -58.3984 9.76562 -51.9531 L 9.76562 -11.5234 C 9.76562 -5.12695 13.2324 -1.5625 19.7754 -1.5625 Z M 19.873 -3.75977 C 14.8438 -3.75977 11.9629 -6.44531 11.9629 -11.6699 L 11.9629 -51.8555 C 11.9629 -57.0312 14.8438 -59.7168 19.873 -59.7168 L 30.4199 -59.7168 C 33.9355 -59.7168 35.4492 -60.0586 37.5488 -62.3535 L 40.918 -66.1621 C 43.0664 -68.5547 44.1895 -68.7988 46.9727 -68.7988 L 61.084 -68.7988 C 63.8184 -68.7988 64.9414 -68.5547 67.0898 -66.1621 L 70.5078 -62.3535 C 72.6074 -60.0586 74.1211 -59.7168 77.6367 -59.7168 L 89.3066 -59.7168 C 94.2871 -59.7168 97.168 -57.0312 97.168 -51.8555 L 97.168 -11.6699 C 97.168 -6.44531 94.2871 -3.75977 89.3066 -3.75977 Z M 54.5898 -11.0352 C 66.3574 -11.0352 75.8301 -20.5078 75.8301 -32.3242 C 75.8301 -44.1895 66.4062 -53.6621 54.5898 -53.6621 C 42.8223 -53.6621 33.3008 -44.1895 33.3008 -32.3242 C 33.3008 -20.5078 42.8223 -11.0352 54.5898 -11.0352 Z M 54.5898 -13.3301 C 44.1406 -13.3301 35.6934 -21.8262 35.6934 -32.3242 C 35.6934 -42.8711 44.1406 -51.3184 54.5898 -51.3184 C 65.0391 -51.3184 73.4863 -42.8711 73.4863 -32.3242 C 73.4863 -21.8262 65.0391 -13.3301 54.5898 -13.3301 Z M 78.125 -46.1914 C 78.125 -43.6523 80.1758 -41.9434 82.5684 -41.8457 C 84.8145 -41.748 86.8164 -43.7988 86.8164 -46.1914 C 86.8164 -48.4375 84.8145 -50.4883 82.5684 -50.4883 C 80.1758 -50.4883 78.125 -48.4375 78.125 -46.1914 Z"/>
  </g>
 </g>
</svg>
