<?xml version="1.0" encoding="UTF-8"?>
<!--Generator: Apple Native CoreSVG 129-->
<!DOCTYPE svg
PUBLIC "-//W3C//DTD SVG 1.1//EN"
       "http://www.w3.org/Graphics/SVG/1.1/DTD/svg11.dtd">
<svg version="1.1" xmlns="http://www.w3.org/2000/svg" xmlns:xlink="http://www.w3.org/1999/xlink" width="3300" height="2200">
 <!--glyph: "uni10005C.medium", point size: 100.000000, font version: "Version 16.0d9e1", template writer version: "8"-->
 <g id="Notes">
  <rect height="2200" id="artboard" style="fill:white;opacity:1" width="3300" x="0" y="0"/>
  <line id="" style="fill:none;stroke:black;opacity:1;stroke-width:0.5;" x1="263" x2="3036" y1="292" y2="292"/>
  <text style="stroke:none;fill:black;font-family:-apple-system,&quot;SF Pro Display&quot;,&quot;SF Pro Text&quot;,Helvetica,sans-serif;font-weight:bold;" transform="matrix(1 0 0 1 263 322)">Weight/Scale Variations</text>
  <text style="stroke:none;fill:black;font-family:-apple-system,&quot;SF Pro Display&quot;,&quot;SF Pro Text&quot;,Helvetica,sans-serif;text-anchor:middle;" transform="matrix(1 0 0 1 559.711 322)">Ultralight</text>
  <text style="stroke:none;fill:black;font-family:-apple-system,&quot;SF Pro Display&quot;,&quot;SF Pro Text&quot;,Helvetica,sans-serif;text-anchor:middle;" transform="matrix(1 0 0 1 856.422 322)">Thin</text>
  <text style="stroke:none;fill:black;font-family:-apple-system,&quot;SF Pro Display&quot;,&quot;SF Pro Text&quot;,Helvetica,sans-serif;text-anchor:middle;" transform="matrix(1 0 0 1 1153.13 322)">Light</text>
  <text style="stroke:none;fill:black;font-family:-apple-system,&quot;SF Pro Display&quot;,&quot;SF Pro Text&quot;,Helvetica,sans-serif;text-anchor:middle;" transform="matrix(1 0 0 1 1449.84 322)">Regular</text>
  <text style="stroke:none;fill:black;font-family:-apple-system,&quot;SF Pro Display&quot;,&quot;SF Pro Text&quot;,Helvetica,sans-serif;text-anchor:middle;" transform="matrix(1 0 0 1 1746.56 322)">Medium</text>
  <text style="stroke:none;fill:black;font-family:-apple-system,&quot;SF Pro Display&quot;,&quot;SF Pro Text&quot;,Helvetica,sans-serif;text-anchor:middle;" transform="matrix(1 0 0 1 2043.27 322)">Semibold</text>
  <text style="stroke:none;fill:black;font-family:-apple-system,&quot;SF Pro Display&quot;,&quot;SF Pro Text&quot;,Helvetica,sans-serif;text-anchor:middle;" transform="matrix(1 0 0 1 2339.98 322)">Bold</text>
  <text style="stroke:none;fill:black;font-family:-apple-system,&quot;SF Pro Display&quot;,&quot;SF Pro Text&quot;,Helvetica,sans-serif;text-anchor:middle;" transform="matrix(1 0 0 1 2636.69 322)">Heavy</text>
  <text style="stroke:none;fill:black;font-family:-apple-system,&quot;SF Pro Display&quot;,&quot;SF Pro Text&quot;,Helvetica,sans-serif;text-anchor:middle;" transform="matrix(1 0 0 1 2933.4 322)">Black</text>
  <line id="" style="fill:none;stroke:black;opacity:1;stroke-width:0.5;" x1="263" x2="3036" y1="1903" y2="1903"/>
  <g id="" transform="matrix(1 0 0 1 263 1933)">
   <path d="M 9.24805 0.830078 C 13.5547 0.830078 17.1387 -2.74414 17.1387 -7.05078 C 17.1387 -11.3574 13.5449 -14.9316 9.23828 -14.9316 C 4.94141 -14.9316 1.36719 -11.3574 1.36719 -7.05078 C 1.36719 -2.74414 4.95117 0.830078 9.24805 0.830078 Z M 9.24805 -0.654297 C 5.70312 -0.654297 2.87109 -3.49609 2.87109 -7.05078 C 2.87109 -10.6055 5.69336 -13.4473 9.23828 -13.4473 C 12.793 -13.4473 15.6348 -10.6055 15.6445 -7.05078 C 15.6543 -3.49609 12.8027 -0.654297 9.24805 -0.654297 Z M 9.22852 -3.62305 C 9.69727 -3.62305 9.9707 -3.93555 9.9707 -4.45312 L 9.9707 -6.31836 L 12.002 -6.31836 C 12.5 -6.31836 12.832 -6.57227 12.832 -7.04102 C 12.832 -7.51953 12.5195 -7.7832 12.002 -7.7832 L 9.9707 -7.7832 L 9.9707 -9.81445 C 9.9707 -10.332 9.69727 -10.6543 9.22852 -10.6543 C 8.75977 -10.6543 8.50586 -10.3125 8.50586 -9.81445 L 8.50586 -7.7832 L 6.49414 -7.7832 C 5.97656 -7.7832 5.64453 -7.51953 5.64453 -7.04102 C 5.64453 -6.57227 5.99609 -6.31836 6.49414 -6.31836 L 8.50586 -6.31836 L 8.50586 -4.45312 C 8.50586 -3.95508 8.75977 -3.62305 9.22852 -3.62305 Z"/>
  </g>
  <g id="" transform="matrix(1 0 0 1 281.506 1933)">
   <path d="M 11.709 2.91016 C 17.1582 2.91016 21.6699 -1.61133 21.6699 -7.05078 C 21.6699 -12.5 17.1484 -17.0117 11.6992 -17.0117 C 6.25977 -17.0117 1.74805 -12.5 1.74805 -7.05078 C 1.74805 -1.61133 6.26953 2.91016 11.709 2.91016 Z M 11.709 1.25 C 7.09961 1.25 3.41797 -2.44141 3.41797 -7.05078 C 3.41797 -11.6602 7.08984 -15.3516 11.6992 -15.3516 C 16.3086 -15.3516 20 -11.6602 20.0098 -7.05078 C 20.0195 -2.44141 16.3184 1.25 11.709 1.25 Z M 11.6797 -2.66602 C 12.207 -2.66602 12.5098 -3.01758 12.5098 -3.59375 L 12.5098 -6.23047 L 15.3223 -6.23047 C 15.8691 -6.23047 16.25 -6.51367 16.25 -7.03125 C 16.25 -7.55859 15.8887 -7.86133 15.3223 -7.86133 L 12.5098 -7.86133 L 12.5098 -10.6836 C 12.5098 -11.25 12.207 -11.6113 11.6797 -11.6113 C 11.1621 -11.6113 10.8789 -11.2305 10.8789 -10.6836 L 10.8789 -7.86133 L 8.07617 -7.86133 C 7.50977 -7.86133 7.13867 -7.55859 7.13867 -7.03125 C 7.13867 -6.51367 7.5293 -6.23047 8.07617 -6.23047 L 10.8789 -6.23047 L 10.8789 -3.59375 C 10.8789 -3.03711 11.1621 -2.66602 11.6797 -2.66602 Z"/>
  </g>
  <g id="" transform="matrix(1 0 0 1 304.924 1933)">
   <path d="M 14.9707 5.66406 C 21.9336 5.66406 27.6953 -0.0976562 27.6953 -7.05078 C 27.6953 -14.0137 21.9238 -19.7754 14.9609 -19.7754 C 8.00781 -19.7754 2.25586 -14.0137 2.25586 -7.05078 C 2.25586 -0.0976562 8.01758 5.66406 14.9707 5.66406 Z M 14.9707 3.84766 C 8.93555 3.84766 4.08203 -1.01562 4.08203 -7.05078 C 4.08203 -13.0957 8.92578 -17.9492 14.9609 -17.9492 C 21.0059 -17.9492 25.8594 -13.0957 25.8691 -7.05078 C 25.8789 -1.01562 21.0156 3.84766 14.9707 3.84766 Z M 14.9414 -1.38672 C 15.5176 -1.38672 15.8594 -1.77734 15.8594 -2.38281 L 15.8594 -6.13281 L 19.7754 -6.13281 C 20.3711 -6.13281 20.7812 -6.46484 20.7812 -7.02148 C 20.7812 -7.59766 20.3906 -7.93945 19.7754 -7.93945 L 15.8594 -7.93945 L 15.8594 -11.8652 C 15.8594 -12.4805 15.5176 -12.8711 14.9414 -12.8711 C 14.375 -12.8711 14.0527 -12.4609 14.0527 -11.8652 L 14.0527 -7.93945 L 10.1465 -7.93945 C 9.53125 -7.93945 9.13086 -7.59766 9.13086 -7.02148 C 9.13086 -6.46484 9.55078 -6.13281 10.1465 -6.13281 L 14.0527 -6.13281 L 14.0527 -2.38281 C 14.0527 -1.79688 14.375 -1.38672 14.9414 -1.38672 Z"/>
  </g>
  <text style="stroke:none;fill:black;font-family:-apple-system,&quot;SF Pro Display&quot;,&quot;SF Pro Text&quot;,Helvetica,sans-serif;font-weight:bold;" transform="matrix(1 0 0 1 263 1953)">Design Variations</text>
  <text style="stroke:none;fill:black;font-family:-apple-system,&quot;SF Pro Display&quot;,&quot;SF Pro Text&quot;,Helvetica,sans-serif;" transform="matrix(1 0 0 1 263 1971)">Symbols are supported in up to nine weights and three scales.</text>
  <text style="stroke:none;fill:black;font-family:-apple-system,&quot;SF Pro Display&quot;,&quot;SF Pro Text&quot;,Helvetica,sans-serif;" transform="matrix(1 0 0 1 263 1989)">For optimal layout with text and other symbols, vertically align</text>
  <text style="stroke:none;fill:black;font-family:-apple-system,&quot;SF Pro Display&quot;,&quot;SF Pro Text&quot;,Helvetica,sans-serif;" transform="matrix(1 0 0 1 263 2007)">symbols with the adjacent text.</text>
  <line id="" style="fill:none;stroke:#00AEEF;stroke-width:0.5;opacity:1.0;" x1="776" x2="776" y1="1919" y2="1933"/>
  <g id="" transform="matrix(1 0 0 1 776 1933)">
   <path d="M 3.31055 0.126953 C 3.82812 0.126953 4.08203 -0.0683594 4.26758 -0.605469 L 5.52734 -4.0625 L 11.2891 -4.0625 L 12.5488 -0.605469 C 12.7344 -0.0683594 12.9883 0.126953 13.4961 0.126953 C 14.0137 0.126953 14.3457 -0.185547 14.3457 -0.673828 C 14.3457 -0.839844 14.3164 -0.986328 14.2383 -1.20117 L 9.6582 -13.3887 C 9.43359 -13.9941 9.0332 -14.2871 8.4082 -14.2871 C 7.80273 -14.2871 7.39258 -13.9941 7.17773 -13.3984 L 2.59766 -1.19141 C 2.51953 -0.976562 2.49023 -0.830078 2.49023 -0.664062 C 2.49023 -0.175781 2.80273 0.126953 3.31055 0.126953 Z M 6.00586 -5.53711 L 8.37891 -12.1094 L 8.42773 -12.1094 L 10.8008 -5.53711 Z"/>
  </g>
  <line id="" style="fill:none;stroke:#00AEEF;stroke-width:0.5;opacity:1.0;" x1="792.836" x2="792.836" y1="1919" y2="1933"/>
  <text style="stroke:none;fill:black;font-family:-apple-system,&quot;SF Pro Display&quot;,&quot;SF Pro Text&quot;,Helvetica,sans-serif;font-weight:bold;" transform="matrix(1 0 0 1 776 1953)">Margins</text>
  <text style="stroke:none;fill:black;font-family:-apple-system,&quot;SF Pro Display&quot;,&quot;SF Pro Text&quot;,Helvetica,sans-serif;" transform="matrix(1 0 0 1 776 1971)">Leading and trailing margins on the left and right side of each symbol</text>
  <text style="stroke:none;fill:black;font-family:-apple-system,&quot;SF Pro Display&quot;,&quot;SF Pro Text&quot;,Helvetica,sans-serif;" transform="matrix(1 0 0 1 776 1989)">can be adjusted by modifying the x-location of the margin guidelines.</text>
  <text style="stroke:none;fill:black;font-family:-apple-system,&quot;SF Pro Display&quot;,&quot;SF Pro Text&quot;,Helvetica,sans-serif;" transform="matrix(1 0 0 1 776 2007)">Modifications are automatically applied proportionally to all</text>
  <text style="stroke:none;fill:black;font-family:-apple-system,&quot;SF Pro Display&quot;,&quot;SF Pro Text&quot;,Helvetica,sans-serif;" transform="matrix(1 0 0 1 776 2025)">scales and weights.</text>
  <g id="" transform="matrix(1 0 0 1 1289 1933)">
   <path d="M 2.8418 1.86523 L 4.54102 3.57422 C 5.40039 4.44336 6.38672 4.38477 7.31445 3.35938 L 17.4902 -7.85156 C 17.7539 -7.76367 18.0273 -7.7832 18.3398 -7.8418 L 19.4043 -8.03711 L 20.0684 -7.36328 L 20.0293 -6.80664 C 19.9902 -6.30859 20.1172 -5.92773 20.6055 -5.44922 L 21.3672 -4.70703 C 21.8457 -4.22852 22.4609 -4.19922 22.9297 -4.66797 L 25.8398 -7.58789 C 26.3086 -8.05664 26.2891 -8.65234 25.8105 -9.13086 L 25.0391 -9.89258 C 24.5605 -10.3711 24.1895 -10.5273 23.7109 -10.4883 L 23.1348 -10.4395 L 22.4902 -11.0742 L 22.7344 -12.1973 C 22.8613 -12.7637 22.7051 -13.2031 22.1191 -13.7891 L 19.9219 -15.9766 C 16.582 -19.2969 12.1484 -19.2188 9.25781 -16.3281 C 8.83789 -15.918 8.80859 -15.3418 9.04297 -14.9512 C 9.27734 -14.5898 9.73633 -14.3555 10.3809 -14.5215 C 11.8457 -14.8633 13.3691 -14.9219 14.7949 -13.9844 L 14.209 -12.5293 C 14.0137 -12.0508 13.9844 -11.6504 14.1113 -11.2891 L 3.04688 -0.898438 C 2.06055 0.0195312 1.98242 0.996094 2.8418 1.86523 Z M 10.752 -15.957 C 13.1836 -17.7344 16.4746 -17.4316 18.7012 -15.2051 L 21.1328 -12.793 C 21.3672 -12.5586 21.4062 -12.373 21.3379 -12.0312 L 21.0156 -10.5469 L 22.5195 -9.0625 L 23.5059 -9.12109 C 23.7598 -9.13086 23.8379 -9.11133 24.0332 -8.91602 L 24.6094 -8.33984 L 22.168 -5.89844 L 21.5918 -6.47461 C 21.3965 -6.66992 21.3672 -6.74805 21.377 -7.01172 L 21.4453 -7.98828 L 19.9512 -9.47266 L 18.4277 -9.21875 C 18.1055 -9.15039 17.959 -9.17969 17.7148 -9.41406 L 15.7129 -11.416 C 15.459 -11.6504 15.4297 -11.8164 15.5859 -12.1875 L 16.4648 -14.2773 C 14.9023 -15.7324 12.8711 -16.3574 10.8398 -15.7617 C 10.6836 -15.7227 10.625 -15.8496 10.752 -15.957 Z M 5.27344 2.30469 L 4.10156 1.14258 C 3.63281 0.683594 3.74023 0.341797 4.14062 -0.0195312 L 14.9512 -10.1953 L 16.416 -8.71094 L 6.42578 2.27539 C 6.07422 2.67578 5.74219 2.77344 5.27344 2.30469 Z"/>
  </g>
  <text style="stroke:none;fill:black;font-family:-apple-system,&quot;SF Pro Display&quot;,&quot;SF Pro Text&quot;,Helvetica,sans-serif;font-weight:bold;" transform="matrix(1 0 0 1 1289 1953)">Exporting</text>
  <text style="stroke:none;fill:black;font-family:-apple-system,&quot;SF Pro Display&quot;,&quot;SF Pro Text&quot;,Helvetica,sans-serif;" transform="matrix(1 0 0 1 1289 1971)">Symbols should be outlined when exporting to ensure the</text>
  <text style="stroke:none;fill:black;font-family:-apple-system,&quot;SF Pro Display&quot;,&quot;SF Pro Text&quot;,Helvetica,sans-serif;" transform="matrix(1 0 0 1 1289 1989)">design is preserved when submitting to Xcode.</text>
  <text id="template-version" style="stroke:none;fill:black;font-family:-apple-system,&quot;SF Pro Display&quot;,&quot;SF Pro Text&quot;,Helvetica,sans-serif;text-anchor:end;" transform="matrix(1 0 0 1 3036 1933)">Template v.2.0</text>
  <text style="stroke:none;fill:black;font-family:-apple-system,&quot;SF Pro Display&quot;,&quot;SF Pro Text&quot;,Helvetica,sans-serif;text-anchor:end;" transform="matrix(1 0 0 1 3036 1951)">Requires Xcode 12 or greater</text>
  <text style="stroke:none;fill:black;font-family:-apple-system,&quot;SF Pro Display&quot;,&quot;SF Pro Text&quot;,Helvetica,sans-serif;text-anchor:end;" transform="matrix(1 0 0 1 3036 1969)">Generated from questionmark.circle</text>
  <text style="stroke:none;fill:black;font-family:-apple-system,&quot;SF Pro Display&quot;,&quot;SF Pro Text&quot;,Helvetica,sans-serif;text-anchor:end;" transform="matrix(1 0 0 1 3036 1987)">Typeset at 100 points</text>
  <text style="stroke:none;fill:black;font-family:-apple-system,&quot;SF Pro Display&quot;,&quot;SF Pro Text&quot;,Helvetica,sans-serif;" transform="matrix(1 0 0 1 263 726)">Small</text>
  <text style="stroke:none;fill:black;font-family:-apple-system,&quot;SF Pro Display&quot;,&quot;SF Pro Text&quot;,Helvetica,sans-serif;" transform="matrix(1 0 0 1 263 1156)">Medium</text>
  <text style="stroke:none;fill:black;font-family:-apple-system,&quot;SF Pro Display&quot;,&quot;SF Pro Text&quot;,Helvetica,sans-serif;" transform="matrix(1 0 0 1 263 1586)">Large</text>
 </g>
 <g id="Guides">
  <g id="H-reference" style="fill:#27AAE1;stroke:none;" transform="matrix(1 0 0 1 339 696)">
   <path d="M 0.976562 0 L 3.66211 0 L 12.9883 -24.4629 L 45.7031 -24.4629 L 55.0781 0 L 57.7148 0 L 30.6152 -70.459 L 28.125 -70.459 Z M 29.2969 -67.1387 L 29.3945 -67.1387 L 44.873 -26.709 L 13.8672 -26.709 Z"/>
  </g>
  <line id="Baseline-S" style="fill:none;stroke:#27AAE1;opacity:1;stroke-width:0.5;" x1="263" x2="3036" y1="696" y2="696"/>
  <line id="Capline-S" style="fill:none;stroke:#27AAE1;opacity:1;stroke-width:0.5;" x1="263" x2="3036" y1="625.541" y2="625.541"/>
  <g id="H-reference" style="fill:#27AAE1;stroke:none;" transform="matrix(1 0 0 1 339 1126)">
   <path d="M 0.976562 0 L 3.66211 0 L 12.9883 -24.4629 L 45.7031 -24.4629 L 55.0781 0 L 57.7148 0 L 30.6152 -70.459 L 28.125 -70.459 Z M 29.2969 -67.1387 L 29.3945 -67.1387 L 44.873 -26.709 L 13.8672 -26.709 Z"/>
  </g>
  <line id="Baseline-M" style="fill:none;stroke:#27AAE1;opacity:1;stroke-width:0.5;" x1="263" x2="3036" y1="1126" y2="1126"/>
  <line id="Capline-M" style="fill:none;stroke:#27AAE1;opacity:1;stroke-width:0.5;" x1="263" x2="3036" y1="1055.54" y2="1055.54"/>
  <g id="H-reference" style="fill:#27AAE1;stroke:none;" transform="matrix(1 0 0 1 339 1556)">
   <path d="M 0.976562 0 L 3.66211 0 L 12.9883 -24.4629 L 45.7031 -24.4629 L 55.0781 0 L 57.7148 0 L 30.6152 -70.459 L 28.125 -70.459 Z M 29.2969 -67.1387 L 29.3945 -67.1387 L 44.873 -26.709 L 13.8672 -26.709 Z"/>
  </g>
  <line id="Baseline-L" style="fill:none;stroke:#27AAE1;opacity:1;stroke-width:0.5;" x1="263" x2="3036" y1="1556" y2="1556"/>
  <line id="Capline-L" style="fill:none;stroke:#27AAE1;opacity:1;stroke-width:0.5;" x1="263" x2="3036" y1="1485.54" y2="1485.54"/>
  <line id="left-margin" style="fill:none;stroke:#00AEEF;stroke-width:0.5;opacity:1.0;" x1="1391.3" x2="1391.3" y1="1030.79" y2="1150.12"/>
  <line id="right-margin" style="fill:none;stroke:#00AEEF;stroke-width:0.5;opacity:1.0;" x1="1508.39" x2="1508.39" y1="1030.79" y2="1150.12"/>
 </g>
 <g id="Symbols">
  <g id="Black-L" transform="matrix(1 0 0 1 2854.05 1556)">
   <path d="M 79.3457 32.8613 C 116.748 32.8613 147.412 2.19727 147.412 -35.2051 C 147.412 -72.6074 116.748 -103.271 79.2969 -103.271 C 41.8945 -103.271 11.2793 -72.6074 11.2793 -35.2051 C 11.2793 2.19727 41.9434 32.8613 79.3457 32.8613 Z M 79.3457 12.4023 C 52.9785 12.4023 31.7383 -8.83789 31.7383 -35.2051 C 31.7383 -61.5723 52.9297 -82.8125 79.2969 -82.8125 C 105.664 -82.8125 126.953 -61.5723 126.953 -35.2051 C 127.002 -8.83789 105.713 12.4023 79.3457 12.4023 Z M 77.5391 -24.2188 C 82.0801 -24.2188 85.4004 -26.416 86.084 -29.3457 C 86.1328 -29.541 86.1816 -29.834 86.2793 -29.9805 C 87.0117 -32.373 89.8438 -34.2773 92.9199 -36.1816 C 99.5117 -40.2832 102.49 -43.75 102.49 -50.4395 C 102.49 -61.1816 92.4805 -68.3105 79.6387 -68.3105 C 68.8965 -68.3105 60.8398 -64.1113 58.0566 -57.9102 C 57.5195 -56.5918 57.1777 -55.3711 57.1777 -53.9551 C 57.1777 -50.1465 60.1562 -46.9727 65.5273 -46.9727 C 69.7266 -46.9727 71.4355 -48.9258 73.0957 -50.5371 C 75.1953 -52.4902 76.6602 -53.2715 78.6133 -53.2715 C 81.1523 -53.2715 82.8613 -51.7578 82.8613 -49.3652 C 82.8613 -46.7285 80.2246 -44.8242 75.4883 -41.6016 C 71.1426 -38.623 68.2129 -35.7422 68.2129 -31.4941 L 68.2129 -31.2988 C 68.2129 -26.6602 71.5332 -24.2188 77.5391 -24.2188 Z M 77.5391 -3.07617 C 82.959 -3.07617 86.9629 -6.20117 86.9629 -11.377 C 86.9629 -16.4551 83.0078 -19.6777 77.5391 -19.6777 C 72.1191 -19.6777 68.0176 -16.5039 68.0176 -11.377 C 68.0176 -6.25 72.1191 -3.07617 77.5391 -3.07617 Z"/>
  </g>
  <g id="Heavy-L" transform="matrix(1 0 0 1 2558.39 1556)">
   <path d="M 78.2715 31.7871 C 115.088 31.7871 145.312 1.5625 145.312 -35.2051 C 145.312 -72.0215 115.039 -102.246 78.2715 -102.246 C 41.4551 -102.246 11.2793 -72.0215 11.2793 -35.2051 C 11.2793 1.5625 41.5039 31.7871 78.2715 31.7871 Z M 78.2715 14.0137 C 51.0254 14.0137 29.0527 -7.95898 29.0527 -35.2051 C 29.0527 -62.5 50.9766 -84.4727 78.2715 -84.4727 C 105.518 -84.4727 127.49 -62.5 127.539 -35.2051 C 127.539 -7.95898 105.566 14.0137 78.2715 14.0137 Z M 76.6113 -23.7793 C 80.7129 -23.7793 83.6426 -25.8301 84.1797 -28.6133 C 84.2285 -28.8574 84.2285 -29.1504 84.2773 -29.3457 C 84.8633 -32.0312 87.5 -34.0332 90.918 -36.2305 C 97.4121 -40.332 100.635 -43.8477 100.635 -50.6348 C 100.635 -61.1328 90.918 -67.9199 78.6621 -67.9199 C 67.9199 -67.9199 60.1562 -63.4766 57.666 -57.3242 C 57.1777 -56.1035 56.9336 -54.9316 56.9336 -53.6133 C 56.9336 -50.0977 59.6191 -47.3633 64.1602 -47.3633 C 68.1152 -47.3633 69.5312 -49.2676 71.1914 -50.9766 C 73.1934 -53.418 75.0977 -54.6875 77.7344 -54.6875 C 81.2012 -54.6875 83.4473 -52.7344 83.4473 -49.707 C 83.4473 -46.6797 80.8105 -44.6777 75.8789 -41.3086 C 71.4355 -38.2324 68.457 -35.2539 68.457 -30.6152 L 68.457 -30.1758 C 68.457 -25.9766 71.3867 -23.7793 76.6113 -23.7793 Z M 76.6113 -3.32031 C 81.543 -3.32031 85.2539 -6.34766 85.2539 -11.0352 C 85.2539 -15.7227 81.543 -18.7988 76.6113 -18.7988 C 71.6309 -18.7988 67.8223 -15.7715 67.8223 -11.0352 C 67.8223 -6.34766 71.6797 -3.32031 76.6113 -3.32031 Z"/>
  </g>
  <g id="Bold-L" transform="matrix(1 0 0 1 2262.88 1556)">
   <path d="M 77.0996 30.5664 C 113.232 30.5664 142.92 0.878906 142.92 -35.2539 C 142.92 -71.3379 113.184 -101.074 77.0508 -101.074 C 40.9668 -101.074 11.2793 -71.3379 11.2793 -35.2539 C 11.2793 0.878906 41.0156 30.5664 77.0996 30.5664 Z M 77.0996 15.8203 C 48.8281 15.8203 26.0742 -6.98242 26.0742 -35.2539 C 26.0742 -63.5254 48.7793 -86.2793 77.0508 -86.2793 C 105.371 -86.2793 128.125 -63.5254 128.174 -35.2539 C 128.174 -6.98242 105.371 15.8203 77.0996 15.8203 Z M 75.5859 -23.291 C 79.1992 -23.291 81.6406 -25.1953 82.0312 -27.7832 C 82.0312 -28.0273 82.0801 -28.3691 82.0801 -28.6133 C 82.4707 -31.6406 84.8633 -33.7402 88.6719 -36.2305 C 95.1172 -40.332 98.5352 -43.9453 98.5352 -50.8301 C 98.5352 -61.084 89.1602 -67.4805 77.5391 -67.4805 C 66.8457 -67.4805 59.375 -62.7441 57.2754 -56.6406 C 56.8359 -55.5176 56.5918 -54.3945 56.5918 -53.2227 C 56.5918 -50.0977 59.0332 -47.8027 62.6465 -47.8027 C 66.2598 -47.8027 67.3828 -49.6094 69.043 -51.4648 C 70.9473 -54.4922 73.3887 -56.2988 76.8066 -56.2988 C 81.2012 -56.2988 84.082 -53.8086 84.082 -50.0488 C 84.082 -46.6309 81.4941 -44.5312 76.2695 -40.918 C 71.7773 -37.793 68.75 -34.7168 68.75 -29.6387 L 68.75 -28.9551 C 68.75 -25.1953 71.1914 -23.291 75.5859 -23.291 Z M 75.5371 -3.56445 C 79.8828 -3.56445 83.3496 -6.44531 83.3496 -10.6934 C 83.3496 -14.9414 79.9316 -17.8223 75.5371 -17.8223 C 71.0938 -17.8223 67.627 -14.8926 67.627 -10.6934 C 67.627 -6.49414 71.1426 -3.56445 75.5371 -3.56445 Z"/>
  </g>
  <g id="Semibold-L" transform="matrix(1 0 0 1 1966.97 1556)">
   <path d="M 76.2695 29.7363 C 111.914 29.7363 141.309 0.390625 141.309 -35.2539 C 141.309 -70.8984 111.865 -100.244 76.2695 -100.244 C 40.625 -100.244 11.2793 -70.8984 11.2793 -35.2539 C 11.2793 0.390625 40.6738 29.7363 76.2695 29.7363 Z M 76.2695 17.041 C 47.3145 17.041 24.0234 -6.25 24.0234 -35.2539 C 24.0234 -64.209 47.2656 -87.5488 76.2695 -87.5488 C 105.225 -87.5488 128.564 -64.209 128.613 -35.2539 C 128.662 -6.25 105.273 17.041 76.2695 17.041 Z M 74.8535 -22.9004 C 78.125 -22.9004 80.3223 -24.7559 80.5176 -27.1973 C 80.5664 -27.4902 80.5664 -27.832 80.5664 -28.125 C 80.8105 -31.3965 83.0566 -33.5449 87.1582 -36.2305 C 93.5059 -40.3809 97.1191 -43.9941 97.1191 -50.9766 C 97.1191 -61.084 87.9883 -67.1875 76.7578 -67.1875 C 66.1133 -67.1875 58.8867 -62.2559 56.9336 -56.2012 C 56.5918 -55.127 56.3477 -54.0527 56.3477 -52.9297 C 56.3477 -50.0488 58.5938 -48.1445 61.5723 -48.1445 C 64.9902 -48.1445 65.918 -49.8535 67.5781 -51.8066 C 69.3848 -55.2246 72.168 -57.373 76.1719 -57.373 C 81.25 -57.373 84.5215 -54.541 84.5215 -50.3418 C 84.5215 -46.582 81.9336 -44.4336 76.5625 -40.6738 C 71.9727 -37.5 68.9453 -34.3262 68.9453 -28.9551 L 68.9453 -28.0762 C 68.9453 -24.6582 71.0938 -22.9004 74.8535 -22.9004 Z M 74.7559 -3.71094 C 78.7598 -3.71094 81.9824 -6.54297 81.9824 -10.4492 C 81.9824 -14.3555 78.8086 -17.1875 74.7559 -17.1875 C 70.752 -17.1875 67.5293 -14.3555 67.5293 -10.4492 C 67.5293 -6.5918 70.752 -3.71094 74.7559 -3.71094 Z"/>
  </g>
  <g id="Medium-L" transform="matrix(1 0 0 1 1670.87 1556)">
   <path d="M 75.6836 29.1504 C 110.938 29.1504 140.088 0 140.088 -35.2539 C 140.088 -70.5078 110.889 -99.6582 75.6348 -99.6582 C 40.3809 -99.6582 11.2793 -70.5078 11.2793 -35.2539 C 11.2793 0 40.3809 29.1504 75.6836 29.1504 Z M 75.6836 18.0176 C 46.1426 18.0176 22.4609 -5.76172 22.4609 -35.2539 C 22.4609 -64.7461 46.1426 -88.5254 75.6348 -88.5254 C 105.127 -88.5254 128.906 -64.7461 128.906 -35.2539 C 128.955 -5.76172 105.176 18.0176 75.6836 18.0176 Z M 74.3164 -22.6562 C 77.3438 -22.6562 79.2969 -24.4629 79.3945 -26.7578 C 79.3945 -27.0996 79.4434 -27.4414 79.4434 -27.7832 C 79.5898 -31.2012 81.6895 -33.3984 85.9863 -36.2305 C 92.2852 -40.3809 96.0449 -44.043 96.0449 -51.0742 C 96.0449 -61.0352 87.0605 -66.9434 76.1719 -66.9434 C 65.5762 -66.9434 58.4473 -61.8652 56.7383 -55.8594 C 56.3965 -54.834 56.2012 -53.8086 56.2012 -52.7344 C 56.2012 -50.0488 58.3008 -48.3887 60.791 -48.3887 C 64.0137 -48.3887 64.7949 -50.0488 66.4062 -52.0508 C 68.2129 -55.7617 71.2891 -58.2031 75.6836 -58.2031 C 81.25 -58.2031 84.8633 -55.0781 84.8633 -50.5371 C 84.8633 -46.5332 82.2754 -44.3359 76.7578 -40.5273 C 72.168 -37.3047 69.0918 -34.0332 69.0918 -28.4668 L 69.0918 -27.4414 C 69.0918 -24.2676 70.9961 -22.6562 74.3164 -22.6562 Z M 74.2188 -3.85742 C 77.9297 -3.85742 81.0059 -6.5918 81.0059 -10.2539 C 81.0059 -13.916 77.9785 -16.6504 74.2188 -16.6504 C 70.459 -16.6504 67.4316 -13.916 67.4316 -10.2539 C 67.4316 -6.64062 70.5078 -3.85742 74.2188 -3.85742 Z"/>
  </g>
  <g id="Regular-L" transform="matrix(1 0 0 1 1374.97 1556)">
   <path d="M 74.8535 28.3203 C 109.668 28.3203 138.477 -0.488281 138.477 -35.2539 C 138.477 -70.0684 109.619 -98.877 74.8047 -98.877 C 40.0391 -98.877 11.2793 -70.0684 11.2793 -35.2539 C 11.2793 -0.488281 40.0879 28.3203 74.8535 28.3203 Z M 74.8535 19.2383 C 44.6777 19.2383 20.4102 -5.07812 20.4102 -35.2539 C 20.4102 -65.4785 44.6289 -89.7461 74.8047 -89.7461 C 105.029 -89.7461 129.297 -65.4785 129.346 -35.2539 C 129.395 -5.07812 105.078 19.2383 74.8535 19.2383 Z M 73.584 -22.3145 C 76.3184 -22.3145 77.9297 -24.0234 77.9297 -26.1719 L 77.9297 -27.2949 C 77.9297 -30.957 79.9316 -33.2031 84.4727 -36.2305 C 90.7227 -40.3809 94.6289 -44.0918 94.6289 -51.2207 C 94.6289 -61.0352 85.8398 -66.6504 75.3906 -66.6504 C 64.8438 -66.6504 57.959 -61.377 56.4453 -55.3711 C 56.1523 -54.4434 55.957 -53.4668 55.957 -52.4414 C 55.957 -50 57.8613 -48.6816 59.7168 -48.6816 C 62.7441 -48.6816 63.3301 -50.293 64.9414 -52.3926 C 66.6992 -56.4941 70.0684 -59.2773 75.0488 -59.2773 C 81.2988 -59.2773 85.2539 -55.8105 85.2539 -50.7812 C 85.2539 -46.4844 82.7637 -44.2383 77.0508 -40.2832 C 72.3633 -36.9629 69.2871 -33.6914 69.2871 -27.7832 L 69.2871 -26.5625 C 69.2871 -23.7793 70.8496 -22.3145 73.584 -22.3145 Z M 73.4863 -4.00391 C 76.8066 -4.00391 79.6875 -6.68945 79.6875 -10.0098 C 79.6875 -13.3789 76.8555 -16.0156 73.4863 -16.0156 C 70.0684 -16.0156 67.2852 -13.3301 67.2852 -10.0098 C 67.2852 -6.73828 70.1172 -4.00391 73.4863 -4.00391 Z"/>
  </g>
  <g id="Light-L" transform="matrix(1 0 0 1 1079.18 1556)">
   <path d="M 73.9258 27.3926 C 108.301 27.3926 136.621 -0.927734 136.621 -35.2539 C 136.621 -69.6289 108.252 -97.9492 73.9258 -97.9492 C 39.5508 -97.9492 11.2793 -69.6289 11.2793 -35.2539 C 11.2793 -0.927734 39.5996 27.3926 73.9258 27.3926 Z M 73.9258 20.5078 C 43.1152 20.5078 18.2129 -4.44336 18.2129 -35.2539 C 18.2129 -66.1133 43.0664 -91.0156 73.9258 -91.0156 C 104.736 -91.0156 129.688 -66.1133 129.736 -35.2539 C 129.736 -4.44336 104.785 20.5078 73.9258 20.5078 Z M 72.7539 -22.4121 C 74.8047 -22.4121 76.0742 -23.7793 76.0742 -25.5371 L 76.0742 -27.0996 C 76.0742 -30.9082 77.9297 -33.252 82.7148 -36.4746 C 89.1113 -40.7715 92.4316 -44.4824 92.4316 -51.0254 C 92.4316 -59.9121 84.4727 -65.5762 74.3164 -65.5762 C 64.1602 -65.5762 57.5195 -60.0586 56.2988 -53.8086 C 56.1035 -52.9297 55.957 -52.0508 55.957 -51.123 C 55.957 -49.2188 57.4219 -48.1445 58.9355 -48.1445 C 61.2305 -48.1445 61.8652 -49.4141 62.8906 -51.123 C 64.1602 -56.0547 68.0664 -59.7656 74.0234 -59.7656 C 80.9082 -59.7656 85.3027 -56.0059 85.3027 -50.6348 C 85.3027 -46.3379 82.9102 -43.8477 77.002 -39.7461 C 72.0703 -36.2793 69.4336 -33.0078 69.4336 -27.4902 L 69.4336 -25.7812 C 69.4336 -23.6328 70.6543 -22.4121 72.7539 -22.4121 Z M 72.6562 -4.83398 C 75.5859 -4.83398 78.0273 -7.22656 78.0273 -10.1074 C 78.0273 -13.0371 75.5859 -15.3809 72.6562 -15.3809 C 69.6777 -15.3809 67.2852 -12.9883 67.2852 -10.1074 C 67.2852 -7.27539 69.7266 -4.83398 72.6562 -4.83398 Z"/>
  </g>
  <g id="Thin-L" transform="matrix(1 0 0 1 783.693 1556)">
   <path d="M 72.7051 26.1719 C 106.494 26.1719 134.18 -1.51367 134.18 -35.2539 C 134.18 -69.043 106.494 -96.7285 72.7051 -96.7285 C 38.9648 -96.7285 11.2793 -69.043 11.2793 -35.2539 C 11.2793 -1.51367 38.9648 26.1719 72.7051 26.1719 Z M 72.7051 22.168 C 41.0156 22.168 15.2832 -3.56445 15.2832 -35.2539 C 15.2832 -66.9922 41.0156 -92.7246 72.7051 -92.7246 C 104.395 -92.7246 130.176 -66.9922 130.176 -35.2539 C 130.176 -3.56445 104.443 22.168 72.7051 22.168 Z M 71.6309 -22.6074 C 72.8027 -22.6074 73.584 -23.4375 73.584 -24.6582 L 73.584 -26.8066 C 73.584 -30.8594 75.3418 -33.252 80.3711 -36.7188 C 87.0117 -41.2598 89.5508 -44.9707 89.5508 -50.7812 C 89.5508 -58.4961 82.6172 -64.1113 72.9004 -64.1113 C 63.2324 -64.1113 56.9824 -58.3496 56.1523 -51.7578 C 56.0547 -50.9766 55.957 -50.2441 55.957 -49.4141 C 55.957 -48.1934 56.8359 -47.4609 57.9102 -47.4609 C 59.2285 -47.4609 59.8633 -48.1934 60.1562 -49.4141 C 60.791 -55.4688 65.3809 -60.4492 72.7051 -60.4492 C 80.4688 -60.4492 85.3027 -56.25 85.3027 -50.4883 C 85.3027 -46.1914 83.1543 -43.3594 76.9531 -39.0625 C 71.6797 -35.3516 69.5801 -32.1289 69.5801 -27.0996 L 69.5801 -24.707 C 69.5801 -23.4375 70.4102 -22.6074 71.6309 -22.6074 Z M 71.5332 -5.95703 C 73.9258 -5.95703 75.8301 -7.95898 75.8301 -10.2051 C 75.8301 -12.5488 73.9258 -14.502 71.5332 -14.502 C 69.1406 -14.502 67.2363 -12.5488 67.2363 -10.2051 C 67.2363 -7.95898 69.1406 -5.95703 71.5332 -5.95703 Z"/>
  </g>
  <g id="Ultralight-L" transform="matrix(1 0 0 1 487.616 1556)">
   <path d="M 72.1191 25.5371 C 105.566 25.5371 132.91 -1.80664 132.91 -35.2539 C 132.91 -68.75 105.566 -96.0938 72.1191 -96.0938 C 38.623 -96.0938 11.2793 -68.75 11.2793 -35.2539 C 11.2793 -1.80664 38.623 25.5371 72.1191 25.5371 Z M 72.1191 23.0469 C 39.9414 23.0469 13.7695 -3.125 13.7695 -35.2539 C 13.7695 -67.4316 39.9414 -93.6035 72.1191 -93.6035 C 104.248 -93.6035 130.42 -67.4316 130.42 -35.2539 C 130.42 -3.125 104.248 23.0469 72.1191 23.0469 Z M 71.0449 -22.7051 C 71.8262 -22.7051 72.3145 -23.291 72.3145 -24.2188 L 72.3145 -26.6602 C 72.3145 -30.8105 73.9746 -33.252 79.1992 -36.8652 C 85.9375 -41.5039 88.0859 -45.2148 88.0859 -50.6348 C 88.0859 -57.7637 81.6406 -63.3789 72.168 -63.3789 C 62.7441 -63.3789 56.7383 -57.4219 56.1035 -50.6836 C 56.0547 -50 55.957 -49.2676 55.957 -48.5352 C 55.957 -47.6562 56.543 -47.0703 57.4219 -47.0703 C 58.2031 -47.0703 58.8379 -47.6074 58.7402 -48.5352 C 59.082 -55.127 64.0137 -60.7422 72.0703 -60.7422 C 80.2246 -60.7422 85.3516 -56.3965 85.3516 -50.4395 C 85.3516 -46.0938 83.3008 -43.1152 76.9531 -38.7207 C 71.4844 -34.8633 69.6777 -31.6895 69.6777 -26.9043 L 69.6777 -24.1699 C 69.6777 -23.3398 70.3125 -22.7051 71.0449 -22.7051 Z M 70.9961 -6.49414 C 73.0957 -6.49414 74.7559 -8.34961 74.7559 -10.3027 C 74.7559 -12.3047 73.0957 -14.0625 70.9961 -14.0625 C 68.8477 -14.0625 67.2363 -12.3047 67.2363 -10.3027 C 67.2363 -8.34961 68.8477 -6.49414 70.9961 -6.49414 Z"/>
  </g>
  <g id="Black-M" transform="matrix(1 0 0 1 2870.97 1126)">
   <path d="M 62.4023 18.457 C 91.9922 18.457 116.113 -5.61523 116.113 -35.2051 C 116.113 -64.7949 91.9922 -88.8672 62.4023 -88.8672 C 32.8125 -88.8672 8.74023 -64.7949 8.74023 -35.2051 C 8.74023 -5.61523 32.8125 18.457 62.4023 18.457 Z M 62.4023 0.195312 C 42.8711 0.195312 27.002 -15.625 27.002 -35.2051 C 27.002 -54.7363 42.8711 -70.6055 62.4023 -70.6055 C 81.9824 -70.6055 97.8027 -54.7363 97.8027 -35.2051 C 97.8027 -15.625 81.9824 0.195312 62.4023 0.195312 Z M 60.8887 -27.3926 C 64.6484 -27.3926 67.5293 -29.0039 68.3105 -31.3477 C 68.3594 -31.4941 68.457 -31.7871 68.5059 -31.8848 C 69.3359 -33.4473 71.7285 -34.8633 73.7305 -36.084 C 79.0527 -39.3066 80.7617 -41.9434 80.7617 -46.6797 C 80.7617 -54.7852 73.0469 -60.791 62.5 -60.791 C 54.2969 -60.791 47.8516 -57.7637 45.459 -52.7832 C 44.9707 -51.709 44.7266 -50.6836 44.7266 -49.5117 C 44.7266 -46.3867 47.0703 -43.457 52.1973 -43.457 C 55.4688 -43.457 57.1289 -44.9219 58.1543 -45.8008 C 59.6191 -47.1191 60.4004 -47.6074 61.5234 -47.6074 C 62.6953 -47.6074 63.4277 -46.875 63.4277 -45.7031 C 63.4277 -44.1895 61.4746 -42.6758 57.959 -40.332 C 54.5898 -38.0371 52.5879 -35.8887 52.5879 -33.3496 L 52.5879 -33.252 C 52.5879 -29.3945 55.5176 -27.3926 60.8887 -27.3926 Z M 60.9375 -10.4492 C 65.625 -10.4492 68.8477 -12.8906 68.8477 -17.2363 C 68.8477 -21.4844 65.625 -23.9746 60.9375 -23.9746 C 56.2988 -23.9746 52.9297 -21.5332 52.9297 -17.2363 C 52.9297 -12.8906 56.2988 -10.4492 60.9375 -10.4492 Z"/>
  </g>
  <g id="Heavy-M" transform="matrix(1 0 0 1 2575.19 1126)">
   <path d="M 61.5234 17.5293 C 90.5273 17.5293 114.258 -6.20117 114.258 -35.2051 C 114.258 -64.2578 90.5273 -87.9883 61.4746 -87.9883 C 32.4707 -87.9883 8.74023 -64.2578 8.74023 -35.2051 C 8.74023 -6.20117 32.4707 17.5293 61.5234 17.5293 Z M 61.5234 1.61133 C 41.1133 1.61133 24.6582 -14.8438 24.6582 -35.2051 C 24.6582 -55.6152 41.1133 -72.0703 61.4746 -72.0703 C 81.8848 -72.0703 98.3398 -55.6152 98.3398 -35.2051 C 98.3398 -14.8438 81.8848 1.61133 61.5234 1.61133 Z M 60.1074 -26.8555 C 63.5742 -26.8555 66.1133 -28.4668 66.6992 -30.6641 C 66.748 -30.8594 66.7969 -31.1035 66.8457 -31.25 C 67.4805 -33.0566 69.6777 -34.5703 72.0215 -36.0352 C 77.1973 -39.2578 79.2969 -41.9434 79.2969 -46.9238 C 79.2969 -55.0293 71.6797 -60.6445 61.7188 -60.6445 C 53.418 -60.6445 47.2168 -57.4219 45.0684 -52.5391 C 44.6289 -51.5137 44.3848 -50.5859 44.3848 -49.4629 C 44.3848 -46.582 46.6309 -44.043 50.9277 -44.043 C 54.0527 -44.043 55.4199 -45.5078 56.5918 -46.6309 C 58.1055 -48.2422 59.2285 -49.0234 60.8398 -49.0234 C 62.793 -49.0234 64.0625 -47.8516 64.0625 -46.0938 C 64.0625 -44.1406 62.0605 -42.627 58.3984 -40.0879 C 54.9805 -37.793 52.832 -35.5469 52.832 -32.4707 L 52.832 -32.2266 C 52.832 -28.7109 55.4199 -26.8555 60.1074 -26.8555 Z M 60.1074 -10.498 C 64.3555 -10.498 67.3828 -12.8906 67.3828 -16.8457 C 67.3828 -20.8008 64.3555 -23.1934 60.1074 -23.1934 C 55.9082 -23.1934 52.7344 -20.8008 52.7344 -16.8457 C 52.7344 -12.8906 55.9082 -10.498 60.1074 -10.498 Z"/>
  </g>
  <g id="Bold-M" transform="matrix(1 0 0 1 2279.5 1126)">
   <path d="M 60.498 16.5039 C 88.8672 16.5039 112.207 -6.83594 112.207 -35.2051 C 112.207 -63.623 88.8672 -86.9629 60.4492 -86.9629 C 32.0312 -86.9629 8.74023 -63.623 8.74023 -35.2051 C 8.74023 -6.83594 32.0801 16.5039 60.498 16.5039 Z M 60.498 3.22266 C 39.1602 3.22266 22.0703 -13.916 22.0703 -35.2051 C 22.0703 -56.543 39.1602 -73.6816 60.4492 -73.6816 C 81.7383 -73.6816 98.9258 -56.543 98.9258 -35.2051 C 98.9746 -13.916 81.7871 3.22266 60.498 3.22266 Z M 59.2285 -26.2695 C 62.3047 -26.2695 64.502 -27.832 64.8926 -29.9805 C 64.9414 -30.1758 64.9414 -30.3711 64.9902 -30.5664 C 65.3809 -32.666 67.3828 -34.2773 70.1172 -35.9863 C 75.1465 -39.1602 77.6367 -41.8945 77.6367 -47.2168 C 77.6367 -55.3223 70.166 -60.498 60.791 -60.498 C 52.4902 -60.498 46.4844 -56.9824 44.6289 -52.2461 C 44.2383 -51.3184 44.043 -50.4395 44.043 -49.4141 C 44.043 -46.7773 46.0938 -44.7266 49.4629 -44.7266 C 52.4902 -44.7266 53.5156 -46.1914 54.834 -47.5586 C 56.3965 -49.5117 57.959 -50.5859 60.1074 -50.5859 C 62.9395 -50.5859 64.7461 -48.9746 64.7461 -46.5332 C 64.7461 -44.0918 62.7441 -42.5293 58.8379 -39.8926 C 55.4199 -37.5 53.125 -35.1562 53.125 -31.4941 L 53.125 -31.1035 C 53.125 -27.9297 55.2734 -26.2695 59.2285 -26.2695 Z M 59.1797 -10.498 C 62.9395 -10.498 65.7715 -12.8418 65.7715 -16.4062 C 65.7715 -19.9707 62.9395 -22.3633 59.1797 -22.3633 C 55.4199 -22.3633 52.5391 -20.0195 52.5391 -16.4062 C 52.5391 -12.8906 55.4688 -10.498 59.1797 -10.498 Z"/>
  </g>
  <g id="Semibold-M" transform="matrix(1 0 0 1 1983.5 1126)">
   <path d="M 59.7656 15.8203 C 87.7441 15.8203 110.791 -7.27539 110.791 -35.2539 C 110.791 -63.2324 87.6953 -86.2793 59.7656 -86.2793 C 31.7871 -86.2793 8.74023 -63.2324 8.74023 -35.2539 C 8.74023 -7.27539 31.7871 15.8203 59.7656 15.8203 Z M 59.7656 4.3457 C 37.8418 4.3457 20.2637 -13.3301 20.2637 -35.2539 C 20.2637 -57.1777 37.793 -74.8047 59.7656 -74.8047 C 81.6895 -74.8047 99.3164 -57.1777 99.3652 -35.2539 C 99.3652 -13.3301 81.6895 4.3457 59.7656 4.3457 Z M 58.5938 -25.8789 C 61.4746 -25.8789 63.3789 -27.4414 63.623 -29.4922 C 63.6719 -29.6387 63.6719 -29.8828 63.7207 -30.0293 C 63.9648 -32.4219 65.8203 -34.0332 68.7988 -35.9863 C 73.6816 -39.1113 76.5137 -41.8945 76.5137 -47.4121 C 76.5137 -55.5176 69.1406 -60.4004 60.1562 -60.4004 C 51.8066 -60.4004 45.9961 -56.7383 44.3359 -52.0508 C 43.9941 -51.1719 43.7988 -50.3418 43.7988 -49.3652 C 43.7988 -46.9238 45.752 -45.166 48.4863 -45.166 C 51.416 -45.166 52.2461 -46.6309 53.6133 -48.1934 C 55.1758 -50.3906 57.0312 -51.6602 59.6191 -51.6602 C 63.0371 -51.6602 65.2344 -49.707 65.2344 -46.8262 C 65.2344 -44.043 63.1836 -42.4805 59.1797 -39.6973 C 55.7129 -37.3047 53.3203 -34.8633 53.3203 -30.8105 L 53.3203 -30.3223 C 53.3203 -27.3926 55.1758 -25.8789 58.5938 -25.8789 Z M 58.5449 -10.5469 C 61.9629 -10.5469 64.6484 -12.8418 64.6484 -16.1621 C 64.6484 -19.4336 61.9629 -21.7285 58.5449 -21.7285 C 55.127 -21.7285 52.3926 -19.4336 52.3926 -16.1621 C 52.3926 -12.8418 55.127 -10.5469 58.5449 -10.5469 Z"/>
  </g>
  <g id="Medium-M" transform="matrix(1 0 0 1 1687.3 1126)">
   <path d="M 59.2285 15.2344 C 86.9141 15.2344 109.766 -7.61719 109.766 -35.2539 C 109.766 -62.8906 86.8652 -85.7422 59.1797 -85.7422 C 31.543 -85.7422 8.74023 -62.8906 8.74023 -35.2539 C 8.74023 -7.61719 31.5918 15.2344 59.2285 15.2344 Z M 59.2285 5.17578 C 36.8164 5.17578 18.8965 -12.8418 18.8965 -35.2539 C 18.8965 -57.666 36.8164 -75.6348 59.1797 -75.6348 C 81.5918 -75.6348 99.6094 -57.666 99.6582 -35.2539 C 99.707 -12.8418 81.6406 5.17578 59.2285 5.17578 Z M 58.1543 -25.5371 C 60.8398 -25.5371 62.5488 -27.0996 62.6953 -29.1016 C 62.6953 -29.2969 62.6953 -29.4922 62.7441 -29.6875 C 62.8906 -32.1777 64.5996 -33.8867 67.7734 -35.9375 C 72.6074 -39.0625 75.6836 -41.8945 75.6836 -47.5098 C 75.6836 -55.6641 68.3594 -60.3027 59.668 -60.3027 C 51.3184 -60.3027 45.6055 -56.4941 44.0918 -51.9531 C 43.7988 -51.0742 43.6035 -50.2441 43.6035 -49.3652 C 43.6035 -47.0215 45.459 -45.5078 47.7051 -45.5078 C 50.5859 -45.5078 51.2207 -46.9727 52.7344 -48.6328 C 54.2969 -51.0742 56.3477 -52.4902 59.2285 -52.4902 C 63.0859 -52.4902 65.625 -50.293 65.625 -47.0215 C 65.625 -44.043 63.5742 -42.4316 59.4238 -39.5996 C 55.957 -37.1582 53.418 -34.668 53.418 -30.2734 L 53.418 -29.7363 C 53.418 -26.9531 55.127 -25.5371 58.1543 -25.5371 Z M 58.0566 -10.5469 C 61.1816 -10.5469 63.7695 -12.793 63.7695 -15.918 C 63.7695 -19.043 61.2305 -21.2891 58.0566 -21.2891 C 54.8828 -21.2891 52.2949 -18.9941 52.2949 -15.918 C 52.2949 -12.8418 54.8828 -10.5469 58.0566 -10.5469 Z"/>
  </g>
  <g id="Regular-M" transform="matrix(1 0 0 1 1391.3 1126)">
   <path d="M 58.5449 14.5508 C 85.791 14.5508 108.35 -8.05664 108.35 -35.2539 C 108.35 -62.5 85.7422 -85.0586 58.4961 -85.0586 C 31.2988 -85.0586 8.74023 -62.5 8.74023 -35.2539 C 8.74023 -8.05664 31.3477 14.5508 58.5449 14.5508 Z M 58.5449 6.25 C 35.498 6.25 17.0898 -12.207 17.0898 -35.2539 C 17.0898 -58.3008 35.4492 -76.7578 58.4961 -76.7578 C 81.543 -76.7578 100 -58.3008 100.049 -35.2539 C 100.098 -12.207 81.5918 6.25 58.5449 6.25 Z M 57.5195 -25.1465 C 59.9609 -25.1465 61.4746 -26.6602 61.4746 -28.6133 L 61.4746 -29.1992 C 61.4746 -31.9336 63.0371 -33.6426 66.4551 -35.8887 C 71.1914 -39.0137 74.5605 -41.8945 74.5605 -47.7051 C 74.5605 -55.8594 67.334 -60.2051 59.0332 -60.2051 C 50.6348 -60.2051 45.1172 -56.25 43.7988 -51.7578 C 43.5547 -50.9277 43.3594 -50.1465 43.3594 -49.3164 C 43.3594 -47.168 45.1172 -45.9473 46.7285 -45.9473 C 49.5117 -45.9473 49.9512 -47.4609 51.5137 -49.2676 C 53.125 -51.9531 55.4688 -53.5645 58.7402 -53.5645 C 63.1836 -53.5645 66.0645 -51.0742 66.0645 -47.3145 C 66.0645 -43.9941 64.0137 -42.3828 59.7656 -39.4531 C 56.25 -37.0117 53.6133 -34.4238 53.6133 -29.6387 L 53.6133 -29.0039 C 53.6133 -26.416 55.0293 -25.1465 57.5195 -25.1465 Z M 57.4219 -10.5469 C 60.2539 -10.5469 62.6953 -12.793 62.6953 -15.625 C 62.6953 -18.5059 60.3027 -20.7031 57.4219 -20.7031 C 54.541 -20.7031 52.1484 -18.457 52.1484 -15.625 C 52.1484 -12.8418 54.5898 -10.5469 57.4219 -10.5469 Z"/>
  </g>
  <g id="Light-M" transform="matrix(1 0 0 1 1095.42 1126)">
   <path d="M 57.7148 13.7207 C 84.5215 13.7207 106.689 -8.44727 106.689 -35.2539 C 106.689 -62.1094 84.5215 -84.2285 57.666 -84.2285 C 30.8594 -84.2285 8.74023 -62.1094 8.74023 -35.2539 C 8.74023 -8.44727 30.9082 13.7207 57.7148 13.7207 Z M 57.7148 7.37305 C 34.082 7.37305 15.0879 -11.6699 15.0879 -35.2539 C 15.0879 -58.8867 34.082 -77.9297 57.666 -77.9297 C 81.2988 -77.9297 100.342 -58.8867 100.391 -35.2539 C 100.391 -11.6699 81.3477 7.37305 57.7148 7.37305 Z M 56.7871 -25.2441 C 58.6426 -25.2441 59.7656 -26.4648 59.7656 -28.0273 L 59.7656 -29.0039 C 59.7656 -31.8848 61.2793 -33.6914 64.8926 -36.084 C 69.7754 -39.3555 72.6074 -42.2363 72.6074 -47.5586 C 72.6074 -54.8828 66.0645 -59.2285 58.1055 -59.2285 C 50.0488 -59.2285 44.7754 -55.0781 43.7012 -50.3418 C 43.5059 -49.6094 43.3594 -48.877 43.3594 -48.1445 C 43.3594 -46.4355 44.7266 -45.459 46.0449 -45.459 C 48.1445 -45.459 48.584 -46.6309 49.6582 -48.0957 C 50.8301 -51.5625 53.6621 -54.0039 57.8125 -54.0039 C 62.8906 -54.0039 66.1133 -51.2207 66.1133 -47.2168 C 66.1133 -43.8965 64.1602 -42.0898 59.7168 -38.9648 C 56.0059 -36.377 53.7598 -33.7891 53.7598 -29.3457 L 53.7598 -28.2715 C 53.7598 -26.3184 54.834 -25.2441 56.7871 -25.2441 Z M 56.6895 -11.3281 C 59.1309 -11.3281 61.1816 -13.2812 61.1816 -15.7227 C 61.1816 -18.1641 59.1797 -20.1172 56.6895 -20.1172 C 54.1992 -20.1172 52.1484 -18.1641 52.1484 -15.7227 C 52.1484 -13.3301 54.1992 -11.3281 56.6895 -11.3281 Z"/>
  </g>
  <g id="Thin-M" transform="matrix(1 0 0 1 799.806 1126)">
   <path d="M 56.6406 12.5977 C 82.9102 12.5977 104.492 -8.98438 104.492 -35.2539 C 104.492 -61.5723 82.9102 -83.1543 56.5918 -83.1543 C 30.3223 -83.1543 8.74023 -61.5723 8.74023 -35.2539 C 8.74023 -8.98438 30.3223 12.5977 56.6406 12.5977 Z M 56.6406 8.88672 C 32.2266 8.88672 12.4512 -10.8887 12.4512 -35.2539 C 12.4512 -59.6191 32.2266 -79.4434 56.5918 -79.4434 C 81.0059 -79.4434 100.781 -59.6191 100.781 -35.2539 C 100.781 -10.8887 81.0059 8.88672 56.6406 8.88672 Z M 55.7617 -25.3906 C 56.8848 -25.3906 57.5684 -26.1719 57.5684 -27.1973 L 57.5684 -28.7598 C 57.5684 -31.8359 58.9355 -33.6914 62.793 -36.3281 C 67.8711 -39.7949 70.0195 -42.6758 70.0195 -47.3145 C 70.0195 -53.5645 64.4043 -57.9102 56.8359 -57.9102 C 49.1699 -57.9102 44.2871 -53.5156 43.5547 -48.4863 C 43.457 -47.8516 43.3594 -47.2656 43.3594 -46.582 C 43.3594 -45.5078 44.1895 -44.8242 45.1172 -44.8242 C 46.3379 -44.8242 46.8262 -45.5566 47.2168 -46.582 C 47.8516 -51.0254 51.2207 -54.6387 56.6406 -54.6387 C 62.4512 -54.6387 66.1133 -51.4648 66.1133 -47.1191 C 66.1133 -43.75 64.4043 -41.6504 59.668 -38.3301 C 55.6152 -35.5469 53.9062 -33.0078 53.9062 -29.0039 L 53.9062 -27.2949 C 53.9062 -26.123 54.6387 -25.3906 55.7617 -25.3906 Z M 55.6641 -12.3047 C 57.666 -12.3047 59.2773 -13.9648 59.2773 -15.8203 C 59.2773 -17.7734 57.666 -19.3359 55.6641 -19.3359 C 53.7109 -19.3359 52.0996 -17.7246 52.0996 -15.8203 C 52.0996 -13.9648 53.7109 -12.3047 55.6641 -12.3047 Z"/>
  </g>
  <g id="Ultralight-M" transform="matrix(1 0 0 1 503.656 1126)">
   <path d="M 56.0547 12.0605 C 82.0801 12.0605 103.369 -9.22852 103.369 -35.2539 C 103.369 -61.2793 82.0801 -82.5684 56.0547 -82.5684 C 30.0293 -82.5684 8.74023 -61.2793 8.74023 -35.2539 C 8.74023 -9.22852 30.0293 12.0605 56.0547 12.0605 Z M 56.0547 9.66797 C 31.2988 9.66797 11.1328 -10.498 11.1328 -35.2539 C 11.1328 -60.0586 31.2988 -80.1758 56.0547 -80.1758 C 80.8594 -80.1758 100.977 -60.0586 100.977 -35.2539 C 100.977 -10.498 80.8594 9.66797 56.0547 9.66797 Z M 55.2246 -25.4883 C 55.957 -25.4883 56.4453 -26.0254 56.4453 -26.8066 L 56.4453 -28.6621 C 56.4453 -31.8359 57.7148 -33.6914 61.7188 -36.4746 C 66.9434 -40.0391 68.7012 -42.8711 68.7012 -47.2168 C 68.7012 -52.9297 63.5742 -57.2754 56.1523 -57.2754 C 48.7793 -57.2754 44.043 -52.6855 43.5059 -47.5098 C 43.457 -46.9727 43.3594 -46.3867 43.3594 -45.8008 C 43.3594 -45.0195 43.8965 -44.5312 44.6289 -44.5312 C 45.4102 -44.5312 45.8984 -45.0195 45.9473 -45.8008 C 46.2891 -50.7812 50 -54.9316 56.0547 -54.9316 C 62.2559 -54.9316 66.1133 -51.6113 66.1133 -47.0215 C 66.1133 -43.6523 64.502 -41.4062 59.6191 -38.0371 C 55.4688 -35.1074 53.9551 -32.6172 53.9551 -28.8086 L 53.9551 -26.8066 C 53.9551 -26.0254 54.541 -25.4883 55.2246 -25.4883 Z M 55.1758 -12.793 C 56.8848 -12.793 58.252 -14.3066 58.252 -15.8691 C 58.252 -17.5293 56.8848 -18.9453 55.1758 -18.9453 C 53.4668 -18.9453 52.0996 -17.5293 52.0996 -15.8691 C 52.0996 -14.3066 53.4668 -12.793 55.1758 -12.793 Z"/>
  </g>
  <g id="Black-S" transform="matrix(1 0 0 1 2884.57 696)">
   <path d="M 48.8281 6.78711 C 71.9727 6.78711 90.8203 -12.0605 90.8203 -35.2051 C 90.8203 -58.3496 71.9727 -77.1973 48.8281 -77.1973 C 25.6836 -77.1973 6.83594 -58.3496 6.83594 -35.2051 C 6.83594 -12.0605 25.6836 6.78711 48.8281 6.78711 Z M 48.8281 -7.37305 C 33.4473 -7.37305 20.9961 -19.8242 20.9961 -35.2051 C 20.9961 -50.5859 33.4473 -63.0371 48.8281 -63.0371 C 64.209 -63.0371 76.6602 -50.5859 76.6602 -35.2051 C 76.6602 -19.8242 64.209 -7.37305 48.8281 -7.37305 Z M 47.6562 -29.0527 C 50.5859 -29.0527 52.832 -30.3223 53.418 -32.1289 C 53.4668 -32.2754 53.5156 -32.4707 53.5645 -32.5684 C 54.1992 -33.7891 56.0547 -34.9121 57.666 -35.8887 C 61.8164 -38.4277 63.1836 -40.4785 63.1836 -44.2383 C 63.1836 -50.5859 57.1289 -55.2734 48.9258 -55.2734 C 42.4805 -55.2734 37.4512 -52.8809 35.5957 -48.9746 C 35.2051 -48.1445 35.0098 -47.3633 35.0098 -46.4355 C 35.0098 -43.9941 36.8652 -41.748 40.8203 -41.748 C 43.3594 -41.748 44.6289 -42.8711 45.459 -43.6035 C 46.6309 -44.6289 47.2656 -45.0195 48.1445 -45.0195 C 49.1211 -45.0195 49.7559 -44.4336 49.7559 -43.457 C 49.7559 -42.2363 48.1934 -41.0645 45.459 -39.209 C 42.8223 -37.4023 41.2109 -35.7422 41.2109 -33.6914 L 41.2109 -33.5938 C 41.2109 -30.6152 43.5059 -29.0527 47.6562 -29.0527 Z M 47.7051 -15.8203 C 51.3184 -15.8203 53.8574 -17.7246 53.8574 -21.0938 C 53.8574 -24.4141 51.3184 -26.3672 47.7051 -26.3672 C 44.0918 -26.3672 41.4551 -24.4629 41.4551 -21.0938 C 41.4551 -17.7246 44.0918 -15.8203 47.7051 -15.8203 Z"/>
  </g>
  <g id="Heavy-S" transform="matrix(1 0 0 1 2588.47 696)">
   <path d="M 48.2422 6.15234 C 70.9961 6.15234 89.5996 -12.4512 89.5996 -35.2051 C 89.5996 -57.959 70.9961 -76.6113 48.1934 -76.6113 C 25.4395 -76.6113 6.83594 -57.959 6.83594 -35.2051 C 6.83594 -12.4512 25.4395 6.15234 48.2422 6.15234 Z M 48.2422 -6.39648 C 32.2754 -6.39648 19.4336 -19.2871 19.4336 -35.2051 C 19.4336 -51.1719 32.2754 -64.0137 48.1934 -64.0137 C 64.1602 -64.0137 77.002 -51.1719 77.0508 -35.2051 C 77.0508 -19.2871 64.1602 -6.39648 48.2422 -6.39648 Z M 47.1191 -28.6133 C 49.9023 -28.6133 51.9043 -29.9316 52.3438 -31.6895 C 52.3926 -31.8359 52.4414 -32.0312 52.4902 -32.0801 C 52.9785 -33.5449 54.6875 -34.7168 56.543 -35.8398 C 60.5469 -38.3301 62.3047 -40.4297 62.3047 -44.4336 C 62.3047 -50.8789 56.25 -55.2734 48.3887 -55.2734 C 41.8945 -55.2734 37.0117 -52.7344 35.3027 -48.9258 C 34.9609 -48.1445 34.7656 -47.4121 34.7656 -46.5332 C 34.7656 -44.1895 36.5723 -42.2363 39.8926 -42.2363 C 42.4316 -42.2363 43.5059 -43.4082 44.4824 -44.3359 C 45.7031 -45.5566 46.582 -46.0449 47.7539 -46.0449 C 49.2676 -46.0449 50.2441 -45.166 50.2441 -43.75 C 50.2441 -42.2363 48.6328 -41.0645 45.8008 -39.1113 C 43.1641 -37.3047 41.4062 -35.5469 41.4062 -33.0566 L 41.4062 -32.9102 C 41.4062 -30.0781 43.4082 -28.6133 47.1191 -28.6133 Z M 47.168 -15.7715 C 50.4883 -15.7715 52.8809 -17.627 52.8809 -20.8008 C 52.8809 -23.9258 50.4883 -25.8301 47.168 -25.8301 C 43.7988 -25.8301 41.3086 -23.9258 41.3086 -20.8008 C 41.3086 -17.6758 43.8477 -15.7715 47.168 -15.7715 Z"/>
  </g>
  <g id="Bold-S" transform="matrix(1 0 0 1 2292.44 696)">
   <path d="M 47.5586 5.46875 C 69.873 5.46875 88.2324 -12.8906 88.2324 -35.2539 C 88.2324 -57.5684 69.873 -75.9277 47.5098 -75.9277 C 25.1953 -75.9277 6.83594 -57.5684 6.83594 -35.2539 C 6.83594 -12.8906 25.1953 5.46875 47.5586 5.46875 Z M 47.5586 -5.32227 C 30.957 -5.32227 17.6758 -18.6523 17.6758 -35.2539 C 17.6758 -51.8066 30.957 -65.1367 47.5098 -65.1367 C 64.1113 -65.1367 77.4414 -51.8066 77.4414 -35.2539 C 77.4414 -18.6523 64.1113 -5.32227 47.5586 -5.32227 Z M 46.5332 -28.1738 C 49.1211 -28.1738 50.8789 -29.4922 51.1719 -31.25 C 51.2207 -31.3477 51.2207 -31.4941 51.2695 -31.5918 C 51.5625 -33.2031 53.1738 -34.4727 55.2734 -35.791 C 59.1309 -38.2324 61.2793 -40.3809 61.2793 -44.6777 C 61.2793 -51.2207 55.2734 -55.2734 47.8027 -55.2734 C 41.2598 -55.2734 36.4746 -52.5879 34.9609 -48.9258 C 34.668 -48.1445 34.5215 -47.4609 34.5215 -46.6309 C 34.5215 -44.4336 36.1816 -42.8223 38.8672 -42.8223 C 41.4062 -42.8223 42.1875 -44.043 43.3594 -45.2148 C 44.6777 -46.582 45.8008 -47.2168 47.3145 -47.2168 C 49.4141 -47.2168 50.7812 -45.9961 50.7812 -44.0918 C 50.7812 -42.1875 49.1211 -41.0156 46.1426 -38.9648 C 43.5059 -37.1582 41.6016 -35.3027 41.6016 -32.3242 L 41.6016 -32.1289 C 41.6016 -29.4922 43.3594 -28.1738 46.5332 -28.1738 Z M 46.5332 -15.6738 C 49.5117 -15.6738 51.8555 -17.5781 51.8555 -20.459 C 51.8555 -23.3398 49.5605 -25.2441 46.5332 -25.2441 C 43.5059 -25.2441 41.1621 -23.3398 41.1621 -20.459 C 41.1621 -17.5781 43.5059 -15.6738 46.5332 -15.6738 Z"/>
  </g>
  <g id="Semibold-S" transform="matrix(1 0 0 1 1996.2 696)">
   <path d="M 47.0703 4.98047 C 69.0918 4.98047 87.3047 -13.1836 87.3047 -35.2539 C 87.3047 -57.2754 69.0918 -75.4883 47.0215 -75.4883 C 25 -75.4883 6.83594 -57.2754 6.83594 -35.2539 C 6.83594 -13.1836 25.0488 4.98047 47.0703 4.98047 Z M 47.0703 -4.58984 C 30.0781 -4.58984 16.4551 -18.2129 16.4551 -35.2539 C 16.4551 -52.2461 30.0293 -65.8691 47.0215 -65.8691 C 64.0625 -65.8691 77.6855 -52.2461 77.7344 -35.2539 C 77.7344 -18.2129 64.0625 -4.58984 47.0703 -4.58984 Z M 46.1426 -27.832 C 48.584 -27.832 50.1953 -29.1504 50.3906 -30.9082 C 50.3906 -31.0059 50.3906 -31.1523 50.4395 -31.2012 C 50.6348 -33.0078 52.0996 -34.2773 54.3457 -35.7422 C 58.1543 -38.1836 60.5957 -40.332 60.5957 -44.8242 C 60.5957 -51.4648 54.541 -55.2734 47.4121 -55.2734 C 40.7715 -55.2734 36.1328 -52.4414 34.7656 -48.877 C 34.4727 -48.1934 34.3262 -47.4609 34.3262 -46.7285 C 34.3262 -44.6289 35.9375 -43.2129 38.1836 -43.2129 C 40.6738 -43.2129 41.3086 -44.4336 42.5781 -45.8008 C 43.9453 -47.2656 45.2637 -47.998 46.9727 -47.998 C 49.5117 -47.998 51.123 -46.5332 51.123 -44.3359 C 51.123 -42.1875 49.4629 -41.0156 46.3867 -38.916 C 43.75 -37.0605 41.6992 -35.1562 41.6992 -31.8359 L 41.6992 -31.6406 C 41.6992 -29.1016 43.3105 -27.832 46.1426 -27.832 Z M 46.0938 -15.625 C 48.877 -15.625 51.123 -17.5293 51.123 -20.2148 C 51.123 -22.9492 48.9258 -24.8535 46.0938 -24.8535 C 43.3105 -24.8535 41.0645 -22.9492 41.0645 -20.2148 C 41.0645 -17.5293 43.3105 -15.625 46.0938 -15.625 Z"/>
  </g>
  <g id="Medium-S" transform="matrix(1 0 0 1 1699.83 696)">
   <path d="M 46.7285 4.63867 C 68.5547 4.63867 86.6211 -13.4277 86.6211 -35.2539 C 86.6211 -57.0801 68.5059 -75.1465 46.6797 -75.1465 C 24.8535 -75.1465 6.83594 -57.0801 6.83594 -35.2539 C 6.83594 -13.4277 24.9023 4.63867 46.7285 4.63867 Z M 46.7285 -4.00391 C 29.3945 -4.00391 15.5273 -17.9199 15.5273 -35.2539 C 15.5273 -52.5879 29.3457 -66.4551 46.6797 -66.4551 C 64.0137 -66.4551 77.8809 -52.5879 77.9297 -35.2539 C 77.9785 -17.9199 64.0625 -4.00391 46.7285 -4.00391 Z M 45.8496 -27.5879 C 48.1934 -27.5879 49.6582 -28.9551 49.7559 -30.6641 C 49.7559 -30.7129 49.7559 -30.8594 49.8047 -30.957 C 49.9023 -32.8613 51.3184 -34.1309 53.7109 -35.6934 C 57.4219 -38.0859 60.0586 -40.332 60.0586 -44.9219 C 60.0586 -51.6113 54.0527 -55.2734 47.1191 -55.2734 C 40.4297 -55.2734 35.8887 -52.3926 34.5703 -48.877 C 34.3262 -48.1934 34.1797 -47.5098 34.1797 -46.7773 C 34.1797 -44.7266 35.791 -43.5059 37.6465 -43.5059 C 40.1367 -43.5059 40.6738 -44.7754 42.041 -46.2402 C 43.4082 -47.8027 44.873 -48.584 46.7285 -48.584 C 49.5605 -48.584 51.416 -46.9727 51.416 -44.5312 C 51.416 -42.1875 49.7559 -41.0156 46.582 -38.8184 C 43.9453 -37.0117 41.8457 -35.0098 41.8457 -31.4453 L 41.8457 -31.2012 C 41.8457 -28.8086 43.2617 -27.5879 45.8496 -27.5879 Z M 45.752 -15.5762 C 48.3887 -15.5762 50.5371 -17.4805 50.5371 -20.0684 C 50.5371 -22.6562 48.3887 -24.5117 45.752 -24.5117 C 43.1152 -24.5117 40.9668 -22.6074 40.9668 -20.0684 C 40.9668 -17.5293 43.1641 -15.5762 45.752 -15.5762 Z"/>
  </g>
  <g id="Regular-S" transform="matrix(1 0 0 1 1403.58 696)">
   <path d="M 46.2402 4.15039 C 67.7734 4.15039 85.6934 -13.7207 85.6934 -35.2539 C 85.6934 -56.7871 67.7246 -74.6582 46.1914 -74.6582 C 24.707 -74.6582 6.83594 -56.7871 6.83594 -35.2539 C 6.83594 -13.7207 24.7559 4.15039 46.2402 4.15039 Z M 46.2402 -3.27148 C 28.5156 -3.27148 14.3555 -17.4805 14.3555 -35.2539 C 14.3555 -53.0273 28.4668 -67.2363 46.1914 -67.2363 C 63.9648 -67.2363 78.1738 -53.0273 78.2227 -35.2539 C 78.2715 -17.4805 64.0137 -3.27148 46.2402 -3.27148 Z M 45.459 -27.2461 C 47.6562 -27.2461 48.9746 -28.6133 48.9746 -30.3223 L 48.9746 -30.5664 C 48.9746 -32.666 50.2441 -33.9844 52.832 -35.6934 C 56.4453 -38.0371 59.375 -40.2832 59.375 -45.0684 C 59.375 -51.8555 53.3691 -55.2734 46.7285 -55.2734 C 39.9902 -55.2734 35.5469 -52.2461 34.375 -48.877 C 34.1309 -48.1934 33.9844 -47.5098 33.9844 -46.8262 C 33.9844 -44.9219 35.5469 -43.8477 36.9629 -43.8477 C 39.4531 -43.8477 39.7949 -45.166 41.2598 -46.7773 C 42.7246 -48.5352 44.3359 -49.3652 46.4355 -49.3652 C 49.6582 -49.3652 51.7578 -47.5586 51.7578 -44.7754 C 51.7578 -42.1875 50.0977 -41.0156 46.8262 -38.7695 C 44.1895 -36.9141 41.9434 -34.8633 41.9434 -30.957 L 41.9434 -30.7129 C 41.9434 -28.418 43.1641 -27.2461 45.459 -27.2461 Z M 45.3613 -15.5273 C 47.7051 -15.5273 49.8047 -17.4316 49.8047 -19.8242 C 49.8047 -22.2656 47.7539 -24.1211 45.3613 -24.1211 C 42.9199 -24.1211 40.8691 -22.2168 40.8691 -19.8242 C 40.8691 -17.4805 42.9688 -15.5273 45.3613 -15.5273 Z"/>
  </g>
  <g id="Light-S" transform="matrix(1 0 0 1 1107.6 696)">
   <path d="M 45.5078 3.41797 C 66.6992 3.41797 84.2285 -14.0625 84.2285 -35.2539 C 84.2285 -56.4453 66.6504 -73.9258 45.5078 -73.9258 C 24.3164 -73.9258 6.83594 -56.4453 6.83594 -35.2539 C 6.83594 -14.0625 24.3652 3.41797 45.5078 3.41797 Z M 45.5078 -2.29492 C 27.2461 -2.29492 12.5977 -16.9922 12.5977 -35.2539 C 12.5977 -53.5156 27.1973 -68.2129 45.5078 -68.2129 C 63.7695 -68.2129 78.4668 -53.5156 78.5156 -35.2539 C 78.5156 -16.9922 63.8184 -2.29492 45.5078 -2.29492 Z M 44.7754 -27.3438 C 46.4355 -27.3438 47.4609 -28.418 47.4609 -29.7852 L 47.4609 -30.4199 C 47.4609 -32.6172 48.6816 -33.9844 51.416 -35.8398 C 55.2246 -38.3301 57.6172 -40.5762 57.6172 -44.9219 C 57.6172 -50.9766 52.2461 -54.3945 45.8984 -54.3945 C 39.4531 -54.3945 35.2051 -51.2207 34.2773 -47.6074 C 34.082 -47.0215 33.9844 -46.4355 33.9844 -45.8008 C 33.9844 -44.2871 35.2051 -43.457 36.3281 -43.457 C 38.2324 -43.457 38.5742 -44.4824 39.5996 -45.752 C 40.7227 -48.1934 42.7246 -49.8047 45.6543 -49.8047 C 49.3652 -49.8047 51.7578 -47.7051 51.7578 -44.6777 C 51.7578 -42.0898 50.2441 -40.7227 46.7773 -38.3301 C 43.9453 -36.377 42.041 -34.3262 42.041 -30.7129 L 42.041 -30.0293 C 42.041 -28.2715 43.0176 -27.3438 44.7754 -27.3438 Z M 44.6777 -16.2109 C 46.7285 -16.2109 48.5352 -17.8711 48.5352 -19.9219 C 48.5352 -21.9727 46.7773 -23.6328 44.6777 -23.6328 C 42.5781 -23.6328 40.8691 -21.9727 40.8691 -19.9219 C 40.8691 -17.8711 42.627 -16.2109 44.6777 -16.2109 Z"/>
  </g>
  <g id="Thin-S" transform="matrix(1 0 0 1 811.867 696)">
   <path d="M 44.5801 2.49023 C 65.2832 2.49023 82.2754 -14.5508 82.2754 -35.2539 C 82.2754 -55.957 65.2344 -72.998 44.5312 -72.998 C 23.8281 -72.998 6.83594 -55.957 6.83594 -35.2539 C 6.83594 -14.5508 23.877 2.49023 44.5801 2.49023 Z M 44.5801 -0.927734 C 25.5859 -0.927734 10.2539 -16.3086 10.2539 -35.2539 C 10.2539 -54.1992 25.5859 -69.5801 44.5312 -69.5801 C 63.5254 -69.5801 78.8574 -54.1992 78.8574 -35.2539 C 78.8574 -16.3086 63.5254 -0.927734 44.5801 -0.927734 Z M 43.8965 -27.4902 C 44.873 -27.4902 45.5078 -28.1738 45.5078 -29.1016 L 45.5078 -30.2246 C 45.5078 -32.6172 46.6309 -34.0332 49.6094 -36.0352 C 53.5645 -38.7207 55.3711 -40.9668 55.3711 -44.7754 C 55.3711 -49.8535 50.7812 -53.2715 44.7754 -53.2715 C 38.7207 -53.2715 34.8145 -49.8535 34.1797 -45.9473 C 34.082 -45.459 33.9844 -44.9707 33.9844 -44.4336 C 33.9844 -43.457 34.7168 -42.8711 35.5469 -42.8711 C 36.6699 -42.8711 37.0117 -43.5059 37.4512 -44.4336 C 38.0371 -47.7051 40.625 -50.293 44.6289 -50.293 C 49.0234 -50.293 51.8066 -47.9004 51.8066 -44.5801 C 51.8066 -41.9434 50.3906 -40.332 46.7773 -37.793 C 43.6523 -35.6445 42.1875 -33.6426 42.1875 -30.4199 L 42.1875 -29.1992 C 42.1875 -28.125 42.8711 -27.4902 43.8965 -27.4902 Z M 43.7988 -17.0898 C 45.459 -17.0898 46.7773 -18.4082 46.7773 -20.0195 C 46.7773 -21.6309 45.459 -22.9492 43.7988 -22.9492 C 42.1875 -22.9492 40.8203 -21.6309 40.8203 -20.0195 C 40.8203 -18.457 42.1875 -17.0898 43.7988 -17.0898 Z"/>
  </g>
  <g id="Ultralight-S" transform="matrix(1 0 0 1 515.644 696)">
   <path d="M 44.043 1.95312 C 64.502 1.95312 81.2988 -14.7949 81.2988 -35.2539 C 81.2988 -55.7129 64.502 -72.4609 44.043 -72.4609 C 23.584 -72.4609 6.83594 -55.7129 6.83594 -35.2539 C 6.83594 -14.7949 23.584 1.95312 44.043 1.95312 Z M 44.043 -0.244141 C 24.7559 -0.244141 9.08203 -15.9668 9.08203 -35.2539 C 9.08203 -54.541 24.7559 -70.2637 44.043 -70.2637 C 63.3789 -70.2637 79.0527 -54.541 79.0527 -35.2539 C 79.0527 -15.9668 63.3789 -0.244141 44.043 -0.244141 Z M 43.4082 -27.5879 C 44.0918 -27.5879 44.5312 -28.0762 44.5312 -28.7598 L 44.5312 -30.127 C 44.5312 -32.5684 45.5566 -34.0332 48.6328 -36.1328 C 52.6855 -38.916 54.1992 -41.1621 54.1992 -44.6289 C 54.1992 -49.2676 50.0488 -52.6855 44.1895 -52.6855 C 38.3301 -52.6855 34.5703 -49.1211 34.082 -45.1172 C 34.0332 -44.6777 33.9844 -44.2383 33.9844 -43.7012 C 33.9844 -43.0176 34.4727 -42.5781 35.1074 -42.5781 C 35.8398 -42.5781 36.2305 -43.0176 36.3281 -43.7012 C 36.6699 -47.4609 39.502 -50.5859 44.0918 -50.5859 C 48.8281 -50.5859 51.8066 -47.998 51.8066 -44.4824 C 51.8066 -41.8457 50.5371 -40.1367 46.7285 -37.5 C 43.5059 -35.2539 42.2852 -33.3008 42.2852 -30.2734 L 42.2852 -28.7598 C 42.2852 -28.0273 42.7246 -27.5879 43.4082 -27.5879 Z M 43.3594 -17.5293 C 44.7754 -17.5293 45.8984 -18.75 45.8984 -20.0684 C 45.8984 -21.4355 44.7754 -22.6074 43.3594 -22.6074 C 41.9434 -22.6074 40.8203 -21.4355 40.8203 -20.0684 C 40.8203 -18.75 41.9434 -17.5293 43.3594 -17.5293 Z"/>
  </g>
 </g>
</svg>
