<?xml version="1.0" encoding="UTF-8"?>
<!--Generator: Apple Native CoreSVG 129-->
<!DOCTYPE svg
PUBLIC "-//W3C//DTD SVG 1.1//EN"
       "http://www.w3.org/Graphics/SVG/1.1/DTD/svg11.dtd">
<svg version="1.1" xmlns="http://www.w3.org/2000/svg" xmlns:xlink="http://www.w3.org/1999/xlink" width="3300" height="2200">
 <!--glyph: "uni1003EB.medium", point size: 100.000000, font version: "Version 16.0d9e1", template writer version: "8"-->
 <g id="Notes">
  <rect height="2200" id="artboard" style="fill:white;opacity:1" width="3300" x="0" y="0"/>
  <line id="" style="fill:none;stroke:black;opacity:1;stroke-width:0.5;" x1="263" x2="3036" y1="292" y2="292"/>
  <text style="stroke:none;fill:black;font-family:-apple-system,&quot;SF Pro Display&quot;,&quot;SF Pro Text&quot;,Helvetica,sans-serif;font-weight:bold;" transform="matrix(1 0 0 1 263 322)">Weight/Scale Variations</text>
  <text style="stroke:none;fill:black;font-family:-apple-system,&quot;SF Pro Display&quot;,&quot;SF Pro Text&quot;,Helvetica,sans-serif;text-anchor:middle;" transform="matrix(1 0 0 1 559.711 322)">Ultralight</text>
  <text style="stroke:none;fill:black;font-family:-apple-system,&quot;SF Pro Display&quot;,&quot;SF Pro Text&quot;,Helvetica,sans-serif;text-anchor:middle;" transform="matrix(1 0 0 1 856.422 322)">Thin</text>
  <text style="stroke:none;fill:black;font-family:-apple-system,&quot;SF Pro Display&quot;,&quot;SF Pro Text&quot;,Helvetica,sans-serif;text-anchor:middle;" transform="matrix(1 0 0 1 1153.13 322)">Light</text>
  <text style="stroke:none;fill:black;font-family:-apple-system,&quot;SF Pro Display&quot;,&quot;SF Pro Text&quot;,Helvetica,sans-serif;text-anchor:middle;" transform="matrix(1 0 0 1 1449.84 322)">Regular</text>
  <text style="stroke:none;fill:black;font-family:-apple-system,&quot;SF Pro Display&quot;,&quot;SF Pro Text&quot;,Helvetica,sans-serif;text-anchor:middle;" transform="matrix(1 0 0 1 1746.56 322)">Medium</text>
  <text style="stroke:none;fill:black;font-family:-apple-system,&quot;SF Pro Display&quot;,&quot;SF Pro Text&quot;,Helvetica,sans-serif;text-anchor:middle;" transform="matrix(1 0 0 1 2043.27 322)">Semibold</text>
  <text style="stroke:none;fill:black;font-family:-apple-system,&quot;SF Pro Display&quot;,&quot;SF Pro Text&quot;,Helvetica,sans-serif;text-anchor:middle;" transform="matrix(1 0 0 1 2339.98 322)">Bold</text>
  <text style="stroke:none;fill:black;font-family:-apple-system,&quot;SF Pro Display&quot;,&quot;SF Pro Text&quot;,Helvetica,sans-serif;text-anchor:middle;" transform="matrix(1 0 0 1 2636.69 322)">Heavy</text>
  <text style="stroke:none;fill:black;font-family:-apple-system,&quot;SF Pro Display&quot;,&quot;SF Pro Text&quot;,Helvetica,sans-serif;text-anchor:middle;" transform="matrix(1 0 0 1 2933.4 322)">Black</text>
  <line id="" style="fill:none;stroke:black;opacity:1;stroke-width:0.5;" x1="263" x2="3036" y1="1903" y2="1903"/>
  <g id="" transform="matrix(1 0 0 1 263 1933)">
   <path d="M 9.24805 0.830078 C 13.5547 0.830078 17.1387 -2.74414 17.1387 -7.05078 C 17.1387 -11.3574 13.5449 -14.9316 9.23828 -14.9316 C 4.94141 -14.9316 1.36719 -11.3574 1.36719 -7.05078 C 1.36719 -2.74414 4.95117 0.830078 9.24805 0.830078 Z M 9.24805 -0.654297 C 5.70312 -0.654297 2.87109 -3.49609 2.87109 -7.05078 C 2.87109 -10.6055 5.69336 -13.4473 9.23828 -13.4473 C 12.793 -13.4473 15.6348 -10.6055 15.6445 -7.05078 C 15.6543 -3.49609 12.8027 -0.654297 9.24805 -0.654297 Z M 9.22852 -3.62305 C 9.69727 -3.62305 9.9707 -3.93555 9.9707 -4.45312 L 9.9707 -6.31836 L 12.002 -6.31836 C 12.5 -6.31836 12.832 -6.57227 12.832 -7.04102 C 12.832 -7.51953 12.5195 -7.7832 12.002 -7.7832 L 9.9707 -7.7832 L 9.9707 -9.81445 C 9.9707 -10.332 9.69727 -10.6543 9.22852 -10.6543 C 8.75977 -10.6543 8.50586 -10.3125 8.50586 -9.81445 L 8.50586 -7.7832 L 6.49414 -7.7832 C 5.97656 -7.7832 5.64453 -7.51953 5.64453 -7.04102 C 5.64453 -6.57227 5.99609 -6.31836 6.49414 -6.31836 L 8.50586 -6.31836 L 8.50586 -4.45312 C 8.50586 -3.95508 8.75977 -3.62305 9.22852 -3.62305 Z"/>
  </g>
  <g id="" transform="matrix(1 0 0 1 281.506 1933)">
   <path d="M 11.709 2.91016 C 17.1582 2.91016 21.6699 -1.61133 21.6699 -7.05078 C 21.6699 -12.5 17.1484 -17.0117 11.6992 -17.0117 C 6.25977 -17.0117 1.74805 -12.5 1.74805 -7.05078 C 1.74805 -1.61133 6.26953 2.91016 11.709 2.91016 Z M 11.709 1.25 C 7.09961 1.25 3.41797 -2.44141 3.41797 -7.05078 C 3.41797 -11.6602 7.08984 -15.3516 11.6992 -15.3516 C 16.3086 -15.3516 20 -11.6602 20.0098 -7.05078 C 20.0195 -2.44141 16.3184 1.25 11.709 1.25 Z M 11.6797 -2.66602 C 12.207 -2.66602 12.5098 -3.01758 12.5098 -3.59375 L 12.5098 -6.23047 L 15.3223 -6.23047 C 15.8691 -6.23047 16.25 -6.51367 16.25 -7.03125 C 16.25 -7.55859 15.8887 -7.86133 15.3223 -7.86133 L 12.5098 -7.86133 L 12.5098 -10.6836 C 12.5098 -11.25 12.207 -11.6113 11.6797 -11.6113 C 11.1621 -11.6113 10.8789 -11.2305 10.8789 -10.6836 L 10.8789 -7.86133 L 8.07617 -7.86133 C 7.50977 -7.86133 7.13867 -7.55859 7.13867 -7.03125 C 7.13867 -6.51367 7.5293 -6.23047 8.07617 -6.23047 L 10.8789 -6.23047 L 10.8789 -3.59375 C 10.8789 -3.03711 11.1621 -2.66602 11.6797 -2.66602 Z"/>
  </g>
  <g id="" transform="matrix(1 0 0 1 304.924 1933)">
   <path d="M 14.9707 5.66406 C 21.9336 5.66406 27.6953 -0.0976562 27.6953 -7.05078 C 27.6953 -14.0137 21.9238 -19.7754 14.9609 -19.7754 C 8.00781 -19.7754 2.25586 -14.0137 2.25586 -7.05078 C 2.25586 -0.0976562 8.01758 5.66406 14.9707 5.66406 Z M 14.9707 3.84766 C 8.93555 3.84766 4.08203 -1.01562 4.08203 -7.05078 C 4.08203 -13.0957 8.92578 -17.9492 14.9609 -17.9492 C 21.0059 -17.9492 25.8594 -13.0957 25.8691 -7.05078 C 25.8789 -1.01562 21.0156 3.84766 14.9707 3.84766 Z M 14.9414 -1.38672 C 15.5176 -1.38672 15.8594 -1.77734 15.8594 -2.38281 L 15.8594 -6.13281 L 19.7754 -6.13281 C 20.3711 -6.13281 20.7812 -6.46484 20.7812 -7.02148 C 20.7812 -7.59766 20.3906 -7.93945 19.7754 -7.93945 L 15.8594 -7.93945 L 15.8594 -11.8652 C 15.8594 -12.4805 15.5176 -12.8711 14.9414 -12.8711 C 14.375 -12.8711 14.0527 -12.4609 14.0527 -11.8652 L 14.0527 -7.93945 L 10.1465 -7.93945 C 9.53125 -7.93945 9.13086 -7.59766 9.13086 -7.02148 C 9.13086 -6.46484 9.55078 -6.13281 10.1465 -6.13281 L 14.0527 -6.13281 L 14.0527 -2.38281 C 14.0527 -1.79688 14.375 -1.38672 14.9414 -1.38672 Z"/>
  </g>
  <text style="stroke:none;fill:black;font-family:-apple-system,&quot;SF Pro Display&quot;,&quot;SF Pro Text&quot;,Helvetica,sans-serif;font-weight:bold;" transform="matrix(1 0 0 1 263 1953)">Design Variations</text>
  <text style="stroke:none;fill:black;font-family:-apple-system,&quot;SF Pro Display&quot;,&quot;SF Pro Text&quot;,Helvetica,sans-serif;" transform="matrix(1 0 0 1 263 1971)">Symbols are supported in up to nine weights and three scales.</text>
  <text style="stroke:none;fill:black;font-family:-apple-system,&quot;SF Pro Display&quot;,&quot;SF Pro Text&quot;,Helvetica,sans-serif;" transform="matrix(1 0 0 1 263 1989)">For optimal layout with text and other symbols, vertically align</text>
  <text style="stroke:none;fill:black;font-family:-apple-system,&quot;SF Pro Display&quot;,&quot;SF Pro Text&quot;,Helvetica,sans-serif;" transform="matrix(1 0 0 1 263 2007)">symbols with the adjacent text.</text>
  <line id="" style="fill:none;stroke:#00AEEF;stroke-width:0.5;opacity:1.0;" x1="776" x2="776" y1="1919" y2="1933"/>
  <g id="" transform="matrix(1 0 0 1 776 1933)">
   <path d="M 3.31055 0.126953 C 3.82812 0.126953 4.08203 -0.0683594 4.26758 -0.605469 L 5.52734 -4.0625 L 11.2891 -4.0625 L 12.5488 -0.605469 C 12.7344 -0.0683594 12.9883 0.126953 13.4961 0.126953 C 14.0137 0.126953 14.3457 -0.185547 14.3457 -0.673828 C 14.3457 -0.839844 14.3164 -0.986328 14.2383 -1.20117 L 9.6582 -13.3887 C 9.43359 -13.9941 9.0332 -14.2871 8.4082 -14.2871 C 7.80273 -14.2871 7.39258 -13.9941 7.17773 -13.3984 L 2.59766 -1.19141 C 2.51953 -0.976562 2.49023 -0.830078 2.49023 -0.664062 C 2.49023 -0.175781 2.80273 0.126953 3.31055 0.126953 Z M 6.00586 -5.53711 L 8.37891 -12.1094 L 8.42773 -12.1094 L 10.8008 -5.53711 Z"/>
  </g>
  <line id="" style="fill:none;stroke:#00AEEF;stroke-width:0.5;opacity:1.0;" x1="792.836" x2="792.836" y1="1919" y2="1933"/>
  <text style="stroke:none;fill:black;font-family:-apple-system,&quot;SF Pro Display&quot;,&quot;SF Pro Text&quot;,Helvetica,sans-serif;font-weight:bold;" transform="matrix(1 0 0 1 776 1953)">Margins</text>
  <text style="stroke:none;fill:black;font-family:-apple-system,&quot;SF Pro Display&quot;,&quot;SF Pro Text&quot;,Helvetica,sans-serif;" transform="matrix(1 0 0 1 776 1971)">Leading and trailing margins on the left and right side of each symbol</text>
  <text style="stroke:none;fill:black;font-family:-apple-system,&quot;SF Pro Display&quot;,&quot;SF Pro Text&quot;,Helvetica,sans-serif;" transform="matrix(1 0 0 1 776 1989)">can be adjusted by modifying the x-location of the margin guidelines.</text>
  <text style="stroke:none;fill:black;font-family:-apple-system,&quot;SF Pro Display&quot;,&quot;SF Pro Text&quot;,Helvetica,sans-serif;" transform="matrix(1 0 0 1 776 2007)">Modifications are automatically applied proportionally to all</text>
  <text style="stroke:none;fill:black;font-family:-apple-system,&quot;SF Pro Display&quot;,&quot;SF Pro Text&quot;,Helvetica,sans-serif;" transform="matrix(1 0 0 1 776 2025)">scales and weights.</text>
  <g id="" transform="matrix(1 0 0 1 1289 1933)">
   <path d="M 2.8418 1.86523 L 4.54102 3.57422 C 5.40039 4.44336 6.38672 4.38477 7.31445 3.35938 L 17.4902 -7.85156 C 17.7539 -7.76367 18.0273 -7.7832 18.3398 -7.8418 L 19.4043 -8.03711 L 20.0684 -7.36328 L 20.0293 -6.80664 C 19.9902 -6.30859 20.1172 -5.92773 20.6055 -5.44922 L 21.3672 -4.70703 C 21.8457 -4.22852 22.4609 -4.19922 22.9297 -4.66797 L 25.8398 -7.58789 C 26.3086 -8.05664 26.2891 -8.65234 25.8105 -9.13086 L 25.0391 -9.89258 C 24.5605 -10.3711 24.1895 -10.5273 23.7109 -10.4883 L 23.1348 -10.4395 L 22.4902 -11.0742 L 22.7344 -12.1973 C 22.8613 -12.7637 22.7051 -13.2031 22.1191 -13.7891 L 19.9219 -15.9766 C 16.582 -19.2969 12.1484 -19.2188 9.25781 -16.3281 C 8.83789 -15.918 8.80859 -15.3418 9.04297 -14.9512 C 9.27734 -14.5898 9.73633 -14.3555 10.3809 -14.5215 C 11.8457 -14.8633 13.3691 -14.9219 14.7949 -13.9844 L 14.209 -12.5293 C 14.0137 -12.0508 13.9844 -11.6504 14.1113 -11.2891 L 3.04688 -0.898438 C 2.06055 0.0195312 1.98242 0.996094 2.8418 1.86523 Z M 10.752 -15.957 C 13.1836 -17.7344 16.4746 -17.4316 18.7012 -15.2051 L 21.1328 -12.793 C 21.3672 -12.5586 21.4062 -12.373 21.3379 -12.0312 L 21.0156 -10.5469 L 22.5195 -9.0625 L 23.5059 -9.12109 C 23.7598 -9.13086 23.8379 -9.11133 24.0332 -8.91602 L 24.6094 -8.33984 L 22.168 -5.89844 L 21.5918 -6.47461 C 21.3965 -6.66992 21.3672 -6.74805 21.377 -7.01172 L 21.4453 -7.98828 L 19.9512 -9.47266 L 18.4277 -9.21875 C 18.1055 -9.15039 17.959 -9.17969 17.7148 -9.41406 L 15.7129 -11.416 C 15.459 -11.6504 15.4297 -11.8164 15.5859 -12.1875 L 16.4648 -14.2773 C 14.9023 -15.7324 12.8711 -16.3574 10.8398 -15.7617 C 10.6836 -15.7227 10.625 -15.8496 10.752 -15.957 Z M 5.27344 2.30469 L 4.10156 1.14258 C 3.63281 0.683594 3.74023 0.341797 4.14062 -0.0195312 L 14.9512 -10.1953 L 16.416 -8.71094 L 6.42578 2.27539 C 6.07422 2.67578 5.74219 2.77344 5.27344 2.30469 Z"/>
  </g>
  <text style="stroke:none;fill:black;font-family:-apple-system,&quot;SF Pro Display&quot;,&quot;SF Pro Text&quot;,Helvetica,sans-serif;font-weight:bold;" transform="matrix(1 0 0 1 1289 1953)">Exporting</text>
  <text style="stroke:none;fill:black;font-family:-apple-system,&quot;SF Pro Display&quot;,&quot;SF Pro Text&quot;,Helvetica,sans-serif;" transform="matrix(1 0 0 1 1289 1971)">Symbols should be outlined when exporting to ensure the</text>
  <text style="stroke:none;fill:black;font-family:-apple-system,&quot;SF Pro Display&quot;,&quot;SF Pro Text&quot;,Helvetica,sans-serif;" transform="matrix(1 0 0 1 1289 1989)">design is preserved when submitting to Xcode.</text>
  <text id="template-version" style="stroke:none;fill:black;font-family:-apple-system,&quot;SF Pro Display&quot;,&quot;SF Pro Text&quot;,Helvetica,sans-serif;text-anchor:end;" transform="matrix(1 0 0 1 3036 1933)">Template v.2.0</text>
  <text style="stroke:none;fill:black;font-family:-apple-system,&quot;SF Pro Display&quot;,&quot;SF Pro Text&quot;,Helvetica,sans-serif;text-anchor:end;" transform="matrix(1 0 0 1 3036 1951)">Requires Xcode 12 or greater</text>
  <text style="stroke:none;fill:black;font-family:-apple-system,&quot;SF Pro Display&quot;,&quot;SF Pro Text&quot;,Helvetica,sans-serif;text-anchor:end;" transform="matrix(1 0 0 1 3036 1969)">Generated from photo.on.rectangle</text>
  <text style="stroke:none;fill:black;font-family:-apple-system,&quot;SF Pro Display&quot;,&quot;SF Pro Text&quot;,Helvetica,sans-serif;text-anchor:end;" transform="matrix(1 0 0 1 3036 1987)">Typeset at 100 points</text>
  <text style="stroke:none;fill:black;font-family:-apple-system,&quot;SF Pro Display&quot;,&quot;SF Pro Text&quot;,Helvetica,sans-serif;" transform="matrix(1 0 0 1 263 726)">Small</text>
  <text style="stroke:none;fill:black;font-family:-apple-system,&quot;SF Pro Display&quot;,&quot;SF Pro Text&quot;,Helvetica,sans-serif;" transform="matrix(1 0 0 1 263 1156)">Medium</text>
  <text style="stroke:none;fill:black;font-family:-apple-system,&quot;SF Pro Display&quot;,&quot;SF Pro Text&quot;,Helvetica,sans-serif;" transform="matrix(1 0 0 1 263 1586)">Large</text>
 </g>
 <g id="Guides">
  <g id="H-reference" style="fill:#27AAE1;stroke:none;" transform="matrix(1 0 0 1 339 696)">
   <path d="M 0.976562 0 L 3.66211 0 L 12.9883 -24.4629 L 45.7031 -24.4629 L 55.0781 0 L 57.7148 0 L 30.6152 -70.459 L 28.125 -70.459 Z M 29.2969 -67.1387 L 29.3945 -67.1387 L 44.873 -26.709 L 13.8672 -26.709 Z"/>
  </g>
  <line id="Baseline-S" style="fill:none;stroke:#27AAE1;opacity:1;stroke-width:0.5;" x1="263" x2="3036" y1="696" y2="696"/>
  <line id="Capline-S" style="fill:none;stroke:#27AAE1;opacity:1;stroke-width:0.5;" x1="263" x2="3036" y1="625.541" y2="625.541"/>
  <g id="H-reference" style="fill:#27AAE1;stroke:none;" transform="matrix(1 0 0 1 339 1126)">
   <path d="M 0.976562 0 L 3.66211 0 L 12.9883 -24.4629 L 45.7031 -24.4629 L 55.0781 0 L 57.7148 0 L 30.6152 -70.459 L 28.125 -70.459 Z M 29.2969 -67.1387 L 29.3945 -67.1387 L 44.873 -26.709 L 13.8672 -26.709 Z"/>
  </g>
  <line id="Baseline-M" style="fill:none;stroke:#27AAE1;opacity:1;stroke-width:0.5;" x1="263" x2="3036" y1="1126" y2="1126"/>
  <line id="Capline-M" style="fill:none;stroke:#27AAE1;opacity:1;stroke-width:0.5;" x1="263" x2="3036" y1="1055.54" y2="1055.54"/>
  <g id="H-reference" style="fill:#27AAE1;stroke:none;" transform="matrix(1 0 0 1 339 1556)">
   <path d="M 0.976562 0 L 3.66211 0 L 12.9883 -24.4629 L 45.7031 -24.4629 L 55.0781 0 L 57.7148 0 L 30.6152 -70.459 L 28.125 -70.459 Z M 29.2969 -67.1387 L 29.3945 -67.1387 L 44.873 -26.709 L 13.8672 -26.709 Z"/>
  </g>
  <line id="Baseline-L" style="fill:none;stroke:#27AAE1;opacity:1;stroke-width:0.5;" x1="263" x2="3036" y1="1556" y2="1556"/>
  <line id="Capline-L" style="fill:none;stroke:#27AAE1;opacity:1;stroke-width:0.5;" x1="263" x2="3036" y1="1485.54" y2="1485.54"/>
  <line id="left-margin" style="fill:none;stroke:#00AEEF;stroke-width:0.5;opacity:1.0;" x1="1374.14" x2="1374.14" y1="1030.79" y2="1150.12"/>
  <line id="right-margin" style="fill:none;stroke:#00AEEF;stroke-width:0.5;opacity:1.0;" x1="1525.55" x2="1525.55" y1="1030.79" y2="1150.12"/>
 </g>
 <g id="Symbols">
  <g id="Black-L" transform="matrix(1 0 0 1 2829.4 1556)">
   <path d="M 39.9902 5.07812 L 50.5859 5.07812 L 50.5859 14.1602 C 50.5859 29.3457 59.2285 37.9883 74.4629 37.9883 L 168.066 37.9883 C 183.301 37.9883 191.943 29.3457 191.943 14.1602 L 191.943 -51.6602 C 191.943 -66.8457 183.301 -75.4883 168.066 -75.4883 L 157.471 -75.4883 L 157.471 -84.5703 C 157.471 -99.7559 148.779 -108.35 133.545 -108.35 L 39.9902 -108.35 C 24.707 -108.35 16.0645 -99.7559 16.0645 -84.5703 L 16.0645 -18.7012 C 16.0645 -3.51562 24.707 5.07812 39.9902 5.07812 Z M 42.6758 -15.1367 C 38.4766 -15.1367 36.3281 -17.041 36.3281 -21.582 L 36.3281 -81.6895 C 36.3281 -86.2305 38.4766 -88.1348 42.6758 -88.1348 L 130.811 -88.1348 C 135.059 -88.1348 137.207 -86.2305 137.207 -81.6895 L 137.207 -75.4883 L 74.4629 -75.4883 C 59.2285 -75.4883 50.5859 -66.8457 50.5859 -51.6602 L 50.5859 -15.1367 Z M 70.8008 -48.7793 C 70.8008 -53.3691 72.998 -55.2246 77.1973 -55.2246 L 165.332 -55.2246 C 169.58 -55.2246 171.729 -53.3691 171.729 -48.7793 L 171.729 -0.732422 L 150.049 -20.8496 C 147.705 -22.998 144.922 -24.0723 141.846 -24.0723 C 138.965 -24.0723 136.035 -22.998 133.594 -20.8496 L 108.252 1.61133 L 98.0469 -7.61719 C 95.8008 -9.61914 93.1641 -10.6445 90.5762 -10.6445 C 88.0371 -10.6445 85.3516 -9.66797 83.2031 -7.71484 L 70.8008 3.51562 Z M 102.588 -17.7246 C 110.303 -17.7246 116.895 -24.4141 116.895 -31.9336 C 116.895 -39.6973 110.303 -46.3379 102.588 -46.3379 C 95.0684 -46.3379 88.4277 -39.6973 88.4277 -31.9336 C 88.4277 -24.4141 95.0684 -17.7246 102.588 -17.7246 Z"/>
  </g>
  <g id="Heavy-L" transform="matrix(1 0 0 1 2534.37 1556)">
   <path d="M 38.8184 4.24805 L 49.8535 4.24805 L 49.8535 13.3789 C 49.8535 27.9297 57.959 35.9863 72.6074 35.9863 L 165.82 35.9863 C 180.42 35.9863 188.574 27.8809 188.574 13.3789 L 188.574 -51.9531 C 188.574 -66.5039 180.42 -74.6094 165.82 -74.6094 L 154.785 -74.6094 L 154.785 -83.7402 C 154.785 -98.2422 146.631 -106.348 132.031 -106.348 L 38.8184 -106.348 C 24.1699 -106.348 16.0645 -98.291 16.0645 -83.7402 L 16.0645 -18.4082 C 16.0645 -3.85742 24.1699 4.24805 38.8184 4.24805 Z M 40.918 -13.2812 C 36.084 -13.2812 33.5938 -15.5762 33.5938 -20.7031 L 33.5938 -81.4453 C 33.5938 -86.5723 36.084 -88.8672 40.918 -88.8672 L 129.883 -88.8672 C 134.717 -88.8672 137.256 -86.5723 137.256 -81.4453 L 137.256 -74.6094 L 72.6074 -74.6094 C 57.959 -74.6094 49.8535 -66.5039 49.8535 -51.9531 L 49.8535 -13.2812 Z M 67.3828 -49.6582 C 67.3828 -54.7852 69.9219 -57.0801 74.7559 -57.0801 L 163.721 -57.0801 C 168.506 -57.0801 171.094 -54.7852 171.094 -49.6582 L 171.094 -0.78125 L 148.877 -21.4355 C 146.436 -23.6816 143.555 -24.8047 140.381 -24.8047 C 137.354 -24.8047 134.424 -23.7305 131.836 -21.4844 L 105.957 1.46484 L 95.6055 -7.95898 C 93.2617 -10.0098 90.625 -11.084 87.8906 -11.084 C 85.3027 -11.084 82.666 -10.1074 80.4199 -8.00781 L 67.3828 3.71094 Z M 99.3164 -18.75 C 107.08 -18.75 113.672 -25.3906 113.672 -33.0078 C 113.672 -40.8203 107.08 -47.4609 99.3164 -47.4609 C 91.6504 -47.4609 85.0098 -40.8203 85.0098 -33.0078 C 85.0098 -25.3906 91.6504 -18.75 99.3164 -18.75 Z"/>
  </g>
  <g id="Bold-L" transform="matrix(1 0 0 1 2239.56 1556)">
   <path d="M 37.5 3.27148 L 49.0723 3.27148 L 49.0723 12.4512 C 49.0723 26.2695 56.5918 33.7402 70.5566 33.7402 L 163.33 33.7402 C 177.246 33.7402 184.766 26.2695 184.766 12.4512 L 184.766 -52.2949 C 184.766 -66.1133 177.246 -73.6328 163.33 -73.6328 L 151.758 -73.6328 L 151.758 -82.8125 C 151.758 -96.582 144.189 -104.102 130.322 -104.102 L 37.5 -104.102 C 23.584 -104.102 16.0645 -96.6309 16.0645 -82.8125 L 16.0645 -18.0176 C 16.0645 -4.19922 23.584 3.27148 37.5 3.27148 Z M 38.9648 -11.1816 C 33.4473 -11.1816 30.5176 -13.916 30.5176 -19.6777 L 30.5176 -81.1523 C 30.5176 -86.9141 33.4473 -89.6484 38.9648 -89.6484 L 128.857 -89.6484 C 134.326 -89.6484 137.305 -86.9141 137.305 -81.1523 L 137.305 -73.6328 L 70.5566 -73.6328 C 56.5918 -73.6328 49.0723 -66.1621 49.0723 -52.2949 L 49.0723 -11.1816 Z M 63.5254 -50.6348 C 63.5254 -56.4453 66.4551 -59.1797 71.9727 -59.1797 L 161.865 -59.1797 C 167.334 -59.1797 170.312 -56.4453 170.312 -50.6348 L 170.312 -0.878906 L 147.559 -22.1191 C 145.02 -24.4629 141.992 -25.6836 138.77 -25.6836 C 135.547 -25.6836 132.617 -24.5117 129.932 -22.168 L 103.418 1.26953 L 92.8223 -8.30078 C 90.4297 -10.4492 87.7441 -11.5723 84.9121 -11.5723 C 82.2266 -11.5723 79.6875 -10.5469 77.2949 -8.34961 L 63.5254 3.90625 Z M 95.6055 -19.8242 C 103.467 -19.8242 110.01 -26.4648 110.01 -34.2285 C 110.01 -42.0898 103.467 -48.7305 95.6055 -48.7305 C 87.8418 -48.7305 81.25 -42.0898 81.25 -34.2285 C 81.25 -26.4648 87.8418 -19.8242 95.6055 -19.8242 Z"/>
  </g>
  <g id="Semibold-L" transform="matrix(1 0 0 1 1944.15 1556)">
   <path d="M 36.6211 2.58789 L 48.5352 2.58789 L 48.5352 11.8164 C 48.5352 25.1465 55.6641 32.2266 69.1406 32.2266 L 161.621 32.2266 C 175.049 32.2266 182.178 25.1465 182.178 11.8164 L 182.178 -52.5391 C 182.178 -65.8691 175.049 -72.9492 161.621 -72.9492 L 149.658 -72.9492 L 149.658 -82.1289 C 149.658 -95.459 142.529 -102.539 129.102 -102.539 L 36.6211 -102.539 C 23.1445 -102.539 16.0645 -95.5078 16.0645 -82.1289 L 16.0645 -17.7734 C 16.0645 -4.44336 23.1445 2.58789 36.6211 2.58789 Z M 37.5977 -9.7168 C 31.6406 -9.7168 28.418 -12.793 28.418 -18.9941 L 28.418 -80.9082 C 28.418 -87.1582 31.6406 -90.2344 37.5977 -90.2344 L 128.125 -90.2344 C 134.033 -90.2344 137.354 -87.1582 137.354 -80.9082 L 137.354 -72.9492 L 69.1406 -72.9492 C 55.6641 -72.9492 48.5352 -65.8691 48.5352 -52.5391 L 48.5352 -9.7168 Z M 60.8887 -51.3184 C 60.8887 -57.5684 64.1113 -60.5957 70.1172 -60.5957 L 160.645 -60.5957 C 166.504 -60.5957 169.824 -57.5684 169.824 -51.3184 L 169.824 -0.927734 L 146.68 -22.5586 C 144.043 -25 140.967 -26.2695 137.646 -26.2695 C 134.326 -26.2695 131.348 -25.0488 128.613 -22.6562 L 101.66 1.17188 L 90.9668 -8.54492 C 88.4277 -10.791 85.7422 -11.9629 82.8613 -11.9629 C 80.127 -11.9629 77.5879 -10.8398 75.1465 -8.59375 L 60.8887 4.00391 Z M 93.0664 -20.6055 C 100.977 -20.6055 107.52 -27.1973 107.52 -35.0586 C 107.52 -42.9688 100.977 -49.6094 93.0664 -49.6094 C 85.2051 -49.6094 78.6621 -42.9688 78.6621 -35.0586 C 78.6621 -27.1973 85.2051 -20.6055 93.0664 -20.6055 Z"/>
  </g>
  <g id="Medium-L" transform="matrix(1 0 0 1 1648.44 1556)">
   <path d="M 35.9375 2.09961 L 48.1445 2.09961 L 48.1445 11.3281 C 48.1445 24.3164 54.9316 31.0547 68.0176 31.0547 L 160.303 31.0547 C 173.34 31.0547 180.176 24.2676 180.176 11.3281 L 180.176 -52.7344 C 180.176 -65.625 173.34 -72.4121 160.303 -72.4121 L 148.096 -72.4121 L 148.096 -81.6895 C 148.096 -94.5801 141.26 -101.367 128.223 -101.367 L 35.9375 -101.367 C 22.8516 -101.367 16.0645 -94.6289 16.0645 -81.6895 L 16.0645 -17.627 C 16.0645 -4.63867 22.8516 2.09961 35.9375 2.09961 Z M 36.5723 -8.64258 C 30.2246 -8.64258 26.8066 -11.9141 26.8066 -18.5059 L 26.8066 -80.7617 C 26.8066 -87.3535 30.2246 -90.625 36.5723 -90.625 L 127.588 -90.625 C 133.838 -90.625 137.354 -87.3535 137.354 -80.7617 L 137.354 -72.4121 L 68.0176 -72.4121 C 54.9316 -72.4121 48.1445 -65.7227 48.1445 -52.7344 L 48.1445 -8.64258 Z M 58.8867 -51.8066 C 58.8867 -58.3984 62.3047 -61.7188 68.6523 -61.7188 L 159.668 -61.7188 C 165.918 -61.7188 169.434 -58.3984 169.434 -51.8066 L 169.434 -0.976562 L 145.996 -22.9004 C 143.311 -25.3906 140.137 -26.709 136.768 -26.709 C 133.398 -26.709 130.42 -25.4883 127.588 -22.998 L 100.342 1.07422 L 89.502 -8.69141 C 86.9629 -10.9863 84.2285 -12.207 81.2988 -12.207 C 78.5645 -12.207 76.0254 -11.084 73.4863 -8.78906 L 58.8867 4.10156 Z M 91.1621 -21.1914 C 99.0723 -21.1914 105.615 -27.7344 105.615 -35.6934 C 105.615 -43.6035 99.0723 -50.2441 91.1621 -50.2441 C 83.2031 -50.2441 76.6602 -43.6035 76.6602 -35.6934 C 76.6602 -27.7344 83.2031 -21.1914 91.1621 -21.1914 Z"/>
  </g>
  <g id="Regular-L" transform="matrix(1 0 0 1 1353.02 1556)">
   <path d="M 35.0586 1.46484 L 47.6074 1.46484 L 47.6074 10.6934 C 47.6074 23.1934 54.0039 29.541 66.6016 29.541 L 158.594 29.541 C 171.191 29.541 177.588 23.1445 177.588 10.6934 L 177.588 -52.9297 C 177.588 -65.3809 171.191 -71.7773 158.594 -71.7773 L 146.045 -71.7773 L 146.045 -81.0547 C 146.045 -93.457 139.648 -99.8535 127.051 -99.8535 L 35.0586 -99.8535 C 22.4121 -99.8535 16.0645 -93.5059 16.0645 -81.0547 L 16.0645 -17.3828 C 16.0645 -4.88281 22.4121 1.46484 35.0586 1.46484 Z M 35.2539 -7.17773 C 28.418 -7.17773 24.707 -10.791 24.707 -17.8223 L 24.707 -80.5664 C 24.707 -87.5977 28.418 -91.2109 35.2539 -91.2109 L 126.855 -91.2109 C 133.545 -91.2109 137.402 -87.5977 137.402 -80.5664 L 137.402 -71.7773 L 66.6016 -71.7773 C 54.0039 -71.7773 47.6074 -65.4297 47.6074 -52.9297 L 47.6074 -7.17773 Z M 56.25 -52.4902 C 56.25 -59.5215 59.9609 -63.1348 66.7969 -63.1348 L 158.447 -63.1348 C 165.088 -63.1348 168.945 -59.5215 168.945 -52.4902 L 168.945 -1.02539 L 145.117 -23.3887 C 142.334 -25.9277 139.111 -27.2461 135.645 -27.2461 C 132.178 -27.2461 129.199 -26.0254 126.27 -23.4375 L 98.584 0.927734 L 87.6465 -8.93555 C 85.0098 -11.3281 82.2754 -12.5488 79.2969 -12.5488 C 76.4648 -12.5488 73.9746 -11.377 71.3379 -9.0332 L 56.25 4.24805 Z M 88.6719 -21.9238 C 96.582 -21.9238 103.125 -28.4668 103.125 -36.5234 C 103.125 -44.4824 96.582 -51.123 88.6719 -51.123 C 80.6152 -51.123 74.0723 -44.4824 74.0723 -36.5234 C 74.0723 -28.4668 80.6152 -21.9238 88.6719 -21.9238 Z"/>
  </g>
  <g id="Light-L" transform="matrix(1 0 0 1 1057.48 1556)">
   <path d="M 34.0332 1.17188 L 47.2656 1.17188 L 47.2656 9.96094 C 47.2656 21.7285 53.3203 27.7832 65.2344 27.7832 L 157.275 27.7832 C 169.092 27.7832 175.244 21.6309 175.244 9.96094 L 175.244 -53.6133 C 175.244 -65.332 169.092 -71.4844 157.275 -71.4844 L 144.043 -71.4844 L 144.043 -80.2246 C 144.043 -91.8945 137.939 -98.0469 126.074 -98.0469 L 34.0332 -98.0469 C 22.168 -98.0469 16.0645 -91.9922 16.0645 -80.2246 L 16.0645 -16.6504 C 16.0645 -4.88281 22.168 1.17188 34.0332 1.17188 Z M 34.1797 -5.41992 C 26.709 -5.41992 22.7051 -9.375 22.7051 -16.9922 L 22.7051 -79.8828 C 22.7051 -87.5 26.709 -91.4551 34.1797 -91.4551 L 125.928 -91.4551 C 133.252 -91.4551 137.451 -87.5 137.451 -79.8828 L 137.451 -71.4844 L 65.2344 -71.4844 C 53.3203 -71.4844 47.2656 -65.4297 47.2656 -53.6133 L 47.2656 -5.41992 Z M 53.8574 -53.2715 C 53.8574 -60.8887 57.8613 -64.8438 65.3809 -64.8438 L 157.08 -64.8438 C 164.404 -64.8438 168.604 -60.8887 168.604 -53.2715 L 168.604 -0.0488281 L 143.408 -23.4375 C 140.576 -26.0254 137.402 -27.4414 133.838 -27.4414 C 130.273 -27.4414 127.393 -26.123 124.414 -23.5352 L 97.1191 0.341797 L 86.5234 -9.32617 C 83.8867 -11.7188 81.2988 -12.9395 78.2227 -12.9395 C 75.3418 -12.9395 72.998 -11.7188 70.3613 -9.42383 L 53.8574 5.37109 Z M 87.5 -22.1191 C 95.3125 -22.1191 101.758 -28.6133 101.758 -36.5723 C 101.758 -44.3848 95.3125 -50.9766 87.5 -50.9766 C 79.541 -50.9766 73.0957 -44.3848 73.0957 -36.5723 C 73.0957 -28.6133 79.541 -22.1191 87.5 -22.1191 Z"/>
  </g>
  <g id="Thin-L" transform="matrix(1 0 0 1 762.33 1556)">
   <path d="M 32.666 0.830078 L 46.7773 0.830078 L 46.7773 8.93555 C 46.7773 19.7754 52.4902 25.4883 63.3789 25.4883 L 155.518 25.4883 C 166.357 25.4883 172.119 19.6289 172.119 8.93555 L 172.119 -54.4922 C 172.119 -65.2344 166.357 -71.0938 155.518 -71.0938 L 141.406 -71.0938 L 141.406 -79.1504 C 141.406 -89.8438 135.693 -95.7031 124.805 -95.7031 L 32.666 -95.7031 C 21.7773 -95.7031 16.0645 -89.9902 16.0645 -79.1504 L 16.0645 -15.7227 C 16.0645 -4.88281 21.7773 0.830078 32.666 0.830078 Z M 32.8125 -3.07617 C 24.4141 -3.07617 19.9707 -7.4707 19.9707 -15.918 L 19.9707 -78.9551 C 19.9707 -87.4023 24.4141 -91.7969 32.8125 -91.7969 L 124.658 -91.7969 C 132.812 -91.7969 137.5 -87.4023 137.5 -78.9551 L 137.5 -71.0938 L 63.3789 -71.0938 C 52.4902 -71.0938 46.7773 -65.3809 46.7773 -54.4922 L 46.7773 -3.07617 Z M 50.6836 -54.2969 C 50.6836 -62.7441 55.0781 -67.1387 63.5254 -67.1387 L 155.322 -67.1387 C 163.477 -67.1387 168.164 -62.7441 168.164 -54.2969 L 168.164 1.17188 L 141.162 -23.4863 C 138.281 -26.1719 135.205 -27.6367 131.445 -27.6367 C 127.783 -27.6367 125 -26.2207 121.973 -23.584 L 95.166 -0.488281 L 84.9609 -9.81445 C 82.4219 -12.207 80.0293 -13.4766 76.8066 -13.4766 C 73.8281 -13.4766 71.6797 -12.207 69.0918 -9.91211 L 50.6836 6.98242 Z M 85.9375 -22.4121 C 93.6523 -22.4121 99.9512 -28.8086 99.9512 -36.6211 C 99.9512 -44.2871 93.6523 -50.7812 85.9375 -50.7812 C 78.125 -50.7812 71.8262 -44.2871 71.8262 -36.6211 C 71.8262 -28.8086 78.125 -22.4121 85.9375 -22.4121 Z"/>
  </g>
  <g id="Ultralight-L" transform="matrix(1 0 0 1 466.425 1556)">
   <path d="M 31.9824 0.683594 L 46.4844 0.683594 L 46.4844 8.39844 C 46.4844 18.75 52.0508 24.3164 62.4023 24.3164 L 154.59 24.3164 C 164.99 24.3164 170.508 18.6035 170.508 8.39844 L 170.508 -54.9316 C 170.508 -65.1855 164.99 -70.8984 154.59 -70.8984 L 140.039 -70.8984 L 140.039 -78.6133 C 140.039 -88.8184 134.521 -94.5312 124.17 -94.5312 L 31.9824 -94.5312 C 21.582 -94.5312 16.0645 -88.9648 16.0645 -78.6133 L 16.0645 -15.2344 C 16.0645 -4.88281 21.582 0.683594 31.9824 0.683594 Z M 32.1289 -1.85547 C 23.1934 -1.85547 18.6035 -6.49414 18.6035 -15.3809 L 18.6035 -78.4668 C 18.6035 -87.3535 23.1934 -91.9922 32.1289 -91.9922 L 123.975 -91.9922 C 132.568 -91.9922 137.5 -87.3535 137.5 -78.4668 L 137.5 -70.8984 L 62.4023 -70.8984 C 52.0508 -70.8984 46.4844 -65.332 46.4844 -54.9316 L 46.4844 -1.85547 Z M 49.0723 -54.834 C 49.0723 -63.7207 53.6621 -68.3105 62.5488 -68.3105 L 154.443 -68.3105 C 162.988 -68.3105 167.969 -63.7207 167.969 -54.834 L 167.969 1.75781 L 139.99 -23.5352 C 137.109 -26.2207 134.033 -27.7832 130.225 -27.7832 C 126.514 -27.7832 123.828 -26.2695 120.752 -23.6328 L 94.1406 -0.878906 L 84.2285 -10.0586 C 81.6406 -12.5 79.3457 -13.7695 76.123 -13.7695 C 73.0469 -13.7695 70.9961 -12.4512 68.4082 -10.1562 L 49.0723 7.8125 Z M 85.1562 -22.5586 C 92.7734 -22.5586 99.0234 -28.8574 99.0234 -36.6699 C 99.0234 -44.2383 92.7734 -50.6836 85.1562 -50.6836 C 77.3926 -50.6836 71.1426 -44.2383 71.1426 -36.6699 C 71.1426 -28.8574 77.3926 -22.5586 85.1562 -22.5586 Z"/>
  </g>
  <g id="Black-M" transform="matrix(1 0 0 1 2851.12 1126)">
   <path d="M 31.9824 -2.97852 L 39.9414 -2.97852 L 39.9414 3.75977 C 39.9414 16.0156 47.2168 23.291 59.4727 23.291 L 132.568 23.291 C 144.824 23.291 152.1 16.0156 152.1 3.75977 L 152.1 -47.9004 C 152.1 -60.1562 144.824 -67.4316 132.568 -67.4316 L 124.609 -67.4316 L 124.609 -74.1211 C 124.609 -86.377 117.334 -93.7012 105.078 -93.7012 L 31.9824 -93.7012 C 19.7266 -93.7012 12.4512 -86.377 12.4512 -74.1211 L 12.4512 -22.5098 C 12.4512 -10.2539 19.7266 -2.97852 31.9824 -2.97852 Z M 34.9121 -21.2402 C 32.0801 -21.2402 30.7617 -22.3145 30.7617 -25.3906 L 30.7617 -71.2402 C 30.7617 -74.3164 32.0801 -75.3906 34.9121 -75.3906 L 102.148 -75.3906 C 104.98 -75.3906 106.299 -74.3164 106.299 -71.2402 L 106.299 -67.4316 L 59.4727 -67.4316 C 47.2168 -67.4316 39.9414 -60.1562 39.9414 -47.9004 L 39.9414 -21.2402 Z M 58.2031 -44.9707 C 58.2031 -48.0469 59.5703 -49.1699 62.4023 -49.1699 L 129.639 -49.1699 C 132.471 -49.1699 133.789 -48.0469 133.789 -44.9707 L 133.789 -7.86133 L 116.943 -23.291 C 115.234 -24.8535 113.232 -25.6348 110.938 -25.6348 C 108.838 -25.6348 106.641 -24.8535 104.883 -23.291 L 86.1816 -6.78711 L 78.6621 -13.623 C 77.0508 -15.0391 75.1465 -15.7715 73.1934 -15.7715 C 71.2891 -15.7715 69.2383 -15.0879 67.7734 -13.6719 L 58.2031 -4.83398 Z M 83.3008 -20.459 C 89.1602 -20.459 94.2871 -25.6348 94.2871 -31.2012 C 94.2871 -37.1094 89.1602 -42.2363 83.3008 -42.2363 C 77.7344 -42.2363 72.5586 -37.1094 72.5586 -31.2012 C 72.5586 -25.6348 77.7344 -20.459 83.3008 -20.459 Z"/>
  </g>
  <g id="Heavy-M" transform="matrix(1 0 0 1 2555.98 1126)">
   <path d="M 31.0059 -3.80859 L 39.2578 -3.80859 L 39.2578 3.07617 C 39.2578 14.7949 46.0449 21.5332 57.8125 21.5332 L 130.469 21.5332 C 142.236 21.5332 148.975 14.7949 148.975 3.07617 L 148.975 -48.0469 C 148.975 -59.8145 142.236 -66.5527 130.469 -66.5527 L 122.168 -66.5527 L 122.168 -73.4375 C 122.168 -85.2051 115.381 -91.9434 103.613 -91.9434 L 31.0059 -91.9434 C 19.1895 -91.9434 12.4512 -85.2051 12.4512 -73.4375 L 12.4512 -22.3145 C 12.4512 -10.5957 19.1895 -3.80859 31.0059 -3.80859 Z M 33.252 -19.6777 C 29.9316 -19.6777 28.2715 -21.0938 28.2715 -24.6582 L 28.2715 -71.0938 C 28.2715 -74.6582 29.9316 -76.123 33.252 -76.123 L 101.367 -76.123 C 104.688 -76.123 106.348 -74.6582 106.348 -71.0938 L 106.348 -66.5527 L 57.8125 -66.5527 C 46.0449 -66.5527 39.2578 -59.8145 39.2578 -48.0469 L 39.2578 -19.6777 Z M 55.0781 -45.752 C 55.0781 -49.2676 56.7383 -50.7324 60.0586 -50.7324 L 128.174 -50.7324 C 131.494 -50.7324 133.154 -49.2676 133.154 -45.752 L 133.154 -8.20312 L 116.113 -23.9258 C 114.307 -25.5859 112.207 -26.416 109.814 -26.416 C 107.568 -26.416 105.371 -25.5859 103.467 -23.9258 L 84.082 -6.78711 L 76.2695 -13.8672 C 74.5605 -15.3809 72.6074 -16.1621 70.5566 -16.1621 C 68.6035 -16.1621 66.5527 -15.4297 64.9414 -13.916 L 55.0781 -4.93164 Z M 80.0293 -21.4844 C 85.9375 -21.4844 91.0645 -26.6602 91.0645 -32.373 C 91.0645 -38.3789 85.9375 -43.5059 80.0293 -43.5059 C 74.2676 -43.5059 69.0918 -38.3789 69.0918 -32.373 C 69.0918 -26.6602 74.2676 -21.4844 80.0293 -21.4844 Z"/>
  </g>
  <g id="Bold-M" transform="matrix(1 0 0 1 2261 1126)">
   <path d="M 29.8828 -4.78516 L 38.5254 -4.78516 L 38.5254 2.29492 C 38.5254 13.4277 44.7266 19.6289 55.957 19.6289 L 128.125 19.6289 C 139.307 19.6289 145.508 13.4277 145.508 2.29492 L 145.508 -48.2422 C 145.508 -59.4238 139.307 -65.5762 128.125 -65.5762 L 119.482 -65.5762 L 119.482 -72.6562 C 119.482 -83.8379 113.232 -89.9902 102.051 -89.9902 L 29.8828 -89.9902 C 18.6523 -89.9902 12.4512 -83.8379 12.4512 -72.6562 L 12.4512 -22.1191 C 12.4512 -10.9863 18.6523 -4.78516 29.8828 -4.78516 Z M 31.3965 -17.8711 C 27.5391 -17.8711 25.5371 -19.7266 25.5371 -23.8281 L 25.5371 -70.9961 C 25.5371 -75.0488 27.5391 -76.9043 31.3965 -76.9043 L 100.488 -76.9043 C 104.346 -76.9043 106.396 -75.0488 106.396 -70.9961 L 106.396 -65.5762 L 55.957 -65.5762 C 44.7266 -65.5762 38.5254 -59.4238 38.5254 -48.2422 L 38.5254 -17.8711 Z M 51.6113 -46.582 C 51.6113 -50.6348 53.6133 -52.4902 57.4707 -52.4902 L 126.562 -52.4902 C 130.42 -52.4902 132.471 -50.6348 132.471 -46.582 L 132.471 -8.59375 L 115.186 -24.6582 C 113.281 -26.416 110.986 -27.2949 108.545 -27.2949 C 106.152 -27.2949 103.906 -26.416 101.904 -24.707 L 81.6895 -6.83594 L 73.6328 -14.1113 C 71.7773 -15.7715 69.7266 -16.6016 67.627 -16.6016 C 65.625 -16.6016 63.5742 -15.8203 61.8164 -14.209 L 51.6113 -5.0293 Z M 76.3672 -22.6562 C 82.373 -22.6562 87.5 -27.7832 87.5 -33.7402 C 87.5 -39.7949 82.373 -44.9219 76.3672 -44.9219 C 70.4102 -44.9219 65.2832 -39.7949 65.2832 -33.7402 C 65.2832 -27.7832 70.4102 -22.6562 76.3672 -22.6562 Z"/>
  </g>
  <g id="Semibold-M" transform="matrix(1 0 0 1 1965.46 1126)">
   <path d="M 29.1016 -5.46875 L 37.9883 -5.46875 L 37.9883 1.75781 C 37.9883 12.5 43.7988 18.2617 54.6875 18.2617 L 126.465 18.2617 C 137.305 18.2617 143.164 12.5 143.164 1.75781 L 143.164 -48.3887 C 143.164 -59.1309 137.305 -64.8926 126.465 -64.8926 L 117.578 -64.8926 L 117.578 -72.1191 C 117.578 -82.8613 111.768 -88.6719 100.928 -88.6719 L 29.1016 -88.6719 C 18.2617 -88.6719 12.4512 -82.9102 12.4512 -72.1191 L 12.4512 -22.0215 C 12.4512 -11.2305 18.2617 -5.46875 29.1016 -5.46875 Z M 30.127 -16.6504 C 25.8789 -16.6504 23.6328 -18.7988 23.6328 -23.2422 L 23.6328 -70.8984 C 23.6328 -75.3418 25.8789 -77.4902 30.127 -77.4902 L 99.9023 -77.4902 C 104.102 -77.4902 106.396 -75.3418 106.396 -70.8984 L 106.396 -64.8926 L 54.6875 -64.8926 C 43.7988 -64.8926 37.9883 -59.1309 37.9883 -48.3887 L 37.9883 -16.6504 Z M 49.1699 -47.168 C 49.1699 -51.6113 51.4648 -53.7109 55.6641 -53.7109 L 125.488 -53.7109 C 129.639 -53.7109 131.982 -51.6113 131.982 -47.168 L 131.982 -8.83789 L 114.551 -25.1465 C 112.549 -27.002 110.205 -27.9297 107.666 -27.9297 C 105.176 -27.9297 102.881 -27.002 100.781 -25.1953 L 80.0781 -6.83594 L 71.7773 -14.3066 C 69.873 -16.0156 67.7734 -16.8945 65.5762 -16.8945 C 63.5254 -16.8945 61.5234 -16.0645 59.6191 -14.4043 L 49.1699 -5.12695 Z M 73.8281 -23.4375 C 79.8828 -23.4375 85.0098 -28.5645 85.0098 -34.6191 C 85.0098 -40.7715 79.8828 -45.8984 73.8281 -45.8984 C 67.7246 -45.8984 62.5977 -40.7715 62.5977 -34.6191 C 62.5977 -28.5645 67.7246 -23.4375 73.8281 -23.4375 Z"/>
  </g>
  <g id="Medium-M" transform="matrix(1 0 0 1 1669.65 1126)">
   <path d="M 28.5156 -6.00586 L 37.5977 -6.00586 L 37.5977 1.36719 C 37.5977 11.8164 43.1152 17.2852 53.7109 17.2852 L 125.244 17.2852 C 135.791 17.2852 141.357 11.8164 141.357 1.36719 L 141.357 -48.4863 C 141.357 -58.9355 135.791 -64.4043 125.244 -64.4043 L 116.162 -64.4043 L 116.162 -71.7285 C 116.162 -82.1777 110.645 -87.6465 100.098 -87.6465 L 28.5156 -87.6465 C 17.9199 -87.6465 12.4512 -82.1777 12.4512 -71.7285 L 12.4512 -21.9238 C 12.4512 -11.4258 17.9199 -6.00586 28.5156 -6.00586 Z M 29.1504 -15.7227 C 24.6582 -15.7227 22.168 -18.0664 22.168 -22.8027 L 22.168 -70.8496 C 22.168 -75.5859 24.6582 -77.8809 29.1504 -77.8809 L 99.4629 -77.8809 C 103.906 -77.8809 106.445 -75.5859 106.445 -70.8496 L 106.445 -64.4043 L 53.7109 -64.4043 C 43.1152 -64.4043 37.5977 -58.9355 37.5977 -48.4863 L 37.5977 -15.7227 Z M 47.3633 -47.6074 C 47.3633 -52.2949 49.8047 -54.6387 54.3457 -54.6387 L 124.609 -54.6387 C 129.102 -54.6387 131.592 -52.2949 131.592 -47.6074 L 131.592 -9.0332 L 114.062 -25.5371 C 112.012 -27.3926 109.57 -28.3691 107.031 -28.3691 C 104.443 -28.3691 102.148 -27.4414 100 -25.5859 L 78.8574 -6.83594 L 70.4102 -14.4531 C 68.4082 -16.2109 66.2598 -17.1387 64.0625 -17.1387 C 61.9629 -17.1387 59.9609 -16.2598 58.0078 -14.5508 L 47.3633 -5.17578 Z M 71.875 -24.0234 C 78.0273 -24.0234 83.1543 -29.1504 83.1543 -35.3027 C 83.1543 -41.5039 78.0273 -46.6309 71.875 -46.6309 C 65.7227 -46.6309 60.5957 -41.5039 60.5957 -35.3027 C 60.5957 -29.1504 65.7227 -24.0234 71.875 -24.0234 Z"/>
  </g>
  <g id="Regular-M" transform="matrix(1 0 0 1 1374.14 1126)">
   <path d="M 27.7832 -6.64062 L 37.1094 -6.64062 L 37.1094 0.830078 C 37.1094 10.8887 42.1875 15.9668 52.4414 15.9668 L 123.682 15.9668 C 133.838 15.9668 138.965 10.8887 138.965 0.830078 L 138.965 -48.584 C 138.965 -58.6426 133.838 -63.7207 123.682 -63.7207 L 114.307 -63.7207 L 114.307 -71.1914 C 114.307 -81.25 109.18 -86.3281 99.0234 -86.3281 L 27.7832 -86.3281 C 17.5293 -86.3281 12.4512 -81.25 12.4512 -71.1914 L 12.4512 -21.7773 C 12.4512 -11.7188 17.5293 -6.64062 27.7832 -6.64062 Z M 27.8809 -14.502 C 22.998 -14.502 20.3125 -17.1387 20.3125 -22.2168 L 20.3125 -70.752 C 20.3125 -75.8301 22.998 -78.4668 27.8809 -78.4668 L 98.877 -78.4668 C 103.711 -78.4668 106.445 -75.8301 106.445 -70.752 L 106.445 -63.7207 L 52.4414 -63.7207 C 42.1875 -63.7207 37.1094 -58.6914 37.1094 -48.584 L 37.1094 -14.502 Z M 44.9707 -48.1445 C 44.9707 -53.2227 47.6562 -55.8594 52.5391 -55.8594 L 123.535 -55.8594 C 128.369 -55.8594 131.104 -53.2227 131.104 -48.1445 L 131.104 -9.27734 L 113.428 -26.0254 C 111.328 -27.9785 108.74 -28.9551 106.152 -28.9551 C 103.516 -28.9551 101.123 -28.0273 98.9258 -26.0742 L 77.2461 -6.83594 L 68.5547 -14.6484 C 66.5527 -16.4551 64.3555 -17.4316 62.0605 -17.4316 C 59.9121 -17.4316 57.9102 -16.5039 55.8594 -14.6973 L 44.9707 -5.27344 Z M 69.3848 -24.8047 C 75.5859 -24.8047 80.7129 -29.9316 80.7129 -36.2305 C 80.7129 -42.4316 75.5859 -47.6074 69.3848 -47.6074 C 63.0859 -47.6074 57.959 -42.4316 57.959 -36.2305 C 57.959 -29.9316 63.0859 -24.8047 69.3848 -24.8047 Z"/>
  </g>
  <g id="Light-M" transform="matrix(1 0 0 1 1078.48 1126)">
   <path d="M 26.8555 -6.88477 L 36.7676 -6.88477 L 36.7676 0.0976562 C 36.7676 9.57031 41.6016 14.4043 51.1719 14.4043 L 122.461 14.4043 C 131.982 14.4043 136.865 9.52148 136.865 0.0976562 L 136.865 -49.1699 C 136.865 -58.5938 131.982 -63.4277 122.461 -63.4277 L 112.549 -63.4277 L 112.549 -70.459 C 112.549 -79.834 107.666 -84.7168 98.1445 -84.7168 L 26.8555 -84.7168 C 17.2852 -84.7168 12.4512 -79.9316 12.4512 -70.459 L 12.4512 -21.1426 C 12.4512 -11.7188 17.2852 -6.88477 26.8555 -6.88477 Z M 26.9531 -12.9395 C 21.4844 -12.9395 18.5059 -15.8203 18.5059 -21.4844 L 18.5059 -70.1172 C 18.5059 -75.7812 21.4844 -78.6621 26.9531 -78.6621 L 97.998 -78.6621 C 103.418 -78.6621 106.494 -75.7812 106.494 -70.1172 L 106.494 -63.4277 L 51.1719 -63.4277 C 41.6016 -63.4277 36.7676 -58.6426 36.7676 -49.1699 L 36.7676 -12.9395 Z M 42.8223 -48.877 C 42.8223 -54.4922 45.8008 -57.4219 51.3184 -57.4219 L 122.363 -57.4219 C 127.734 -57.4219 130.811 -54.4922 130.811 -48.877 L 130.811 -8.39844 L 111.914 -26.0742 C 109.766 -28.0762 107.227 -29.1016 104.541 -29.1016 C 101.807 -29.1016 99.5117 -28.125 97.2656 -26.123 L 75.9277 -7.42188 L 67.5293 -14.9902 C 65.5273 -16.8457 63.4766 -17.7734 61.084 -17.7734 C 58.8867 -17.7734 57.0312 -16.8457 54.9805 -15.0391 L 42.8223 -4.24805 Z M 68.3105 -25 C 74.4629 -25 79.4434 -30.0293 79.4434 -36.2793 C 79.4434 -42.3828 74.4629 -47.4609 68.3105 -47.4609 C 62.1094 -47.4609 57.0801 -42.3828 57.0801 -36.2793 C 57.0801 -30.0293 62.1094 -25 68.3105 -25 Z"/>
  </g>
  <g id="Thin-M" transform="matrix(1 0 0 1 783.18 1126)">
   <path d="M 25.6348 -7.17773 L 36.3281 -7.17773 L 36.3281 -0.78125 C 36.3281 7.8125 40.8691 12.3047 49.5117 12.3047 L 120.898 12.3047 C 129.541 12.3047 134.033 7.71484 134.033 -0.78125 L 134.033 -49.9512 C 134.033 -58.4961 129.541 -63.0859 120.898 -63.0859 L 110.156 -63.0859 L 110.156 -69.4824 C 110.156 -78.0273 105.664 -82.6172 97.0215 -82.6172 L 25.6348 -82.6172 C 16.9922 -82.6172 12.4512 -78.125 12.4512 -69.4824 L 12.4512 -20.3125 C 12.4512 -11.7188 16.9922 -7.17773 25.6348 -7.17773 Z M 25.7324 -10.8398 C 19.3848 -10.8398 16.0645 -14.1113 16.0645 -20.5078 L 16.0645 -69.2871 C 16.0645 -75.6836 19.3848 -79.0039 25.7324 -79.0039 L 96.875 -79.0039 C 103.027 -79.0039 106.543 -75.6836 106.543 -69.2871 L 106.543 -63.0859 L 49.5117 -63.0859 C 40.8691 -63.0859 36.3281 -58.5938 36.3281 -49.9512 L 36.3281 -10.8398 Z M 39.9902 -49.8047 C 39.9902 -56.1523 43.3105 -59.4727 49.6094 -59.4727 L 120.752 -59.4727 C 126.904 -59.4727 130.42 -56.1523 130.42 -49.8047 L 130.42 -7.27539 L 109.863 -26.123 C 107.666 -28.1738 105.273 -29.2969 102.393 -29.2969 C 99.5605 -29.2969 97.4121 -28.2227 95.0684 -26.1719 L 74.1699 -8.10547 L 66.2109 -15.4297 C 64.209 -17.2852 62.3047 -18.2617 59.8633 -18.2617 C 57.5195 -18.2617 55.8105 -17.2852 53.8086 -15.4785 L 39.9902 -2.88086 Z M 66.9434 -25.2441 C 72.9492 -25.2441 77.832 -30.2246 77.832 -36.2793 C 77.832 -42.2852 72.9492 -47.3145 66.9434 -47.3145 C 60.8398 -47.3145 55.957 -42.2852 55.957 -36.2793 C 55.957 -30.2246 60.8398 -25.2441 66.9434 -25.2441 Z"/>
  </g>
  <g id="Ultralight-M" transform="matrix(1 0 0 1 487.177 1126)">
   <path d="M 25 -7.37305 L 36.1328 -7.37305 L 36.1328 -1.26953 C 36.1328 6.93359 40.4785 11.2793 48.6328 11.2793 L 120.068 11.2793 C 128.271 11.2793 132.617 6.78711 132.617 -1.26953 L 132.617 -50.3906 C 132.617 -58.4473 128.271 -62.9395 120.068 -62.9395 L 108.936 -62.9395 L 108.936 -68.9941 C 108.936 -77.0508 104.59 -81.543 96.4355 -81.543 L 25 -81.543 C 16.7969 -81.543 12.4512 -77.1973 12.4512 -68.9941 L 12.4512 -19.873 C 12.4512 -11.7188 16.7969 -7.37305 25 -7.37305 Z M 25.0977 -9.76562 C 18.3594 -9.76562 14.8438 -13.2324 14.8438 -20.0195 L 14.8438 -68.8965 C 14.8438 -75.6348 18.3594 -79.1504 25.0977 -79.1504 L 96.2891 -79.1504 C 102.783 -79.1504 106.543 -75.6348 106.543 -68.8965 L 106.543 -62.9395 L 48.6328 -62.9395 C 40.4785 -62.9395 36.1328 -58.5449 36.1328 -50.3906 L 36.1328 -9.76562 Z M 38.5254 -50.2441 C 38.5254 -57.0312 41.9922 -60.5469 48.7793 -60.5469 L 119.971 -60.5469 C 126.465 -60.5469 130.225 -57.0312 130.225 -50.2441 L 130.225 -6.73828 L 108.838 -26.1719 C 106.592 -28.2227 104.248 -29.3945 101.318 -29.3945 C 98.4375 -29.3945 96.2891 -28.2715 93.9453 -26.2207 L 73.291 -8.49609 L 65.4785 -15.625 C 63.5254 -17.5293 61.7188 -18.5059 59.2285 -18.5059 C 56.8359 -18.5059 55.2246 -17.5293 53.2227 -15.7227 L 38.5254 -2.09961 Z M 66.2598 -25.3418 C 72.168 -25.3418 77.002 -30.2734 77.002 -36.3281 C 77.002 -42.2363 72.168 -47.2168 66.2598 -47.2168 C 60.2051 -47.2168 55.3223 -42.2363 55.3223 -36.3281 C 55.3223 -30.2734 60.2051 -25.3418 66.2598 -25.3418 Z"/>
  </g>
  <g id="Black-S" transform="matrix(1 0 0 1 2869.04 696)">
   <path d="M 25 -10.0098 L 31.25 -10.0098 L 31.25 -4.73633 C 31.25 4.83398 36.9141 10.498 46.4844 10.498 L 103.711 10.498 C 113.281 10.498 118.945 4.83398 118.945 -4.73633 L 118.945 -45.166 C 118.945 -54.7363 113.281 -60.4004 103.711 -60.4004 L 97.4609 -60.4004 L 97.4609 -65.6738 C 97.4609 -75.2441 91.7969 -80.9082 82.2266 -80.9082 L 25 -80.9082 C 15.4297 -80.9082 9.76562 -75.2441 9.76562 -65.6738 L 9.76562 -25.2441 C 9.76562 -15.6738 15.4297 -10.0098 25 -10.0098 Z M 27.2461 -24.1699 C 25 -24.1699 23.9258 -25.0488 23.9258 -27.4902 L 23.9258 -63.4277 C 23.9258 -65.8691 25 -66.748 27.2461 -66.748 L 79.9805 -66.748 C 82.2266 -66.748 83.3008 -65.8691 83.3008 -63.4277 L 83.3008 -60.4004 L 46.4844 -60.4004 C 36.9141 -60.4004 31.25 -54.7363 31.25 -45.166 L 31.25 -24.1699 Z M 45.4102 -42.9199 C 45.4102 -45.3613 46.4844 -46.2402 48.7305 -46.2402 L 101.465 -46.2402 C 103.711 -46.2402 104.785 -45.3613 104.785 -42.9199 L 104.785 -13.8184 L 91.6016 -25.9277 C 90.2344 -27.1484 88.6719 -27.7832 86.8652 -27.7832 C 85.2051 -27.7832 83.4961 -27.1484 82.0801 -25.9277 L 67.3828 -12.9395 L 61.4746 -18.3105 C 60.2051 -19.4336 58.6914 -20.0195 57.1777 -20.0195 C 55.6641 -20.0195 54.0527 -19.4824 52.8809 -18.3594 L 45.4102 -11.4258 Z M 65.0391 -23.7305 C 69.6289 -23.7305 73.6328 -27.7832 73.6328 -32.1777 C 73.6328 -36.8164 69.6289 -40.8203 65.0391 -40.8203 C 60.6445 -40.8203 56.5918 -36.8164 56.5918 -32.1777 C 56.5918 -27.7832 60.6445 -23.7305 65.0391 -23.7305 Z"/>
  </g>
  <g id="Heavy-S" transform="matrix(1 0 0 1 2573.41 696)">
   <path d="M 24.3652 -10.6445 L 30.7617 -10.6445 L 30.7617 -5.17578 C 30.7617 4.05273 36.084 9.32617 45.3613 9.32617 L 102.246 9.32617 C 111.523 9.32617 116.797 4.05273 116.797 -5.17578 L 116.797 -45.2148 C 116.797 -54.4922 111.523 -59.7656 102.246 -59.7656 L 95.8008 -59.7656 L 95.8008 -65.2344 C 95.8008 -74.4629 90.4785 -79.7363 81.25 -79.7363 L 24.3652 -79.7363 C 15.0391 -79.7363 9.76562 -74.4629 9.76562 -65.2344 L 9.76562 -25.1953 C 9.76562 -15.918 15.0391 -10.6445 24.3652 -10.6445 Z M 26.0742 -23.1445 C 23.5352 -23.1445 22.2656 -24.2676 22.2656 -27.002 L 22.2656 -63.4277 C 22.2656 -66.1621 23.5352 -67.2852 26.0742 -67.2852 L 79.4922 -67.2852 C 82.0312 -67.2852 83.3008 -66.1621 83.3008 -63.4277 L 83.3008 -59.7656 L 45.3613 -59.7656 C 36.084 -59.7656 30.7617 -54.4922 30.7617 -45.2148 L 30.7617 -23.1445 Z M 43.2617 -43.4082 C 43.2617 -46.1426 44.5312 -47.2656 47.0703 -47.2656 L 100.488 -47.2656 C 103.027 -47.2656 104.346 -46.1426 104.346 -43.4082 L 104.346 -14.1602 L 91.1133 -26.416 C 89.6973 -27.6855 88.0371 -28.3691 86.1816 -28.3691 C 84.4238 -28.3691 82.666 -27.7344 81.2012 -26.416 L 65.918 -12.8906 L 59.7656 -18.457 C 58.3984 -19.6777 56.8359 -20.2637 55.2734 -20.2637 C 53.7109 -20.2637 52.0996 -19.6777 50.8301 -18.5059 L 43.2617 -11.6211 Z M 62.6465 -24.5117 C 67.2852 -24.5117 71.3379 -28.5645 71.3379 -33.0566 C 71.3379 -37.793 67.2852 -41.7969 62.6465 -41.7969 C 58.1055 -41.7969 54.0527 -37.793 54.0527 -33.0566 C 54.0527 -28.5645 58.1055 -24.5117 62.6465 -24.5117 Z"/>
  </g>
  <g id="Bold-S" transform="matrix(1 0 0 1 2277.87 696)">
   <path d="M 23.6328 -11.377 L 30.2246 -11.377 L 30.2246 -5.71289 C 30.2246 3.17383 35.1562 8.05664 44.0918 8.05664 L 100.586 8.05664 C 109.521 8.05664 114.453 3.17383 114.453 -5.71289 L 114.453 -45.2637 C 114.453 -54.1504 109.521 -59.0332 100.586 -59.0332 L 93.9453 -59.0332 L 93.9453 -64.6973 C 93.9453 -73.584 89.0625 -78.4668 80.127 -78.4668 L 23.6328 -78.4668 C 14.6484 -78.4668 9.76562 -73.584 9.76562 -64.6973 L 9.76562 -25.1465 C 9.76562 -16.2598 14.6484 -11.377 23.6328 -11.377 Z M 24.8047 -21.9727 C 21.9238 -21.9727 20.3613 -23.3398 20.3613 -26.416 L 20.3613 -63.4277 C 20.3613 -66.4551 21.9238 -67.8711 24.8047 -67.8711 L 78.9551 -67.8711 C 81.8359 -67.8711 83.3496 -66.4551 83.3496 -63.4277 L 83.3496 -59.0332 L 44.0918 -59.0332 C 35.1562 -59.0332 30.2246 -54.1504 30.2246 -45.2637 L 30.2246 -21.9727 Z M 40.8691 -43.9941 C 40.8691 -47.0703 42.3828 -48.4375 45.2637 -48.4375 L 99.4141 -48.4375 C 102.295 -48.4375 103.857 -47.0703 103.857 -43.9941 L 103.857 -14.5996 L 90.625 -26.9531 C 89.1113 -28.3203 87.3047 -29.0039 85.4004 -29.0039 C 83.5449 -29.0039 81.7383 -28.3691 80.1758 -27.002 L 64.2578 -12.8418 L 57.8613 -18.6523 C 56.3965 -19.9219 54.7852 -20.5566 53.125 -20.5566 C 51.5625 -20.5566 49.9512 -19.9707 48.5352 -18.7012 L 40.8691 -11.8164 Z M 59.9609 -25.3418 C 64.6973 -25.3418 68.75 -29.3945 68.75 -34.082 C 68.75 -38.8672 64.6973 -42.9199 59.9609 -42.9199 C 55.2734 -42.9199 51.2207 -38.8672 51.2207 -34.082 C 51.2207 -29.3945 55.2734 -25.3418 59.9609 -25.3418 Z"/>
  </g>
  <g id="Semibold-S" transform="matrix(1 0 0 1 1981.99 696)">
   <path d="M 23.0957 -11.8652 L 29.8828 -11.8652 L 29.8828 -6.05469 C 29.8828 2.58789 34.4727 7.17773 43.2129 7.17773 L 99.4629 7.17773 C 108.154 7.17773 112.793 2.58789 112.793 -6.05469 L 112.793 -45.3125 C 112.793 -53.9551 108.154 -58.5449 99.4629 -58.5449 L 92.6758 -58.5449 L 92.6758 -64.3555 C 92.6758 -72.998 88.0371 -77.5879 79.3457 -77.5879 L 23.0957 -77.5879 C 14.3555 -77.5879 9.76562 -72.998 9.76562 -64.3555 L 9.76562 -25.0977 C 9.76562 -16.4551 14.3555 -11.8652 23.0957 -11.8652 Z M 23.877 -21.1914 C 20.752 -21.1914 19.0918 -22.7539 19.0918 -26.0254 L 19.0918 -63.3789 C 19.0918 -66.6992 20.752 -68.2617 23.877 -68.2617 L 78.5645 -68.2617 C 81.6406 -68.2617 83.3496 -66.6992 83.3496 -63.3789 L 83.3496 -58.5449 L 43.2129 -58.5449 C 34.4727 -58.5449 29.8828 -53.9551 29.8828 -45.3125 L 29.8828 -21.1914 Z M 39.209 -44.3359 C 39.209 -47.6562 40.8691 -49.2188 43.9941 -49.2188 L 98.6816 -49.2188 C 101.758 -49.2188 103.467 -47.6562 103.467 -44.3359 L 103.467 -14.8438 L 90.2344 -27.3438 C 88.7207 -28.7598 86.8164 -29.4434 84.9121 -29.4434 C 82.959 -29.4434 81.1523 -28.8086 79.4922 -27.3438 L 63.1348 -12.793 L 56.543 -18.75 C 55.0293 -20.0684 53.3203 -20.752 51.6602 -20.752 C 50.0488 -20.752 48.4375 -20.1172 46.9727 -18.7988 L 39.209 -11.9629 Z M 58.1055 -25.9277 C 62.8906 -25.9277 66.9434 -29.9805 66.9434 -34.7656 C 66.9434 -39.5996 62.8906 -43.6523 58.1055 -43.6523 C 53.3203 -43.6523 49.2676 -39.5996 49.2676 -34.7656 C 49.2676 -29.9805 53.3203 -25.9277 58.1055 -25.9277 Z"/>
  </g>
  <g id="Medium-S" transform="matrix(1 0 0 1 1685.89 696)">
   <path d="M 22.7051 -12.2559 L 29.5898 -12.2559 L 29.5898 -6.29883 C 29.5898 2.14844 33.9844 6.49414 42.5781 6.49414 L 98.584 6.49414 C 107.129 6.49414 111.572 2.14844 111.572 -6.29883 L 111.572 -45.3613 C 111.572 -53.8086 107.129 -58.1543 98.584 -58.1543 L 91.6992 -58.1543 L 91.6992 -64.1113 C 91.6992 -72.5586 87.2559 -76.9043 78.7598 -76.9043 L 22.7051 -76.9043 C 14.1602 -76.9043 9.76562 -72.5586 9.76562 -64.1113 L 9.76562 -25.0488 C 9.76562 -16.6016 14.1602 -12.2559 22.7051 -12.2559 Z M 23.1934 -20.5566 C 19.9219 -20.5566 18.0664 -22.2656 18.0664 -25.7324 L 18.0664 -63.3789 C 18.0664 -66.8457 19.9219 -68.6035 23.1934 -68.6035 L 78.2715 -68.6035 C 81.543 -68.6035 83.3984 -66.8457 83.3984 -63.3789 L 83.3984 -58.1543 L 42.5781 -58.1543 C 33.9844 -58.1543 29.5898 -53.8086 29.5898 -45.3613 L 29.5898 -20.5566 Z M 37.9395 -44.6289 C 37.9395 -48.1445 39.7461 -49.8535 43.0664 -49.8535 L 98.0957 -49.8535 C 101.367 -49.8535 103.223 -48.1445 103.223 -44.6289 L 103.223 -15.0879 L 89.9902 -27.6367 C 88.3789 -29.1016 86.4258 -29.7852 84.4727 -29.7852 C 82.5195 -29.7852 80.6641 -29.1016 79.0039 -27.6367 L 62.3047 -12.793 L 55.5176 -18.8477 C 54.0039 -20.2148 52.2461 -20.8984 50.5371 -20.8984 C 48.9258 -20.8984 47.3145 -20.2637 45.752 -18.8965 L 37.9395 -12.0605 Z M 56.6895 -26.416 C 61.5723 -26.416 65.5762 -30.4199 65.5762 -35.3027 C 65.5762 -40.1855 61.5723 -44.2383 56.6895 -44.2383 C 51.8555 -44.2383 47.8027 -40.1855 47.8027 -35.3027 C 47.8027 -30.4199 51.8555 -26.416 56.6895 -26.416 Z"/>
  </g>
  <g id="Regular-S" transform="matrix(1 0 0 1 1390.01 696)">
   <path d="M 22.2168 -12.7441 L 29.248 -12.7441 L 29.248 -6.64062 C 29.248 1.5625 33.3496 5.61523 41.6992 5.61523 L 97.4609 5.61523 C 105.762 5.61523 109.912 1.5625 109.912 -6.64062 L 109.912 -45.4102 C 109.912 -53.6133 105.762 -57.666 97.4609 -57.666 L 90.4297 -57.666 L 90.4297 -63.7695 C 90.4297 -71.9727 86.2793 -76.0254 77.9785 -76.0254 L 22.2168 -76.0254 C 13.8672 -76.0254 9.76562 -71.9727 9.76562 -63.7695 L 9.76562 -25 C 9.76562 -16.7969 13.8672 -12.7441 22.2168 -12.7441 Z M 22.3145 -19.7754 C 18.7988 -19.7754 16.7969 -21.6797 16.7969 -25.3906 L 16.7969 -63.3789 C 16.7969 -67.0898 18.7988 -68.9941 22.3145 -68.9941 L 77.8809 -68.9941 C 81.3965 -68.9941 83.3984 -67.0898 83.3984 -63.3789 L 83.3984 -57.666 L 41.6992 -57.666 C 33.3496 -57.666 29.248 -53.6133 29.248 -45.4102 L 29.248 -19.7754 Z M 36.2793 -45.0195 C 36.2793 -48.7305 38.2812 -50.6348 41.7969 -50.6348 L 97.3633 -50.6348 C 100.879 -50.6348 102.881 -48.7305 102.881 -45.0195 L 102.881 -15.332 L 89.5996 -27.9785 C 87.9883 -29.4922 85.9375 -30.2246 83.9844 -30.2246 C 81.9336 -30.2246 80.0293 -29.541 78.3203 -28.0273 L 61.1816 -12.7441 L 54.248 -18.9453 C 52.6367 -20.3613 50.8301 -21.0938 49.0723 -21.0938 C 47.4609 -21.0938 45.8008 -20.4102 44.1895 -18.9941 L 36.2793 -12.207 Z M 54.8828 -27.002 C 59.7656 -27.002 63.8184 -31.0059 63.8184 -35.9863 C 63.8184 -40.918 59.7656 -45.0195 54.8828 -45.0195 C 49.9023 -45.0195 45.8496 -40.918 45.8496 -35.9863 C 45.8496 -31.0059 49.9023 -27.002 54.8828 -27.002 Z"/>
  </g>
  <g id="Light-S" transform="matrix(1 0 0 1 1094.22 696)">
   <path d="M 21.3867 -12.9395 L 28.9551 -12.9395 L 28.9551 -7.27539 C 28.9551 0.390625 32.8613 4.24805 40.5762 4.24805 L 96.4355 4.24805 C 104.102 4.24805 108.057 0.341797 108.057 -7.27539 L 108.057 -45.9473 C 108.057 -53.5645 104.102 -57.4219 96.4355 -57.4219 L 88.8672 -57.4219 L 88.8672 -63.0859 C 88.8672 -70.7031 84.9609 -74.6094 77.2461 -74.6094 L 21.3867 -74.6094 C 13.6719 -74.6094 9.76562 -70.752 9.76562 -63.0859 L 9.76562 -24.4629 C 9.76562 -16.7969 13.6719 -12.9395 21.3867 -12.9395 Z M 21.4844 -18.3594 C 17.4316 -18.3594 15.1855 -20.5078 15.1855 -24.707 L 15.1855 -62.8418 C 15.1855 -67.041 17.4316 -69.1895 21.4844 -69.1895 L 77.1484 -69.1895 C 81.1523 -69.1895 83.4473 -67.041 83.4473 -62.8418 L 83.4473 -57.4219 L 40.5762 -57.4219 C 32.8613 -57.4219 28.9551 -53.5645 28.9551 -45.9473 L 28.9551 -18.3594 Z M 34.375 -45.6543 C 34.375 -49.8535 36.6211 -52.002 40.6738 -52.002 L 96.3379 -52.002 C 100.342 -52.002 102.637 -49.8535 102.637 -45.6543 L 102.637 -14.5508 L 88.2812 -28.0273 C 86.5723 -29.5898 84.6191 -30.3711 82.5195 -30.3711 C 80.4199 -30.3711 78.6133 -29.6387 76.8555 -28.0762 L 60.0098 -13.2324 L 53.3203 -19.2383 C 51.709 -20.6543 50.0488 -21.4355 48.2422 -21.4355 C 46.5332 -21.4355 45.0195 -20.7031 43.4082 -19.2871 L 34.375 -11.377 Z M 53.9551 -27.1484 C 58.7891 -27.1484 62.7441 -31.1035 62.7441 -36.0352 C 62.7441 -40.8691 58.7891 -44.873 53.9551 -44.873 C 49.0723 -44.873 45.0684 -40.8691 45.0684 -36.0352 C 45.0684 -31.1035 49.0723 -27.1484 53.9551 -27.1484 Z"/>
  </g>
  <g id="Thin-S" transform="matrix(1 0 0 1 798.756 696)">
   <path d="M 20.3125 -13.1836 L 28.5645 -13.1836 L 28.5645 -8.05664 C 28.5645 -1.17188 32.1777 2.44141 39.1113 2.44141 L 95.0195 2.44141 C 101.953 2.44141 105.566 -1.2207 105.566 -8.05664 L 105.566 -46.6309 C 105.566 -53.4668 101.953 -57.1289 95.0195 -57.1289 L 86.7676 -57.1289 L 86.7676 -62.2559 C 86.7676 -69.0918 83.1543 -72.7539 76.2207 -72.7539 L 20.3125 -72.7539 C 13.3789 -72.7539 9.76562 -69.1895 9.76562 -62.2559 L 9.76562 -23.7305 C 9.76562 -16.7969 13.3789 -13.1836 20.3125 -13.1836 Z M 20.4102 -16.5039 C 15.625 -16.5039 13.0859 -19.043 13.0859 -23.877 L 13.0859 -62.1094 C 13.0859 -66.9434 15.625 -69.4336 20.4102 -69.4336 L 76.123 -69.4336 C 80.8105 -69.4336 83.4473 -66.9434 83.4473 -62.1094 L 83.4473 -57.1289 L 39.1113 -57.1289 C 32.1777 -57.1289 28.5645 -53.5645 28.5645 -46.6309 L 28.5645 -16.5039 Z M 31.8848 -46.4355 C 31.8848 -51.3184 34.4238 -53.8086 39.209 -53.8086 L 94.9219 -53.8086 C 99.6094 -53.8086 102.295 -51.3184 102.295 -46.4355 L 102.295 -13.5254 L 86.4746 -28.0762 C 84.7656 -29.6875 82.8613 -30.5664 80.6641 -30.5664 C 78.4668 -30.5664 76.709 -29.7363 74.9023 -28.125 L 58.4473 -13.8672 L 52.1484 -19.6289 C 50.5371 -21.0938 49.0234 -21.8262 47.1191 -21.8262 C 45.3613 -21.8262 43.9941 -21.0938 42.3828 -19.6777 L 31.8848 -10.1562 Z M 52.7344 -27.3438 C 57.4219 -27.3438 61.3281 -31.25 61.3281 -36.0352 C 61.3281 -40.7715 57.4219 -44.7266 52.7344 -44.7266 C 47.9492 -44.7266 44.043 -40.7715 44.043 -36.0352 C 44.043 -31.25 47.9492 -27.3438 52.7344 -27.3438 Z"/>
  </g>
  <g id="Ultralight-S" transform="matrix(1 0 0 1 502.68 696)">
   <path d="M 19.7754 -13.3301 L 28.3691 -13.3301 L 28.3691 -8.49609 C 28.3691 -1.95312 31.8359 1.46484 38.3789 1.46484 L 94.2871 1.46484 C 100.83 1.46484 104.297 -2.05078 104.297 -8.49609 L 104.297 -46.9727 C 104.297 -53.418 100.83 -56.9824 94.2871 -56.9824 L 85.6934 -56.9824 L 85.6934 -61.8164 C 85.6934 -68.2617 82.2266 -71.7773 75.6836 -71.7773 L 19.7754 -71.7773 C 13.2324 -71.7773 9.76562 -68.3594 9.76562 -61.8164 L 9.76562 -23.3398 C 9.76562 -16.7969 13.2324 -13.3301 19.7754 -13.3301 Z M 19.873 -15.5273 C 14.6484 -15.5273 11.9629 -18.2617 11.9629 -23.4375 L 11.9629 -61.7188 C 11.9629 -66.8945 14.6484 -69.5801 19.873 -69.5801 L 75.5859 -69.5801 C 80.6152 -69.5801 83.4961 -66.8945 83.4961 -61.7188 L 83.4961 -56.9824 L 38.3789 -56.9824 C 31.8359 -56.9824 28.3691 -53.5156 28.3691 -46.9727 L 28.3691 -15.5273 Z M 30.5664 -46.875 C 30.5664 -52.0508 33.252 -54.7852 38.4766 -54.7852 L 94.1895 -54.7852 C 99.2188 -54.7852 102.1 -52.0508 102.1 -46.875 L 102.1 -13.0371 L 85.5469 -28.125 C 83.7891 -29.7363 81.9336 -30.6641 79.6875 -30.6641 C 77.4414 -30.6641 75.7812 -29.7852 73.9258 -28.1738 L 57.666 -14.1602 L 51.5137 -19.8242 C 49.9512 -21.2891 48.4863 -22.0703 46.582 -22.0703 C 44.7266 -22.0703 43.457 -21.2891 41.8457 -19.873 L 30.5664 -9.47266 Z M 52.0996 -27.4414 C 56.7383 -27.4414 60.5469 -31.3477 60.5469 -36.084 C 60.5469 -40.7227 56.7383 -44.6289 52.0996 -44.6289 C 47.3633 -44.6289 43.5059 -40.7227 43.5059 -36.084 C 43.5059 -31.3477 47.3633 -27.4414 52.0996 -27.4414 Z"/>
  </g>
 </g>
</svg>
