<?xml version="1.0" encoding="UTF-8"?>
<!--Generator: Apple Native CoreSVG 129-->
<!DOCTYPE svg
PUBLIC "-//W3C//DTD SVG 1.1//EN"
       "http://www.w3.org/Graphics/SVG/1.1/DTD/svg11.dtd">
<svg version="1.1" xmlns="http://www.w3.org/2000/svg" xmlns:xlink="http://www.w3.org/1999/xlink" width="3300" height="2200">
 <!--glyph: "uni100644.medium", point size: 100.000000, font version: "Version 16.0d9e1", template writer version: "8"-->
 <g id="Notes">
  <rect height="2200" id="artboard" style="fill:white;opacity:1" width="3300" x="0" y="0"/>
  <line id="" style="fill:none;stroke:black;opacity:1;stroke-width:0.5;" x1="263" x2="3036" y1="292" y2="292"/>
  <text style="stroke:none;fill:black;font-family:-apple-system,&quot;SF Pro Display&quot;,&quot;SF Pro Text&quot;,Helvetica,sans-serif;font-weight:bold;" transform="matrix(1 0 0 1 263 322)">Weight/Scale Variations</text>
  <text style="stroke:none;fill:black;font-family:-apple-system,&quot;SF Pro Display&quot;,&quot;SF Pro Text&quot;,Helvetica,sans-serif;text-anchor:middle;" transform="matrix(1 0 0 1 559.711 322)">Ultralight</text>
  <text style="stroke:none;fill:black;font-family:-apple-system,&quot;SF Pro Display&quot;,&quot;SF Pro Text&quot;,Helvetica,sans-serif;text-anchor:middle;" transform="matrix(1 0 0 1 856.422 322)">Thin</text>
  <text style="stroke:none;fill:black;font-family:-apple-system,&quot;SF Pro Display&quot;,&quot;SF Pro Text&quot;,Helvetica,sans-serif;text-anchor:middle;" transform="matrix(1 0 0 1 1153.13 322)">Light</text>
  <text style="stroke:none;fill:black;font-family:-apple-system,&quot;SF Pro Display&quot;,&quot;SF Pro Text&quot;,Helvetica,sans-serif;text-anchor:middle;" transform="matrix(1 0 0 1 1449.84 322)">Regular</text>
  <text style="stroke:none;fill:black;font-family:-apple-system,&quot;SF Pro Display&quot;,&quot;SF Pro Text&quot;,Helvetica,sans-serif;text-anchor:middle;" transform="matrix(1 0 0 1 1746.56 322)">Medium</text>
  <text style="stroke:none;fill:black;font-family:-apple-system,&quot;SF Pro Display&quot;,&quot;SF Pro Text&quot;,Helvetica,sans-serif;text-anchor:middle;" transform="matrix(1 0 0 1 2043.27 322)">Semibold</text>
  <text style="stroke:none;fill:black;font-family:-apple-system,&quot;SF Pro Display&quot;,&quot;SF Pro Text&quot;,Helvetica,sans-serif;text-anchor:middle;" transform="matrix(1 0 0 1 2339.98 322)">Bold</text>
  <text style="stroke:none;fill:black;font-family:-apple-system,&quot;SF Pro Display&quot;,&quot;SF Pro Text&quot;,Helvetica,sans-serif;text-anchor:middle;" transform="matrix(1 0 0 1 2636.69 322)">Heavy</text>
  <text style="stroke:none;fill:black;font-family:-apple-system,&quot;SF Pro Display&quot;,&quot;SF Pro Text&quot;,Helvetica,sans-serif;text-anchor:middle;" transform="matrix(1 0 0 1 2933.4 322)">Black</text>
  <line id="" style="fill:none;stroke:black;opacity:1;stroke-width:0.5;" x1="263" x2="3036" y1="1903" y2="1903"/>
  <g id="" transform="matrix(1 0 0 1 263 1933)">
   <path d="M 9.24805 0.830078 C 13.5547 0.830078 17.1387 -2.74414 17.1387 -7.05078 C 17.1387 -11.3574 13.5449 -14.9316 9.23828 -14.9316 C 4.94141 -14.9316 1.36719 -11.3574 1.36719 -7.05078 C 1.36719 -2.74414 4.95117 0.830078 9.24805 0.830078 Z M 9.24805 -0.654297 C 5.70312 -0.654297 2.87109 -3.49609 2.87109 -7.05078 C 2.87109 -10.6055 5.69336 -13.4473 9.23828 -13.4473 C 12.793 -13.4473 15.6348 -10.6055 15.6445 -7.05078 C 15.6543 -3.49609 12.8027 -0.654297 9.24805 -0.654297 Z M 9.22852 -3.62305 C 9.69727 -3.62305 9.9707 -3.93555 9.9707 -4.45312 L 9.9707 -6.31836 L 12.002 -6.31836 C 12.5 -6.31836 12.832 -6.57227 12.832 -7.04102 C 12.832 -7.51953 12.5195 -7.7832 12.002 -7.7832 L 9.9707 -7.7832 L 9.9707 -9.81445 C 9.9707 -10.332 9.69727 -10.6543 9.22852 -10.6543 C 8.75977 -10.6543 8.50586 -10.3125 8.50586 -9.81445 L 8.50586 -7.7832 L 6.49414 -7.7832 C 5.97656 -7.7832 5.64453 -7.51953 5.64453 -7.04102 C 5.64453 -6.57227 5.99609 -6.31836 6.49414 -6.31836 L 8.50586 -6.31836 L 8.50586 -4.45312 C 8.50586 -3.95508 8.75977 -3.62305 9.22852 -3.62305 Z"/>
  </g>
  <g id="" transform="matrix(1 0 0 1 281.506 1933)">
   <path d="M 11.709 2.91016 C 17.1582 2.91016 21.6699 -1.61133 21.6699 -7.05078 C 21.6699 -12.5 17.1484 -17.0117 11.6992 -17.0117 C 6.25977 -17.0117 1.74805 -12.5 1.74805 -7.05078 C 1.74805 -1.61133 6.26953 2.91016 11.709 2.91016 Z M 11.709 1.25 C 7.09961 1.25 3.41797 -2.44141 3.41797 -7.05078 C 3.41797 -11.6602 7.08984 -15.3516 11.6992 -15.3516 C 16.3086 -15.3516 20 -11.6602 20.0098 -7.05078 C 20.0195 -2.44141 16.3184 1.25 11.709 1.25 Z M 11.6797 -2.66602 C 12.207 -2.66602 12.5098 -3.01758 12.5098 -3.59375 L 12.5098 -6.23047 L 15.3223 -6.23047 C 15.8691 -6.23047 16.25 -6.51367 16.25 -7.03125 C 16.25 -7.55859 15.8887 -7.86133 15.3223 -7.86133 L 12.5098 -7.86133 L 12.5098 -10.6836 C 12.5098 -11.25 12.207 -11.6113 11.6797 -11.6113 C 11.1621 -11.6113 10.8789 -11.2305 10.8789 -10.6836 L 10.8789 -7.86133 L 8.07617 -7.86133 C 7.50977 -7.86133 7.13867 -7.55859 7.13867 -7.03125 C 7.13867 -6.51367 7.5293 -6.23047 8.07617 -6.23047 L 10.8789 -6.23047 L 10.8789 -3.59375 C 10.8789 -3.03711 11.1621 -2.66602 11.6797 -2.66602 Z"/>
  </g>
  <g id="" transform="matrix(1 0 0 1 304.924 1933)">
   <path d="M 14.9707 5.66406 C 21.9336 5.66406 27.6953 -0.0976562 27.6953 -7.05078 C 27.6953 -14.0137 21.9238 -19.7754 14.9609 -19.7754 C 8.00781 -19.7754 2.25586 -14.0137 2.25586 -7.05078 C 2.25586 -0.0976562 8.01758 5.66406 14.9707 5.66406 Z M 14.9707 3.84766 C 8.93555 3.84766 4.08203 -1.01562 4.08203 -7.05078 C 4.08203 -13.0957 8.92578 -17.9492 14.9609 -17.9492 C 21.0059 -17.9492 25.8594 -13.0957 25.8691 -7.05078 C 25.8789 -1.01562 21.0156 3.84766 14.9707 3.84766 Z M 14.9414 -1.38672 C 15.5176 -1.38672 15.8594 -1.77734 15.8594 -2.38281 L 15.8594 -6.13281 L 19.7754 -6.13281 C 20.3711 -6.13281 20.7812 -6.46484 20.7812 -7.02148 C 20.7812 -7.59766 20.3906 -7.93945 19.7754 -7.93945 L 15.8594 -7.93945 L 15.8594 -11.8652 C 15.8594 -12.4805 15.5176 -12.8711 14.9414 -12.8711 C 14.375 -12.8711 14.0527 -12.4609 14.0527 -11.8652 L 14.0527 -7.93945 L 10.1465 -7.93945 C 9.53125 -7.93945 9.13086 -7.59766 9.13086 -7.02148 C 9.13086 -6.46484 9.55078 -6.13281 10.1465 -6.13281 L 14.0527 -6.13281 L 14.0527 -2.38281 C 14.0527 -1.79688 14.375 -1.38672 14.9414 -1.38672 Z"/>
  </g>
  <text style="stroke:none;fill:black;font-family:-apple-system,&quot;SF Pro Display&quot;,&quot;SF Pro Text&quot;,Helvetica,sans-serif;font-weight:bold;" transform="matrix(1 0 0 1 263 1953)">Design Variations</text>
  <text style="stroke:none;fill:black;font-family:-apple-system,&quot;SF Pro Display&quot;,&quot;SF Pro Text&quot;,Helvetica,sans-serif;" transform="matrix(1 0 0 1 263 1971)">Symbols are supported in up to nine weights and three scales.</text>
  <text style="stroke:none;fill:black;font-family:-apple-system,&quot;SF Pro Display&quot;,&quot;SF Pro Text&quot;,Helvetica,sans-serif;" transform="matrix(1 0 0 1 263 1989)">For optimal layout with text and other symbols, vertically align</text>
  <text style="stroke:none;fill:black;font-family:-apple-system,&quot;SF Pro Display&quot;,&quot;SF Pro Text&quot;,Helvetica,sans-serif;" transform="matrix(1 0 0 1 263 2007)">symbols with the adjacent text.</text>
  <line id="" style="fill:none;stroke:#00AEEF;stroke-width:0.5;opacity:1.0;" x1="776" x2="776" y1="1919" y2="1933"/>
  <g id="" transform="matrix(1 0 0 1 776 1933)">
   <path d="M 3.31055 0.126953 C 3.82812 0.126953 4.08203 -0.0683594 4.26758 -0.605469 L 5.52734 -4.0625 L 11.2891 -4.0625 L 12.5488 -0.605469 C 12.7344 -0.0683594 12.9883 0.126953 13.4961 0.126953 C 14.0137 0.126953 14.3457 -0.185547 14.3457 -0.673828 C 14.3457 -0.839844 14.3164 -0.986328 14.2383 -1.20117 L 9.6582 -13.3887 C 9.43359 -13.9941 9.0332 -14.2871 8.4082 -14.2871 C 7.80273 -14.2871 7.39258 -13.9941 7.17773 -13.3984 L 2.59766 -1.19141 C 2.51953 -0.976562 2.49023 -0.830078 2.49023 -0.664062 C 2.49023 -0.175781 2.80273 0.126953 3.31055 0.126953 Z M 6.00586 -5.53711 L 8.37891 -12.1094 L 8.42773 -12.1094 L 10.8008 -5.53711 Z"/>
  </g>
  <line id="" style="fill:none;stroke:#00AEEF;stroke-width:0.5;opacity:1.0;" x1="792.836" x2="792.836" y1="1919" y2="1933"/>
  <text style="stroke:none;fill:black;font-family:-apple-system,&quot;SF Pro Display&quot;,&quot;SF Pro Text&quot;,Helvetica,sans-serif;font-weight:bold;" transform="matrix(1 0 0 1 776 1953)">Margins</text>
  <text style="stroke:none;fill:black;font-family:-apple-system,&quot;SF Pro Display&quot;,&quot;SF Pro Text&quot;,Helvetica,sans-serif;" transform="matrix(1 0 0 1 776 1971)">Leading and trailing margins on the left and right side of each symbol</text>
  <text style="stroke:none;fill:black;font-family:-apple-system,&quot;SF Pro Display&quot;,&quot;SF Pro Text&quot;,Helvetica,sans-serif;" transform="matrix(1 0 0 1 776 1989)">can be adjusted by modifying the x-location of the margin guidelines.</text>
  <text style="stroke:none;fill:black;font-family:-apple-system,&quot;SF Pro Display&quot;,&quot;SF Pro Text&quot;,Helvetica,sans-serif;" transform="matrix(1 0 0 1 776 2007)">Modifications are automatically applied proportionally to all</text>
  <text style="stroke:none;fill:black;font-family:-apple-system,&quot;SF Pro Display&quot;,&quot;SF Pro Text&quot;,Helvetica,sans-serif;" transform="matrix(1 0 0 1 776 2025)">scales and weights.</text>
  <g id="" transform="matrix(1 0 0 1 1289 1933)">
   <path d="M 2.8418 1.86523 L 4.54102 3.57422 C 5.40039 4.44336 6.38672 4.38477 7.31445 3.35938 L 17.4902 -7.85156 C 17.7539 -7.76367 18.0273 -7.7832 18.3398 -7.8418 L 19.4043 -8.03711 L 20.0684 -7.36328 L 20.0293 -6.80664 C 19.9902 -6.30859 20.1172 -5.92773 20.6055 -5.44922 L 21.3672 -4.70703 C 21.8457 -4.22852 22.4609 -4.19922 22.9297 -4.66797 L 25.8398 -7.58789 C 26.3086 -8.05664 26.2891 -8.65234 25.8105 -9.13086 L 25.0391 -9.89258 C 24.5605 -10.3711 24.1895 -10.5273 23.7109 -10.4883 L 23.1348 -10.4395 L 22.4902 -11.0742 L 22.7344 -12.1973 C 22.8613 -12.7637 22.7051 -13.2031 22.1191 -13.7891 L 19.9219 -15.9766 C 16.582 -19.2969 12.1484 -19.2188 9.25781 -16.3281 C 8.83789 -15.918 8.80859 -15.3418 9.04297 -14.9512 C 9.27734 -14.5898 9.73633 -14.3555 10.3809 -14.5215 C 11.8457 -14.8633 13.3691 -14.9219 14.7949 -13.9844 L 14.209 -12.5293 C 14.0137 -12.0508 13.9844 -11.6504 14.1113 -11.2891 L 3.04688 -0.898438 C 2.06055 0.0195312 1.98242 0.996094 2.8418 1.86523 Z M 10.752 -15.957 C 13.1836 -17.7344 16.4746 -17.4316 18.7012 -15.2051 L 21.1328 -12.793 C 21.3672 -12.5586 21.4062 -12.373 21.3379 -12.0312 L 21.0156 -10.5469 L 22.5195 -9.0625 L 23.5059 -9.12109 C 23.7598 -9.13086 23.8379 -9.11133 24.0332 -8.91602 L 24.6094 -8.33984 L 22.168 -5.89844 L 21.5918 -6.47461 C 21.3965 -6.66992 21.3672 -6.74805 21.377 -7.01172 L 21.4453 -7.98828 L 19.9512 -9.47266 L 18.4277 -9.21875 C 18.1055 -9.15039 17.959 -9.17969 17.7148 -9.41406 L 15.7129 -11.416 C 15.459 -11.6504 15.4297 -11.8164 15.5859 -12.1875 L 16.4648 -14.2773 C 14.9023 -15.7324 12.8711 -16.3574 10.8398 -15.7617 C 10.6836 -15.7227 10.625 -15.8496 10.752 -15.957 Z M 5.27344 2.30469 L 4.10156 1.14258 C 3.63281 0.683594 3.74023 0.341797 4.14062 -0.0195312 L 14.9512 -10.1953 L 16.416 -8.71094 L 6.42578 2.27539 C 6.07422 2.67578 5.74219 2.77344 5.27344 2.30469 Z"/>
  </g>
  <text style="stroke:none;fill:black;font-family:-apple-system,&quot;SF Pro Display&quot;,&quot;SF Pro Text&quot;,Helvetica,sans-serif;font-weight:bold;" transform="matrix(1 0 0 1 1289 1953)">Exporting</text>
  <text style="stroke:none;fill:black;font-family:-apple-system,&quot;SF Pro Display&quot;,&quot;SF Pro Text&quot;,Helvetica,sans-serif;" transform="matrix(1 0 0 1 1289 1971)">Symbols should be outlined when exporting to ensure the</text>
  <text style="stroke:none;fill:black;font-family:-apple-system,&quot;SF Pro Display&quot;,&quot;SF Pro Text&quot;,Helvetica,sans-serif;" transform="matrix(1 0 0 1 1289 1989)">design is preserved when submitting to Xcode.</text>
  <text id="template-version" style="stroke:none;fill:black;font-family:-apple-system,&quot;SF Pro Display&quot;,&quot;SF Pro Text&quot;,Helvetica,sans-serif;text-anchor:end;" transform="matrix(1 0 0 1 3036 1933)">Template v.2.0</text>
  <text style="stroke:none;fill:black;font-family:-apple-system,&quot;SF Pro Display&quot;,&quot;SF Pro Text&quot;,Helvetica,sans-serif;text-anchor:end;" transform="matrix(1 0 0 1 3036 1951)">Requires Xcode 12 or greater</text>
  <text style="stroke:none;fill:black;font-family:-apple-system,&quot;SF Pro Display&quot;,&quot;SF Pro Text&quot;,Helvetica,sans-serif;text-anchor:end;" transform="matrix(1 0 0 1 3036 1969)">Generated from hammer</text>
  <text style="stroke:none;fill:black;font-family:-apple-system,&quot;SF Pro Display&quot;,&quot;SF Pro Text&quot;,Helvetica,sans-serif;text-anchor:end;" transform="matrix(1 0 0 1 3036 1987)">Typeset at 100 points</text>
  <text style="stroke:none;fill:black;font-family:-apple-system,&quot;SF Pro Display&quot;,&quot;SF Pro Text&quot;,Helvetica,sans-serif;" transform="matrix(1 0 0 1 263 726)">Small</text>
  <text style="stroke:none;fill:black;font-family:-apple-system,&quot;SF Pro Display&quot;,&quot;SF Pro Text&quot;,Helvetica,sans-serif;" transform="matrix(1 0 0 1 263 1156)">Medium</text>
  <text style="stroke:none;fill:black;font-family:-apple-system,&quot;SF Pro Display&quot;,&quot;SF Pro Text&quot;,Helvetica,sans-serif;" transform="matrix(1 0 0 1 263 1586)">Large</text>
 </g>
 <g id="Guides">
  <g id="H-reference" style="fill:#27AAE1;stroke:none;" transform="matrix(1 0 0 1 339 696)">
   <path d="M 0.976562 0 L 3.66211 0 L 12.9883 -24.4629 L 45.7031 -24.4629 L 55.0781 0 L 57.7148 0 L 30.6152 -70.459 L 28.125 -70.459 Z M 29.2969 -67.1387 L 29.3945 -67.1387 L 44.873 -26.709 L 13.8672 -26.709 Z"/>
  </g>
  <line id="Baseline-S" style="fill:none;stroke:#27AAE1;opacity:1;stroke-width:0.5;" x1="263" x2="3036" y1="696" y2="696"/>
  <line id="Capline-S" style="fill:none;stroke:#27AAE1;opacity:1;stroke-width:0.5;" x1="263" x2="3036" y1="625.541" y2="625.541"/>
  <g id="H-reference" style="fill:#27AAE1;stroke:none;" transform="matrix(1 0 0 1 339 1126)">
   <path d="M 0.976562 0 L 3.66211 0 L 12.9883 -24.4629 L 45.7031 -24.4629 L 55.0781 0 L 57.7148 0 L 30.6152 -70.459 L 28.125 -70.459 Z M 29.2969 -67.1387 L 29.3945 -67.1387 L 44.873 -26.709 L 13.8672 -26.709 Z"/>
  </g>
  <line id="Baseline-M" style="fill:none;stroke:#27AAE1;opacity:1;stroke-width:0.5;" x1="263" x2="3036" y1="1126" y2="1126"/>
  <line id="Capline-M" style="fill:none;stroke:#27AAE1;opacity:1;stroke-width:0.5;" x1="263" x2="3036" y1="1055.54" y2="1055.54"/>
  <g id="H-reference" style="fill:#27AAE1;stroke:none;" transform="matrix(1 0 0 1 339 1556)">
   <path d="M 0.976562 0 L 3.66211 0 L 12.9883 -24.4629 L 45.7031 -24.4629 L 55.0781 0 L 57.7148 0 L 30.6152 -70.459 L 28.125 -70.459 Z M 29.2969 -67.1387 L 29.3945 -67.1387 L 44.873 -26.709 L 13.8672 -26.709 Z"/>
  </g>
  <line id="Baseline-L" style="fill:none;stroke:#27AAE1;opacity:1;stroke-width:0.5;" x1="263" x2="3036" y1="1556" y2="1556"/>
  <line id="Capline-L" style="fill:none;stroke:#27AAE1;opacity:1;stroke-width:0.5;" x1="263" x2="3036" y1="1485.54" y2="1485.54"/>
  <line id="left-margin" style="fill:none;stroke:#00AEEF;stroke-width:0.5;opacity:1.0;" x1="1378.78" x2="1378.78" y1="1030.79" y2="1150.12"/>
  <line id="right-margin" style="fill:none;stroke:#00AEEF;stroke-width:0.5;opacity:1.0;" x1="1520.91" x2="1520.91" y1="1030.79" y2="1150.12"/>
 </g>
 <g id="Symbols">
  <g id="Black-L" transform="matrix(1 0 0 1 2832.94 1556)">
   <path d="M 19.5312 26.123 L 32.5195 39.1113 C 39.6484 46.2402 48.7793 45.8008 56.1523 37.6465 L 126.025 -39.8438 C 128.027 -39.4043 130.127 -39.5508 132.52 -40.0879 L 136.963 -41.0156 L 138.867 -39.1113 L 138.574 -36.377 C 138.086 -32.7148 139.648 -29.1016 143.408 -25.3906 L 148.486 -20.4102 C 153.174 -15.7715 159.326 -15.5762 163.721 -20.0195 L 183.203 -39.502 C 187.646 -43.9453 187.451 -50.1465 182.812 -54.7852 L 177.783 -59.8633 C 174.17 -63.5742 170.508 -65.0879 166.846 -64.6973 L 164.111 -64.4043 L 162.305 -66.1621 L 163.33 -70.8984 C 164.6 -76.8555 163.135 -80.9082 157.324 -86.7188 L 144.629 -99.3652 C 121.631 -122.363 88.2812 -123.096 67.1875 -101.953 C 63.6719 -98.4375 63.4277 -93.7012 65.332 -90.1367 C 67.4316 -86.2305 72.168 -83.5449 77.9785 -85.1074 C 87.3047 -87.5977 95.6543 -87.207 102.93 -83.1055 L 100.146 -75.9766 C 99.0723 -73.2422 98.584 -70.752 98.7793 -68.457 L 20.8984 2.44141 C 12.8906 9.7168 12.3535 18.9453 19.5312 26.123 Z M 86.0352 -98.0469 C 100.439 -105.566 118.213 -102.246 130.615 -89.7949 L 145.264 -75.2441 C 146.826 -73.7305 147.021 -72.3633 146.68 -70.2148 L 145.117 -61.1816 L 156.738 -49.5605 L 162.988 -49.8535 C 164.111 -49.9023 164.502 -49.7559 165.283 -48.9746 L 166.553 -47.6562 L 155.176 -36.3281 L 153.906 -37.5977 C 153.125 -38.3789 152.979 -38.7695 152.979 -39.8926 L 153.32 -46.1426 L 141.699 -57.7637 L 132.568 -56.2988 C 130.42 -55.957 129.199 -56.1523 127.637 -57.666 L 117.725 -67.5781 C 116.211 -69.0918 115.576 -70.5566 116.406 -72.6074 L 122.119 -86.4258 C 111.914 -96.9238 98.3887 -100.391 86.2305 -97.5098 C 85.791 -97.4121 85.5957 -97.8027 86.0352 -98.0469 Z M 41.1133 22.7539 L 35.8887 17.4805 C 34.4727 16.1133 34.7656 15.1855 35.9375 14.0625 L 108.008 -54.4922 L 112.695 -49.8047 L 44.5801 22.7051 C 43.457 23.877 42.4316 24.1211 41.1133 22.7539 Z"/>
  </g>
  <g id="Heavy-L" transform="matrix(1 0 0 1 2538.45 1556)">
   <path d="M 19.2383 25.2441 L 31.6895 37.6953 C 38.3789 44.4336 46.7773 43.9941 53.8086 36.2793 L 122.754 -40.0391 C 124.658 -39.5996 126.66 -39.6973 129.004 -40.1855 L 134.082 -41.2598 L 136.67 -38.6719 L 136.377 -35.7422 C 135.938 -32.1289 137.305 -28.8086 140.918 -25.293 L 145.947 -20.3125 C 150.195 -16.1133 155.713 -15.9668 159.717 -19.9707 L 179.053 -39.3555 C 183.105 -43.4082 182.959 -48.877 178.76 -53.0762 L 173.73 -58.1543 C 170.215 -61.7188 166.895 -63.0371 163.33 -62.6953 L 160.4 -62.4512 L 157.91 -64.8926 L 159.033 -70.166 C 160.205 -75.5859 158.887 -79.3945 153.564 -84.668 L 140.576 -97.6562 C 118.115 -120.068 85.8398 -120.654 65.4297 -100.195 C 62.1582 -96.9238 61.9141 -92.5293 63.7207 -89.209 C 65.6738 -85.7422 69.9219 -83.3984 75.2441 -84.7656 C 84.7656 -87.207 93.457 -86.9629 101.221 -82.3242 L 98.0957 -74.5605 C 96.9727 -71.7285 96.582 -69.1895 96.875 -66.7969 L 20.5566 3.07617 C 12.9883 10.0098 12.4512 18.457 19.2383 25.2441 Z M 81.7383 -96.6797 C 96.4355 -105.322 115.381 -102.197 128.223 -89.3555 L 143.066 -74.6094 C 144.629 -73.0469 144.873 -71.6797 144.531 -69.4824 L 142.822 -60.3516 L 153.955 -49.2676 L 160.205 -49.6094 C 161.475 -49.6094 161.914 -49.4629 162.842 -48.584 L 164.795 -46.6309 L 152.148 -33.9844 L 150.195 -35.9375 C 149.316 -36.8652 149.121 -37.3047 149.17 -38.623 L 149.512 -44.8242 L 138.428 -55.9082 L 129.15 -54.3945 C 127.002 -54.0527 125.781 -54.248 124.17 -55.8105 L 113.623 -66.3574 C 112.012 -67.9688 111.475 -69.4336 112.354 -71.582 L 118.066 -85.2539 C 107.91 -95.459 94.5801 -98.9746 82.0801 -95.8984 C 81.4453 -95.752 81.2012 -96.2891 81.7383 -96.6797 Z M 39.209 23.584 L 33.3496 17.6758 C 31.543 15.8691 31.8848 14.5996 33.4961 13.1348 L 105.176 -54.834 L 111.133 -48.7793 L 43.75 23.4375 C 42.334 25 40.9668 25.3418 39.209 23.584 Z"/>
  </g>
  <g id="Bold-L" transform="matrix(1 0 0 1 2244.2 1556)">
   <path d="M 18.8965 24.2188 L 30.7129 36.1328 C 37.0117 42.4316 44.5801 41.9922 51.1719 34.7168 L 119.043 -40.2832 C 120.898 -39.7949 122.803 -39.8926 125.049 -40.332 L 130.859 -41.5039 L 134.18 -38.1348 L 133.887 -34.9609 C 133.594 -31.4941 134.668 -28.5156 138.135 -25.1465 L 143.164 -20.2148 C 146.875 -16.5039 151.66 -16.3574 155.273 -19.9219 L 174.463 -39.1602 C 178.027 -42.7734 177.881 -47.5098 174.219 -51.2207 L 169.189 -56.25 C 165.82 -59.6191 162.891 -60.791 159.424 -60.498 L 156.201 -60.2051 L 152.979 -63.4277 L 154.248 -69.3848 C 155.273 -74.2188 154.102 -77.6855 149.365 -82.373 L 136.035 -95.7031 C 114.111 -117.529 83.0566 -117.871 63.5254 -98.291 C 60.4492 -95.2637 60.2539 -91.1621 61.9629 -88.1836 C 63.6719 -85.2051 67.4316 -83.2031 72.168 -84.4238 C 81.8848 -86.7188 91.0156 -86.6699 99.2676 -81.4941 L 95.8008 -72.998 C 94.6289 -70.0195 94.3359 -67.4316 94.8242 -65.0391 L 20.2148 3.80859 C 13.0859 10.3516 12.5488 17.8711 18.8965 24.2188 Z M 76.9531 -95.166 C 91.9922 -105.078 112.207 -102.197 125.586 -88.8184 L 140.576 -73.877 C 142.236 -72.2656 142.48 -70.9473 142.09 -68.6523 L 140.283 -59.4727 L 150.83 -48.9746 L 157.08 -49.3164 C 158.496 -49.3652 159.033 -49.1699 160.107 -48.0957 L 162.793 -45.4102 L 148.779 -31.3965 L 146.094 -34.1309 C 145.02 -35.1562 144.824 -35.7422 144.873 -37.1582 L 145.215 -43.3594 L 134.717 -53.8574 L 125.342 -52.2949 C 123.145 -51.9043 121.973 -52.1484 120.312 -53.7598 L 108.984 -65.0879 C 107.275 -66.6992 106.885 -68.1152 107.861 -70.459 L 113.525 -83.9844 C 103.418 -93.75 90.332 -97.3633 77.4414 -94.0918 C 76.6113 -93.8965 76.2695 -94.6289 76.9531 -95.166 Z M 37.1094 24.4629 L 30.4688 17.8223 C 28.2715 15.625 28.7109 13.9648 30.7129 12.0605 L 102.002 -55.1758 L 109.424 -47.6562 L 42.8711 24.2676 C 41.0645 26.2695 39.3066 26.709 37.1094 24.4629 Z"/>
  </g>
  <g id="Semibold-L" transform="matrix(1 0 0 1 1949.2 1556)">
   <path d="M 18.6523 23.5352 L 30.0781 35.0098 C 36.0352 41.0156 43.0176 40.625 49.3652 33.6426 L 116.553 -40.4297 C 118.311 -39.9414 120.117 -40.0391 122.314 -40.4785 L 128.613 -41.6504 L 132.471 -37.793 L 132.227 -34.4727 C 131.934 -31.0059 132.861 -28.3203 136.23 -25.0488 L 141.211 -20.1172 C 144.58 -16.7969 148.877 -16.6016 152.148 -19.873 L 171.289 -39.0137 C 174.561 -42.334 174.414 -46.582 171.045 -49.9023 L 166.064 -54.9316 C 162.793 -58.2031 160.156 -59.2285 156.738 -58.9844 L 153.32 -58.6914 L 149.609 -62.4023 L 150.977 -68.7988 C 151.904 -73.2422 150.781 -76.5137 146.484 -80.8105 L 132.861 -94.3359 C 111.377 -115.771 81.1523 -115.967 62.1582 -96.9727 C 59.2773 -94.0918 59.082 -90.2344 60.6934 -87.5 C 62.3047 -84.8145 65.6738 -83.0566 70.0684 -84.1309 C 79.8828 -86.4258 89.3066 -86.4746 97.9492 -80.8594 L 94.2383 -71.9238 C 93.0176 -68.8965 92.7734 -66.2109 93.457 -63.8184 L 19.9219 4.29688 C 13.1348 10.5469 12.6465 17.5293 18.6523 23.5352 Z M 73.6816 -94.1406 C 88.916 -104.883 110.01 -102.197 123.73 -88.4766 L 138.867 -73.3887 C 140.527 -71.7773 140.82 -70.4102 140.381 -68.1152 L 138.525 -58.8379 L 148.682 -48.7305 L 154.883 -49.0723 C 156.445 -49.1699 157.031 -48.9746 158.203 -47.8027 L 161.426 -44.5801 L 146.436 -29.6387 L 143.213 -32.8613 C 142.09 -33.9844 141.846 -34.6191 141.895 -36.1816 L 142.285 -42.334 L 132.178 -52.4414 L 122.754 -50.8301 C 120.508 -50.4395 119.336 -50.6836 117.676 -52.3438 L 105.762 -64.1602 C 104.053 -65.8691 103.711 -67.2363 104.736 -69.6777 L 110.352 -83.1055 C 100.342 -92.627 87.4023 -96.2402 74.2188 -92.8711 C 73.291 -92.627 72.9004 -93.457 73.6816 -94.1406 Z M 35.6445 25.0977 L 28.5156 17.9688 C 25.9766 15.4297 26.4648 13.5254 28.8086 11.3281 L 99.8047 -55.4199 L 108.203 -46.875 L 42.2852 24.8047 C 40.1855 27.1484 38.1836 27.6367 35.6445 25.0977 Z"/>
  </g>
  <g id="Medium-L" transform="matrix(1 0 0 1 1653.78 1556)">
   <path d="M 18.457 22.998 L 29.5898 34.1797 C 35.3027 39.9414 41.8457 39.5508 47.9492 32.8613 L 114.6 -40.5762 C 116.309 -40.0391 118.115 -40.1367 120.215 -40.5273 L 126.904 -41.7969 L 131.201 -37.5 L 130.957 -34.082 C 130.713 -30.6641 131.494 -28.125 134.766 -24.9512 L 139.746 -20.0684 C 142.871 -16.9922 146.777 -16.8457 149.805 -19.873 L 168.848 -38.916 C 171.875 -41.9922 171.777 -45.8496 168.652 -48.9258 L 163.672 -53.9062 C 160.498 -57.0801 158.057 -58.0566 154.688 -57.8125 L 151.172 -57.5195 L 147.021 -61.6699 L 148.438 -68.4082 C 149.365 -72.5586 148.291 -75.6348 144.287 -79.6387 L 130.518 -93.3105 C 109.326 -114.453 79.7363 -114.551 61.1328 -95.9473 C 58.3984 -93.2129 58.2031 -89.5508 59.7656 -86.9629 C 61.2793 -84.5215 64.3555 -82.959 68.5059 -83.9844 C 78.3691 -86.1816 88.0371 -86.3281 96.9238 -80.4199 L 93.0664 -71.1426 C 91.7969 -68.0176 91.6504 -65.332 92.4316 -62.9395 L 19.7266 4.63867 C 13.1836 10.7422 12.6953 17.2363 18.457 22.998 Z M 71.1914 -93.3105 C 86.5723 -104.736 108.35 -102.148 122.314 -88.1836 L 137.598 -72.998 C 139.258 -71.3867 139.6 -70.0195 139.111 -67.6758 L 137.207 -58.3496 L 147.07 -48.584 L 153.271 -48.9258 C 154.883 -49.0234 155.518 -48.8281 156.787 -47.5586 L 160.4 -43.9453 L 144.629 -28.2715 L 141.064 -31.8848 C 139.844 -33.1055 139.6 -33.7891 139.648 -35.4492 L 140.039 -41.6016 L 130.273 -51.416 L 120.752 -49.7559 C 118.506 -49.3164 117.334 -49.5605 115.625 -51.2207 L 103.369 -63.4766 C 101.562 -65.1855 101.27 -66.5527 102.344 -69.0918 L 108.008 -82.4219 C 97.998 -91.748 85.2051 -95.4102 71.7773 -91.8945 C 70.752 -91.6504 70.3125 -92.5781 71.1914 -93.3105 Z M 34.5215 25.5859 L 27.002 18.0664 C 24.2676 15.2832 24.8047 13.1836 27.3926 10.791 L 98.0957 -55.6152 L 107.324 -46.3379 L 41.7969 25.2441 C 39.502 27.832 37.3047 28.3203 34.5215 25.5859 Z"/>
  </g>
  <g id="Regular-L" transform="matrix(1 0 0 1 1358.78 1556)">
   <path d="M 18.2129 22.3145 L 28.9062 33.1055 C 34.375 38.5742 40.332 38.1836 46.1914 31.7871 L 112.109 -40.7227 C 113.77 -40.1855 115.479 -40.2832 117.529 -40.625 L 124.707 -41.9434 L 129.492 -37.1582 L 129.248 -33.5938 C 129.102 -30.2246 129.736 -27.9297 132.861 -24.8535 L 137.793 -20.0195 C 140.576 -17.2363 144.043 -17.0898 146.777 -19.8242 L 165.723 -38.8184 C 168.457 -41.6016 168.311 -44.873 165.576 -47.6562 L 160.596 -52.6367 C 157.471 -55.6641 155.273 -56.543 152.002 -56.2988 L 148.291 -56.0059 L 143.652 -60.6445 L 145.215 -67.8223 C 145.996 -71.582 145.02 -74.4629 141.406 -78.0762 L 127.393 -91.9922 C 106.592 -112.695 77.8809 -112.646 59.8145 -94.6289 C 57.2266 -92.0898 57.0801 -88.623 58.5449 -86.2305 C 59.9121 -84.1797 62.6465 -82.8125 66.4062 -83.6914 C 76.416 -85.8887 86.377 -86.1328 95.6055 -79.834 L 91.5039 -70.0684 C 90.1855 -66.8457 90.1367 -64.209 91.1133 -61.8164 L 19.4824 5.12695 C 13.2812 10.9375 12.793 16.8457 18.2129 22.3145 Z M 67.9199 -92.2852 C 83.5449 -104.59 106.201 -102.148 120.508 -87.8418 L 135.889 -72.5098 C 137.598 -70.8496 137.939 -69.4824 137.451 -67.0898 L 135.498 -57.7637 L 144.971 -48.3887 L 151.123 -48.7305 C 152.832 -48.8281 153.564 -48.6328 154.883 -47.2656 L 159.033 -43.1641 L 142.334 -26.5137 L 138.232 -30.6152 C 136.914 -31.9824 136.67 -32.666 136.719 -34.4727 L 137.158 -40.5762 L 127.783 -50 L 118.164 -48.291 C 115.869 -47.8516 114.697 -48.0957 112.988 -49.8047 L 100.195 -62.5488 C 98.3887 -64.3555 98.1445 -65.6738 99.2676 -68.3105 L 104.883 -81.543 C 94.9707 -90.5762 82.2754 -94.3359 68.6035 -90.6738 C 67.4316 -90.4297 66.9434 -91.4062 67.9199 -92.2852 Z M 33.1055 26.1719 L 25.0977 18.2129 C 22.0215 15.1367 22.6074 12.6953 25.5371 10.0586 L 95.9473 -55.8105 L 106.152 -45.5566 L 41.2109 25.7812 C 38.623 28.7109 36.1816 29.248 33.1055 26.1719 Z"/>
  </g>
  <g id="Light-L" transform="matrix(1 0 0 1 1062.85 1556)">
   <path d="M 18.1152 22.4609 L 28.4668 32.8125 C 33.6914 38.1348 39.1602 37.7441 44.8242 31.5918 L 111.182 -41.1621 C 112.744 -40.5273 114.404 -40.625 116.504 -41.0156 L 124.121 -42.4316 L 129.59 -37.0117 L 129.395 -33.4473 C 129.248 -29.834 129.639 -27.832 132.812 -24.7559 L 137.842 -19.8242 C 140.137 -17.5293 142.871 -17.4316 145.215 -19.7754 L 164.355 -38.9648 C 166.699 -41.3086 166.65 -43.9941 164.355 -46.2891 L 159.277 -51.2695 C 156.201 -54.3457 154.248 -54.9316 150.732 -54.7363 L 147.119 -54.541 L 141.748 -59.9121 L 143.213 -67.041 C 144.043 -70.8984 143.115 -73.7793 139.697 -77.1484 L 125.879 -90.8691 C 106.152 -110.547 77.1973 -111.133 60.0586 -93.9453 C 57.5684 -91.5039 57.4707 -88.3789 58.8867 -86.2793 C 60.1074 -84.4727 62.5 -83.3496 65.6738 -84.082 C 76.5137 -86.1816 86.5723 -86.2793 95.8496 -79.6387 L 91.4062 -69.3359 C 89.9902 -66.0156 90.0879 -63.2812 91.4062 -60.8398 L 19.3359 6.10352 C 13.2812 11.7188 12.8418 17.1387 18.1152 22.4609 Z M 66.0156 -91.6504 C 81.4941 -105.078 106.104 -102.051 120.361 -87.793 L 135.4 -72.8027 C 137.305 -70.9473 137.744 -69.3848 137.207 -66.6992 L 135.352 -57.666 L 144.531 -48.5352 L 150.488 -48.9258 C 152.295 -48.9746 153.271 -48.7305 154.736 -47.2168 L 159.375 -42.5781 L 141.504 -24.707 L 136.914 -29.3945 C 135.4 -30.8594 135.107 -31.8359 135.205 -33.6914 L 135.596 -39.5996 L 126.465 -48.7793 L 117.236 -47.0703 C 114.648 -46.5332 113.232 -46.9727 111.328 -48.877 L 98.6816 -61.4258 C 96.582 -63.5254 96.2402 -65.2344 97.5586 -68.1641 L 103.125 -81.0547 C 93.4082 -89.6484 81.2988 -92.9688 66.8457 -89.6484 C 65.4297 -89.3555 64.8438 -90.5762 66.0156 -91.6504 Z M 31.8848 27.6367 L 23.291 19.043 C 20.0684 15.8203 20.6055 13.0859 23.9746 9.96094 L 95.3125 -56.25 L 106.543 -44.9707 L 40.918 26.9531 C 37.8906 30.3223 35.1074 30.8105 31.8848 27.6367 Z"/>
  </g>
  <g id="Thin-L" transform="matrix(1 0 0 1 767.213 1556)">
   <path d="M 17.9688 22.6074 L 27.832 32.4707 C 32.8613 37.5 37.6465 37.1094 43.0176 31.2988 L 109.961 -41.748 C 111.377 -41.0645 112.939 -41.0645 115.186 -41.5039 L 123.389 -43.0664 L 129.688 -36.7676 L 129.59 -33.252 C 129.492 -29.3457 129.59 -27.6855 132.715 -24.6094 L 137.842 -19.5801 C 139.502 -17.8711 141.309 -17.8711 143.115 -19.6777 L 162.598 -39.1602 C 164.404 -40.9668 164.404 -42.7734 162.695 -44.4336 L 157.568 -49.5117 C 154.443 -52.5391 152.93 -52.7832 149.072 -52.6855 L 145.508 -52.5879 L 139.209 -58.8867 L 140.625 -65.9668 C 141.406 -70.0195 140.576 -72.8516 137.402 -75.9766 L 123.877 -89.4043 C 105.518 -107.666 76.3672 -109.131 60.3027 -93.0664 C 58.0078 -90.7715 58.0078 -88.0859 59.3262 -86.3281 C 60.3027 -84.9121 62.3047 -84.082 64.7461 -84.5215 C 76.6113 -86.5723 86.8652 -86.4746 96.1426 -79.3945 L 91.2109 -68.3594 C 89.6973 -64.9414 90.0391 -62.1094 91.9434 -59.5703 L 19.0918 7.42188 C 13.3301 12.793 12.8906 17.5293 17.9688 22.6074 Z M 63.4766 -90.8203 C 78.8574 -105.762 106.006 -101.904 120.166 -87.7441 L 134.717 -73.1934 C 136.914 -71.0449 137.5 -69.2383 136.865 -66.2109 L 135.156 -57.5195 L 143.945 -48.7793 L 149.609 -49.1211 C 151.611 -49.2188 152.881 -48.8281 154.541 -47.168 L 159.912 -41.8457 L 140.381 -22.3633 L 135.107 -27.7344 C 133.447 -29.3945 133.057 -30.6641 133.154 -32.666 L 133.496 -38.3301 L 124.756 -47.1191 L 116.016 -45.4102 C 112.988 -44.8242 111.23 -45.4102 109.082 -47.6074 L 96.6797 -59.9609 C 94.2383 -62.4023 93.75 -64.6484 95.2637 -67.9688 L 100.732 -80.4688 C 91.3086 -88.3789 80.0293 -91.2109 64.5508 -88.2324 C 62.8418 -87.9395 62.0605 -89.4531 63.4766 -90.8203 Z M 30.3223 29.541 L 20.8984 20.1172 C 17.5293 16.748 17.9199 13.5742 21.9238 9.86328 L 94.5312 -56.7871 L 107.031 -44.1895 L 40.5273 28.5156 C 36.9141 32.5195 33.6426 32.8613 30.3223 29.541 Z"/>
  </g>
  <g id="Ultralight-L" transform="matrix(1 0 0 1 471.039 1556)">
   <path d="M 17.8711 22.6562 L 27.4902 32.2754 C 32.4219 37.207 36.8652 36.8164 42.0898 31.1523 L 109.375 -42.0898 C 110.693 -41.3086 112.158 -41.3086 114.502 -41.748 L 122.998 -43.4082 L 129.736 -36.6699 L 129.688 -33.1543 C 129.59 -29.1016 129.541 -27.5879 132.666 -24.5605 L 137.842 -19.4336 C 139.209 -18.0664 140.479 -18.0664 142.041 -19.6289 L 161.67 -39.2578 C 163.232 -40.8203 163.232 -42.1387 161.865 -43.5059 L 156.689 -48.584 C 153.564 -51.6602 152.197 -51.709 148.193 -51.6602 L 144.678 -51.6113 L 137.939 -58.3496 L 139.258 -65.3809 C 140.088 -69.5312 139.307 -72.3633 136.23 -75.3418 L 122.852 -88.623 C 105.176 -106.201 75.9277 -108.105 60.4492 -92.627 C 58.252 -90.4297 58.252 -87.9395 59.5215 -86.3281 C 60.4492 -85.1562 62.1582 -84.4238 64.2578 -84.7656 C 76.6602 -86.7676 87.0117 -86.5234 96.3379 -79.2969 L 91.1621 -67.8223 C 89.5508 -64.4531 90.0879 -61.5234 92.2363 -58.9844 L 18.9941 8.05664 C 13.3301 13.3301 12.9395 17.7246 17.8711 22.6562 Z M 62.1582 -90.3809 C 77.4902 -106.152 105.957 -101.807 120.068 -87.6953 L 134.375 -73.3887 C 136.67 -71.0938 137.354 -69.1895 136.719 -65.9668 L 135.059 -57.4219 L 143.652 -48.9258 L 149.219 -49.2188 C 151.221 -49.3164 152.686 -48.877 154.443 -47.168 L 160.156 -41.4551 L 139.795 -21.1914 L 134.18 -26.9043 C 132.422 -28.6133 132.031 -30.0781 132.08 -32.1289 L 132.422 -37.6953 L 123.877 -46.2891 L 115.43 -44.5801 C 112.158 -43.9453 110.254 -44.6289 107.91 -46.9238 L 95.6543 -59.1797 C 93.0176 -61.8652 92.4805 -64.3066 94.0918 -67.8711 L 99.5117 -80.1758 C 90.2832 -87.6953 79.3457 -90.332 63.3301 -87.5 C 61.5234 -87.207 60.6445 -88.8672 62.1582 -90.3809 Z M 29.4922 30.5176 L 19.6777 20.6543 C 16.2598 17.2363 16.5527 13.8184 20.8496 9.81445 L 94.0918 -57.0312 L 107.275 -43.7988 L 40.332 29.2969 C 36.4258 33.6426 32.9102 33.9355 29.4922 30.5176 Z"/>
  </g>
  <g id="Black-M" transform="matrix(1 0 0 1 2853 1126)">
   <path d="M 15.4785 13.5742 L 26.0742 24.1699 C 32.0312 30.127 39.8926 29.7363 45.9473 23.0469 L 101.562 -38.7207 C 103.223 -38.4277 104.932 -38.5254 106.934 -39.0137 L 109.717 -39.6973 L 110.645 -38.8184 L 110.4 -36.9629 C 109.912 -33.8867 111.328 -30.8105 114.453 -27.7344 L 118.457 -23.7793 C 122.461 -19.8242 127.686 -19.7266 131.445 -23.4863 L 146.777 -38.8184 C 150.586 -42.627 150.439 -47.9492 146.484 -51.9043 L 142.578 -55.9082 C 139.551 -58.9844 136.426 -60.2051 133.35 -59.9121 L 131.543 -59.7168 L 130.664 -60.5469 L 131.25 -63.4277 C 132.422 -68.75 131.152 -72.3145 126.074 -77.3926 L 116.748 -86.7188 C 98.7793 -104.639 71.3379 -105.811 54.4922 -88.916 C 51.5625 -85.9375 51.3672 -82.0801 52.9297 -79.0527 C 54.7363 -75.5859 58.8379 -73.1934 63.7207 -74.5117 C 71.1426 -76.5137 77.1484 -75.9277 82.2266 -73.291 L 80.2246 -68.3105 C 79.4434 -66.2598 79.0527 -64.3555 79.1016 -62.5488 L 16.5527 -6.34766 C 9.86328 -0.341797 9.47266 7.56836 15.4785 13.5742 Z M 71.3867 -85.4492 C 82.1289 -90.332 95.3613 -87.1094 104.346 -78.125 L 115.283 -67.2363 C 116.504 -66.0156 116.699 -64.8926 116.455 -63.1348 L 115.43 -56.3477 L 124.951 -46.8262 L 129.736 -47.0215 C 130.469 -47.0215 130.762 -46.875 131.25 -46.3867 L 131.641 -45.9961 L 123.877 -38.2324 L 123.486 -38.623 C 122.998 -39.1113 122.9 -39.4531 122.9 -40.1855 L 123.047 -44.9707 L 113.574 -54.4922 L 106.787 -53.418 C 105.029 -53.1738 103.906 -53.3691 102.637 -54.6387 L 95.9961 -61.2793 C 94.7266 -62.5 94.0918 -63.916 94.7266 -65.4785 L 99.1699 -76.1719 C 91.2598 -84.5703 80.8594 -86.9629 71.4844 -85.1074 C 71.2402 -85.0586 71.1426 -85.3027 71.3867 -85.4492 Z M 33.7402 9.42383 L 30.2246 5.81055 C 29.6387 5.22461 29.6875 4.83398 30.3223 4.24805 L 87.207 -49.9512 L 89.5508 -47.5586 L 35.4004 9.32617 C 34.8145 9.91211 34.2773 9.96094 33.7402 9.42383 Z"/>
  </g>
  <g id="Heavy-M" transform="matrix(1 0 0 1 2558.49 1126)">
   <path d="M 15.1855 12.5977 L 25.293 22.6562 C 30.8594 28.2715 37.9883 27.8809 43.75 21.582 L 98.2422 -38.8672 C 99.8047 -38.5254 101.465 -38.623 103.32 -39.0625 L 106.738 -39.7949 L 108.203 -38.3301 L 107.959 -36.2793 C 107.568 -33.3496 108.789 -30.5176 111.768 -27.6367 L 115.723 -23.7305 C 119.336 -20.166 124.072 -20.0195 127.49 -23.4375 L 142.627 -38.623 C 146.094 -42.041 145.947 -46.8262 142.383 -50.4395 L 138.477 -54.3945 C 135.596 -57.2754 132.764 -58.4473 129.834 -58.1543 L 127.783 -57.959 L 126.367 -59.3262 L 127.1 -62.8418 C 128.125 -67.5781 127.002 -70.8008 122.412 -75.3906 L 112.695 -85.1074 C 95.0195 -102.734 68.8477 -103.516 52.5391 -87.207 C 49.8047 -84.4727 49.6094 -80.8105 51.123 -78.0273 C 52.7832 -74.9512 56.4453 -72.8516 60.9375 -74.0723 C 68.3105 -75.9766 74.707 -75.6348 80.2734 -72.5098 L 78.0762 -66.9434 C 77.2461 -64.8438 76.8555 -62.8906 77.002 -61.0352 L 16.2109 -5.9082 C 9.96094 -0.244141 9.57031 6.93359 15.1855 12.5977 Z M 67.2363 -84.082 C 78.3203 -89.9414 92.2852 -87.1094 101.807 -77.6367 L 112.988 -66.4551 C 114.258 -65.2344 114.453 -64.1602 114.16 -62.4023 L 112.988 -55.5176 L 122.021 -46.4844 L 126.855 -46.6797 C 127.734 -46.6797 128.027 -46.582 128.662 -45.9473 L 129.639 -44.9707 L 120.801 -36.1816 L 119.824 -37.1582 C 119.238 -37.7441 119.092 -38.0859 119.092 -38.9648 L 119.336 -43.75 L 110.303 -52.7832 L 103.32 -51.709 C 101.611 -51.416 100.586 -51.6113 99.3164 -52.832 L 91.8945 -60.2539 C 90.625 -61.5234 90.0879 -62.793 90.7715 -64.4043 L 95.166 -75.0488 C 87.3047 -83.1543 76.9531 -85.7422 67.4316 -83.6426 C 67.041 -83.5449 66.8945 -83.8867 67.2363 -84.082 Z M 32.0312 9.91211 L 27.9297 5.81055 C 26.9531 4.78516 27.0996 4.10156 28.0273 3.22266 L 84.2773 -50.1953 L 87.793 -46.6309 L 34.6191 9.81445 C 33.7891 10.7422 32.959 10.8887 32.0312 9.91211 Z"/>
  </g>
  <g id="Bold-M" transform="matrix(1 0 0 1 2264.25 1126)">
   <path d="M 14.8438 11.4746 L 24.4141 20.9961 C 29.541 26.1719 35.8887 25.8301 41.2598 19.9219 L 94.4824 -39.0137 C 95.9961 -38.623 97.5098 -38.7207 99.3164 -39.1113 L 103.369 -39.9414 L 105.469 -37.793 L 105.273 -35.498 C 104.932 -32.7148 105.957 -30.2246 108.74 -27.4902 L 112.646 -23.6816 C 115.869 -20.5078 120.02 -20.3613 123.047 -23.3887 L 137.988 -38.3789 C 141.064 -41.4551 140.967 -45.6055 137.744 -48.7793 L 133.887 -52.6855 C 131.201 -55.4199 128.711 -56.4453 125.928 -56.1523 L 123.584 -55.957 L 121.582 -57.959 L 122.461 -62.207 C 123.34 -66.3086 122.314 -69.1406 118.311 -73.1445 L 108.203 -83.3008 C 90.8691 -100.586 66.0645 -100.977 50.3906 -85.2539 C 47.8516 -82.7637 47.7051 -79.3945 49.0723 -76.9043 C 50.5371 -74.2676 53.7598 -72.5098 57.8125 -73.5352 C 65.1855 -75.3906 72.0215 -75.293 78.0762 -71.582 L 75.6348 -65.4785 C 74.7559 -63.2324 74.4629 -61.2305 74.707 -59.4238 L 15.8691 -5.41992 C 10.0586 -0.146484 9.66797 6.25 14.8438 11.4746 Z M 62.5488 -82.6172 C 74.0234 -89.502 88.8672 -87.1582 98.9258 -77.0996 L 110.449 -65.625 C 111.67 -64.4043 111.865 -63.3789 111.572 -61.6211 L 110.254 -54.541 L 118.799 -46.0449 L 123.633 -46.2891 C 124.609 -46.3379 125 -46.2402 125.732 -45.5078 L 127.344 -43.8477 L 117.334 -33.8379 L 115.723 -35.498 C 114.99 -36.2305 114.844 -36.5723 114.893 -37.5977 L 115.137 -42.4316 L 106.641 -50.9277 L 99.4629 -49.7559 C 97.8027 -49.4629 96.8262 -49.6094 95.6055 -50.8301 L 87.2559 -59.1797 C 86.0352 -60.4004 85.6445 -61.5234 86.3281 -63.2324 L 90.7227 -73.7793 C 82.8613 -81.6406 72.6074 -84.375 62.8418 -81.9824 C 62.3535 -81.8359 62.1094 -82.2754 62.5488 -82.6172 Z M 30.0781 10.4492 L 25.3906 5.76172 C 23.9258 4.29688 24.2188 3.27148 25.4883 2.05078 L 80.957 -50.4395 L 85.8398 -45.5566 L 33.7891 10.3516 C 32.6172 11.6699 31.4941 11.9141 30.0781 10.4492 Z"/>
  </g>
  <g id="Semibold-M" transform="matrix(1 0 0 1 1969.24 1126)">
   <path d="M 14.5996 10.6934 L 23.7793 19.873 C 28.6133 24.7559 34.4727 24.4141 39.5508 18.7988 L 91.9434 -39.1113 C 93.3594 -38.7207 94.8242 -38.7695 96.5332 -39.1602 L 101.074 -39.9902 L 103.613 -37.4512 L 103.369 -34.9609 C 103.125 -32.2754 104.004 -29.9805 106.689 -27.3926 L 110.547 -23.6328 C 113.428 -20.7031 117.188 -20.5566 119.971 -23.3887 L 134.814 -38.2324 C 137.598 -41.0156 137.5 -44.7266 134.57 -47.6562 L 130.713 -51.5137 C 128.125 -54.1016 125.879 -55.0781 123.242 -54.834 L 120.703 -54.5898 L 118.262 -57.0312 L 119.287 -61.7676 C 120.068 -65.3809 119.141 -68.0176 115.527 -71.6309 L 105.078 -82.0312 C 87.9883 -99.0723 64.1113 -99.2188 48.877 -83.9355 C 46.5332 -81.6406 46.3867 -78.418 47.6562 -76.123 C 49.0234 -73.7793 51.9043 -72.2656 55.6641 -73.1934 C 62.9883 -75 70.1172 -75.0488 76.6113 -70.9961 L 73.9746 -64.4531 C 73.0469 -62.1582 72.8027 -60.1562 73.1934 -58.3008 L 15.625 -5.07812 C 10.1562 -0.0488281 9.76562 5.81055 14.5996 10.6934 Z M 59.375 -81.5918 C 71.0449 -89.209 86.5234 -87.1582 96.9727 -76.709 L 108.691 -64.9902 C 109.912 -63.8184 110.107 -62.793 109.814 -61.084 L 108.398 -53.9062 L 116.553 -45.8008 L 121.387 -46.0449 C 122.51 -46.0938 122.9 -45.9961 123.682 -45.166 L 125.781 -43.0664 L 114.99 -32.2754 L 112.891 -34.375 C 112.061 -35.1562 111.914 -35.5469 111.963 -36.6699 L 112.256 -41.5039 L 104.15 -49.6582 L 96.7773 -48.3887 C 95.166 -48.1445 94.2871 -48.2422 93.0664 -49.4629 L 84.082 -58.3984 C 82.8613 -59.6191 82.5684 -60.6445 83.3008 -62.4023 L 87.6953 -72.9004 C 79.834 -80.5664 69.5801 -83.4473 59.7168 -80.8105 C 59.082 -80.6641 58.8379 -81.2012 59.375 -81.5918 Z M 28.7109 10.8398 L 23.584 5.76172 C 21.8262 4.00391 22.2168 2.68555 23.7305 1.26953 L 78.7109 -50.6348 L 84.4727 -44.8242 L 33.2031 10.7422 C 31.7871 12.2559 30.4688 12.6465 28.7109 10.8398 Z"/>
  </g>
  <g id="Medium-M" transform="matrix(1 0 0 1 1673.8 1126)">
   <path d="M 14.4531 10.1074 L 23.3398 18.9941 C 27.9297 23.6328 33.3496 23.3398 38.2812 17.9199 L 89.9902 -39.1602 C 91.3574 -38.7695 92.7734 -38.8672 94.4336 -39.1602 L 99.3164 -40.0879 L 102.197 -37.1582 L 101.953 -34.5703 C 101.758 -31.9824 102.539 -29.834 105.078 -27.3438 L 108.936 -23.584 C 111.621 -20.8984 115.088 -20.752 117.676 -23.3398 L 132.373 -38.0859 C 134.961 -40.7227 134.863 -44.0918 132.178 -46.7773 L 128.32 -50.6348 C 125.83 -53.125 123.73 -54.0039 121.191 -53.8086 L 118.506 -53.5645 L 115.723 -56.2988 L 116.846 -61.4258 C 117.578 -64.6973 116.699 -67.1387 113.379 -70.459 L 102.686 -81.1035 C 85.791 -97.9492 62.6465 -97.8516 47.7539 -82.959 C 45.5078 -80.7617 45.3613 -77.6855 46.6309 -75.5371 C 47.9004 -73.4375 50.4883 -72.0703 54.0039 -72.9492 C 61.377 -74.707 68.7012 -74.8535 75.4395 -70.5078 L 72.7051 -63.6719 C 71.7285 -61.3281 71.5332 -59.3262 72.0215 -57.5195 L 15.4785 -4.83398 C 10.2051 0 9.81445 5.41992 14.4531 10.1074 Z M 56.9336 -80.8105 C 68.8477 -88.9648 84.7168 -87.1582 95.459 -76.416 L 107.373 -64.5508 C 108.594 -63.3789 108.789 -62.4023 108.447 -60.6934 L 106.982 -53.418 L 114.844 -45.5566 L 119.727 -45.8496 C 120.898 -45.8984 121.289 -45.8008 122.168 -44.9219 L 124.609 -42.4805 L 113.184 -31.0547 L 110.742 -33.4961 C 109.863 -34.375 109.717 -34.7656 109.766 -35.9863 L 110.059 -40.8203 L 102.246 -48.6816 L 94.7754 -47.4121 C 93.1641 -47.1191 92.334 -47.2168 91.1133 -48.4375 L 81.6895 -57.8125 C 80.4199 -59.0332 80.2246 -59.9609 80.957 -61.7676 L 85.3516 -72.2656 C 77.5391 -79.7363 67.334 -82.7148 57.3242 -79.9316 C 56.6406 -79.7852 56.3477 -80.3711 56.9336 -80.8105 Z M 27.6855 11.1328 L 22.2656 5.76172 C 20.2148 3.71094 20.7031 2.29492 22.4121 0.683594 L 77.002 -50.7812 L 83.4473 -44.2871 L 32.7148 11.0352 C 31.1523 12.7441 29.6875 13.1836 27.6855 11.1328 Z"/>
  </g>
  <g id="Regular-M" transform="matrix(1 0 0 1 1378.78 1126)">
   <path d="M 14.209 9.32617 L 22.7051 17.8711 C 27.002 22.2168 31.9336 21.9238 36.5723 16.7969 L 87.4512 -39.2578 C 88.7695 -38.8184 90.1367 -38.916 91.6992 -39.209 L 97.0215 -40.1855 L 100.342 -36.8164 L 100.146 -34.0332 C 99.9512 -31.543 100.586 -29.6387 103.027 -27.2461 L 106.836 -23.5352 C 109.229 -21.1426 112.305 -20.9961 114.648 -23.3398 L 129.199 -37.9395 C 131.543 -40.2832 131.445 -43.2617 129.053 -45.6543 L 125.195 -49.4629 C 122.803 -51.8555 120.947 -52.6367 118.555 -52.4414 L 115.674 -52.1973 L 112.451 -55.3711 L 113.672 -60.9863 C 114.307 -63.8184 113.525 -66.0156 110.596 -68.9453 L 99.6094 -79.8828 C 82.9102 -96.4844 60.7422 -96.0938 46.2891 -81.6406 C 44.1895 -79.5898 44.043 -76.709 45.2148 -74.7559 C 46.3867 -72.9492 48.6816 -71.7773 51.9043 -72.6074 C 59.2285 -74.3164 66.8457 -74.6094 73.9746 -69.9219 L 71.0449 -62.6465 C 70.0684 -60.2539 69.9219 -58.252 70.5566 -56.4453 L 15.2344 -4.49219 C 10.3027 0.0976562 9.91211 4.98047 14.209 9.32617 Z M 53.7598 -79.7852 C 65.918 -88.6719 82.373 -87.1582 93.5059 -76.0254 L 105.664 -63.9648 C 106.836 -62.793 107.031 -61.8652 106.689 -60.1562 L 105.078 -52.7344 L 112.598 -45.3125 L 117.529 -45.6055 C 118.799 -45.6543 119.189 -45.5566 120.166 -44.5801 L 123.047 -41.6992 L 110.84 -29.4922 L 107.959 -32.373 C 106.982 -33.3496 106.836 -33.7402 106.885 -35.0586 L 107.227 -39.9414 L 99.7559 -47.3633 L 92.1387 -46.0938 C 90.5273 -45.752 89.7949 -45.8984 88.5742 -47.0703 L 78.5645 -57.0801 C 77.2949 -58.252 77.1484 -59.082 77.9297 -60.9375 L 82.3242 -71.3867 C 74.5117 -78.6621 64.3555 -81.7871 54.1992 -78.8086 C 53.418 -78.6133 53.125 -79.248 53.7598 -79.7852 Z M 26.3672 11.5234 L 20.5078 5.71289 C 18.1641 3.41797 18.7012 1.70898 20.7031 -0.0976562 L 74.7559 -50.9766 L 82.0801 -43.5547 L 32.1289 11.377 C 30.3711 13.3789 28.7109 13.8672 26.3672 11.5234 Z"/>
  </g>
  <g id="Light-M" transform="matrix(1 0 0 1 1082.8 1126)">
   <path d="M 14.1113 9.42383 L 22.2656 17.627 C 26.4648 21.8262 30.9082 21.5332 35.3516 16.6504 L 86.6211 -39.6484 C 87.8418 -39.1602 89.1602 -39.2578 90.7715 -39.5508 L 96.4844 -40.5762 L 100.391 -36.6699 L 100.244 -33.8867 C 100.146 -31.25 100.537 -29.541 102.979 -27.1484 L 106.836 -23.3887 C 108.838 -21.3867 111.279 -21.2891 113.232 -23.2422 L 128.027 -38.0371 C 129.98 -40.0879 129.932 -42.4316 127.93 -44.3848 L 124.072 -48.291 C 121.631 -50.6348 120.068 -51.2207 117.432 -51.0742 L 114.551 -50.8789 L 110.742 -54.6875 L 111.914 -60.2539 C 112.549 -63.1836 111.816 -65.3809 109.033 -68.1152 L 98.2422 -78.8574 C 82.4707 -94.5801 60.1562 -94.7266 46.4844 -81.0547 C 44.4824 -79.1016 44.3848 -76.5137 45.5078 -74.7559 C 46.5332 -73.2422 48.5352 -72.2656 51.2695 -72.9004 C 59.2773 -74.5605 67.041 -74.7559 74.2188 -69.7266 L 70.8984 -61.9629 C 69.873 -59.4727 69.873 -57.373 70.752 -55.5176 L 15.0879 -3.61328 C 10.3027 0.830078 9.96094 5.22461 14.1113 9.42383 Z M 52.0508 -79.248 C 64.1113 -89.1602 82.3242 -87.0605 93.3594 -75.9766 L 105.176 -64.209 C 106.592 -62.8418 106.885 -61.7676 106.494 -59.8145 L 104.98 -52.6367 L 112.207 -45.459 L 116.943 -45.752 C 118.311 -45.8008 118.945 -45.6543 120.02 -44.5312 L 123.389 -41.1621 L 110.059 -27.8809 L 106.738 -31.25 C 105.664 -32.3242 105.42 -32.959 105.469 -34.375 L 105.811 -39.0625 L 98.6328 -46.2891 L 91.3086 -44.9707 C 89.4043 -44.5801 88.4277 -44.8242 87.0605 -46.2402 L 77.1973 -56.0547 C 75.6836 -57.5195 75.4883 -58.6914 76.416 -60.8398 L 80.7129 -70.9473 C 73.0957 -77.832 63.4766 -80.5664 52.6367 -77.8809 C 51.6602 -77.6367 51.2207 -78.5156 52.0508 -79.248 Z M 25.293 12.8418 L 18.8965 6.44531 C 16.4551 4.00391 16.8945 2.05078 19.2871 -0.146484 L 74.1699 -51.3184 L 82.4219 -43.0176 L 31.8848 12.4512 C 29.7363 14.8438 27.7344 15.2344 25.293 12.8418 Z"/>
  </g>
  <g id="Thin-M" transform="matrix(1 0 0 1 787.037 1126)">
   <path d="M 13.9648 9.57031 L 21.7285 17.2852 C 25.6836 21.2891 29.541 20.9473 33.7402 16.4062 L 85.498 -40.1367 C 86.6699 -39.6484 87.8906 -39.6484 89.5996 -39.9902 L 95.8008 -41.1621 L 100.488 -36.4746 L 100.391 -33.7402 C 100.342 -30.8105 100.439 -29.3945 102.881 -27.0508 L 106.836 -23.1445 C 108.301 -21.7285 109.863 -21.6797 111.377 -23.1934 L 126.416 -38.2324 C 127.93 -39.7461 127.93 -41.3086 126.465 -42.7734 L 122.51 -46.6797 C 120.117 -49.0234 118.848 -49.3164 115.918 -49.2188 L 113.135 -49.1211 L 108.496 -53.7598 L 109.57 -59.2773 C 110.205 -62.4023 109.521 -64.5508 106.982 -67.041 L 96.4844 -77.5391 C 81.9336 -91.9922 59.375 -92.9688 46.7285 -80.2734 C 44.873 -78.4668 44.873 -76.2695 45.8984 -74.8047 C 46.7285 -73.6328 48.3398 -72.9004 50.3906 -73.3398 C 59.375 -74.9023 67.2852 -74.9023 74.4629 -69.5312 L 70.752 -61.084 C 69.6289 -58.4961 69.8242 -56.2988 71.1426 -54.3457 L 14.8926 -2.44141 C 10.3516 1.75781 10.0098 5.56641 13.9648 9.57031 Z M 49.7559 -78.4668 C 61.7188 -89.7461 82.2266 -86.9141 93.2129 -75.9277 L 104.59 -64.5508 C 106.201 -62.9395 106.641 -61.6211 106.152 -59.3262 L 104.785 -52.5391 L 111.719 -45.7031 L 116.162 -45.9473 C 117.676 -45.9961 118.604 -45.752 119.824 -44.4824 L 123.828 -40.5273 L 109.082 -25.7812 L 105.127 -29.7852 C 103.857 -31.0059 103.613 -31.9336 103.662 -33.4473 L 103.906 -37.9395 L 97.0703 -44.8242 L 90.2344 -43.5059 C 87.9395 -43.0176 86.6699 -43.457 85.0586 -45.0684 L 75.3906 -54.6875 C 73.584 -56.543 73.2422 -58.1543 74.3652 -60.6445 L 78.6133 -70.4102 C 71.2402 -76.6602 62.3047 -79.0039 50.5371 -76.6113 C 49.3164 -76.3672 48.7305 -77.4902 49.7559 -78.4668 Z M 23.877 14.5508 L 16.748 7.42188 C 14.1602 4.83398 14.502 2.49023 17.4805 -0.244141 L 73.4375 -51.8066 L 82.8613 -42.334 L 31.543 13.8184 C 28.8574 16.7969 26.416 17.0898 23.877 14.5508 Z"/>
  </g>
  <g id="Ultralight-M" transform="matrix(1 0 0 1 490.815 1126)">
   <path d="M 13.916 9.61914 L 21.4355 17.1387 C 25.293 20.9961 28.8086 20.7031 32.9102 16.2598 L 84.9609 -40.4297 C 86.0352 -39.8926 87.207 -39.8438 88.9648 -40.1855 L 95.459 -41.4551 L 100.537 -36.377 L 100.488 -33.6426 C 100.439 -30.5664 100.439 -29.3457 102.832 -26.9531 L 106.836 -23.0469 C 108.008 -21.875 109.131 -21.875 110.449 -23.1445 L 125.586 -38.3301 C 126.904 -39.5996 126.904 -40.7715 125.732 -41.9434 L 121.729 -45.8496 C 119.287 -48.2422 118.213 -48.3398 115.137 -48.291 L 112.402 -48.1934 L 107.324 -53.3203 L 108.35 -58.7891 C 108.984 -61.9629 108.35 -64.1602 105.957 -66.5039 L 95.5566 -76.8555 C 81.6406 -90.6738 59.0332 -92.041 46.8262 -79.834 C 45.1172 -78.125 45.1172 -76.123 46.0938 -74.8535 C 46.8262 -73.877 48.2422 -73.2422 49.9512 -73.5352 C 59.4238 -75.0977 67.3828 -74.9512 74.6582 -69.3848 L 70.7031 -60.6445 C 69.4824 -58.0566 69.8242 -55.8105 71.3867 -53.8086 L 14.7949 -1.85547 C 10.3516 2.24609 10.0586 5.76172 13.916 9.61914 Z M 48.584 -78.125 C 60.498 -90.0879 82.1777 -86.8652 93.1152 -75.8789 L 104.248 -64.7461 C 106.006 -62.9883 106.543 -61.5723 106.006 -59.1309 L 104.736 -52.4414 L 111.426 -45.8008 L 115.771 -46.0449 C 117.334 -46.0938 118.408 -45.8008 119.727 -44.4824 L 124.072 -40.1367 L 108.545 -24.707 L 104.297 -29.0527 C 102.979 -30.3223 102.637 -31.3965 102.734 -32.959 L 102.979 -37.3535 L 96.2891 -44.043 L 89.6484 -42.7246 C 87.207 -42.2363 85.791 -42.7246 84.0332 -44.4824 L 74.4629 -54.0039 C 72.4609 -56.0547 72.1191 -57.8613 73.291 -60.5469 L 77.5391 -70.1172 C 70.3125 -76.0742 61.7188 -78.2227 49.4629 -75.9766 C 48.0957 -75.7324 47.4609 -76.9531 48.584 -78.125 Z M 23.1445 15.4297 L 15.625 7.91016 C 13.0371 5.27344 13.2812 2.73438 16.5039 -0.292969 L 73.0957 -52.0508 L 83.1055 -41.9922 L 31.3477 14.5508 C 28.418 17.7734 25.7812 18.0176 23.1445 15.4297 Z"/>
  </g>
  <g id="Black-S" transform="matrix(1 0 0 1 2870.58 696)">
   <path d="M 12.1094 2.92969 L 20.3613 11.1816 C 25 15.8203 31.1035 15.5273 35.8398 10.3027 L 79.2969 -37.9883 C 80.6152 -37.7441 81.9336 -37.8418 83.4961 -38.1836 L 85.7422 -38.7207 L 86.4746 -37.9883 L 86.2793 -36.5234 C 85.9375 -34.1309 87.0117 -31.7383 89.4531 -29.3457 L 92.5781 -26.2695 C 95.7031 -23.1934 99.7559 -23.0957 102.686 -26.0254 L 114.697 -38.0371 C 117.627 -40.9668 117.529 -45.1172 114.453 -48.1934 L 111.377 -51.3184 C 109.033 -53.7109 106.592 -54.6875 104.199 -54.4434 L 102.783 -54.2969 L 102.051 -54.9805 L 102.539 -57.2754 C 103.418 -61.4258 102.441 -64.1602 98.4863 -68.1152 L 91.1621 -75.4395 C 77.0996 -89.502 55.7129 -90.3809 42.5293 -77.1484 C 40.2344 -74.8535 40.0879 -71.8262 41.3086 -69.4824 C 42.7246 -66.7969 45.8984 -64.9414 49.707 -65.9668 C 55.5176 -67.5293 60.2539 -67.0898 64.2578 -64.9902 L 62.6953 -61.0352 C 62.0605 -59.4238 61.7676 -57.9102 61.7676 -56.543 L 12.9395 -12.5977 C 7.71484 -7.91016 7.42188 -1.75781 12.1094 2.92969 Z M 55.6152 -74.4629 C 64.0625 -78.3691 74.4629 -75.8789 81.543 -68.7988 L 90.1367 -60.2539 C 91.1133 -59.2773 91.2598 -58.3984 91.0645 -57.0312 L 90.2344 -51.709 L 97.6562 -44.2871 L 101.416 -44.4336 C 102.002 -44.4336 102.246 -44.3359 102.637 -43.9453 L 102.979 -43.6035 L 96.8262 -37.4512 L 96.4844 -37.793 C 96.0938 -38.1836 95.9961 -38.4277 95.9961 -39.0137 L 96.1426 -42.7734 L 88.7207 -50.1953 L 83.3984 -49.3652 C 82.0312 -49.1699 81.1523 -49.3164 80.1758 -50.293 L 74.9023 -55.5664 C 73.9258 -56.543 73.4375 -57.6172 73.9258 -58.8379 L 77.3926 -67.2363 C 71.1914 -73.7793 63.0371 -75.6836 55.7129 -74.2188 C 55.5176 -74.1699 55.4199 -74.3652 55.6152 -74.4629 Z M 26.3184 -0.244141 L 23.5352 -3.07617 C 23.0469 -3.56445 23.0957 -3.90625 23.584 -4.39453 L 68.0664 -46.7773 L 70.0195 -44.8242 L 27.6855 -0.292969 C 27.1973 0.195312 26.7578 0.244141 26.3184 -0.244141 Z"/>
  </g>
  <g id="Heavy-S" transform="matrix(1 0 0 1 2575.48 696)">
   <path d="M 11.8652 2.14844 L 19.7754 10.0586 C 24.1699 14.4531 29.7852 14.1602 34.2773 9.17969 L 76.8555 -38.0371 C 78.0762 -37.793 79.3945 -37.8418 80.8594 -38.1836 L 83.4961 -38.7695 L 84.6191 -37.6465 L 84.4238 -36.0352 C 84.1309 -33.7402 85.0586 -31.543 87.4023 -29.2969 L 90.4785 -26.2207 C 93.3594 -23.3887 97.1191 -23.291 99.8047 -25.9766 L 111.67 -37.8418 C 114.355 -40.5762 114.258 -44.3848 111.426 -47.2168 L 108.35 -50.293 C 106.152 -52.5391 103.906 -53.4668 101.66 -53.2715 L 100.049 -53.0762 L 98.9746 -54.1016 L 99.5605 -56.9336 C 100.342 -60.5957 99.4629 -63.0859 95.8496 -66.6992 L 88.2324 -74.3164 C 74.2676 -88.2324 53.8574 -88.7695 41.0156 -75.9277 C 38.8672 -73.7793 38.7207 -70.8984 39.8926 -68.7012 C 41.2109 -66.3086 44.0918 -64.6484 47.6562 -65.5762 C 53.3691 -67.0898 58.3496 -66.8457 62.7441 -64.4043 L 61.0352 -60.1074 C 60.4004 -58.4473 60.1074 -56.9336 60.2051 -55.5176 L 12.6953 -12.3535 C 7.8125 -7.91016 7.4707 -2.24609 11.8652 2.14844 Z M 52.6367 -73.4863 C 61.3281 -78.0273 72.1191 -75.8789 79.5898 -68.4082 L 88.4277 -59.6191 C 89.4043 -58.6914 89.5508 -57.8613 89.3066 -56.543 L 88.3789 -51.0742 L 95.459 -43.9941 L 99.2676 -44.1406 C 99.9512 -44.1895 100.195 -44.0918 100.635 -43.6035 L 101.367 -42.8711 L 94.5312 -36.0352 L 93.7988 -36.7676 C 93.3594 -37.2559 93.2617 -37.5 93.2617 -38.1836 L 93.457 -41.9434 L 86.377 -49.0234 L 80.8594 -48.1445 C 79.541 -47.9492 78.7598 -48.0957 77.7832 -49.0234 L 71.875 -54.9316 C 70.9473 -55.8594 70.5566 -56.7871 71.0449 -58.0566 L 74.5117 -66.4062 C 68.3105 -72.8027 60.1562 -74.9023 52.7344 -73.1934 C 52.4902 -73.0957 52.3926 -73.3398 52.6367 -73.4863 Z M 25.0977 0 L 21.9727 -3.17383 C 21.1426 -3.95508 21.2891 -4.49219 21.9727 -5.17578 L 65.918 -46.9238 L 68.6523 -44.1895 L 27.0996 -0.0488281 C 26.4648 0.634766 25.8301 0.78125 25.0977 0 Z"/>
  </g>
  <g id="Bold-S" transform="matrix(1 0 0 1 2280.55 696)">
   <path d="M 11.6211 1.26953 L 19.1895 8.83789 C 23.1934 12.8906 28.3203 12.6465 32.5195 7.95898 L 74.1211 -38.0859 C 75.293 -37.8418 76.5137 -37.8906 77.8809 -38.1836 L 81.0059 -38.8184 L 82.5195 -37.2559 L 82.3242 -35.4492 C 82.0801 -33.3008 82.9102 -31.2988 85.1074 -29.1992 L 88.1348 -26.2207 C 90.7227 -23.6328 94.1406 -23.4863 96.582 -25.9766 L 108.252 -37.6465 C 110.693 -40.1367 110.596 -43.5059 108.057 -46.0938 L 105.029 -49.1699 C 102.93 -51.2695 100.879 -52.1484 98.8281 -51.9043 L 96.9727 -51.709 L 95.5078 -53.1738 L 96.2402 -56.4941 C 96.9238 -59.668 96.0938 -61.9141 92.9199 -65.0879 L 84.9121 -73.0469 C 71.1426 -86.8164 51.7578 -86.9629 39.3555 -74.5117 C 37.3535 -72.5586 37.207 -69.8242 38.2812 -67.8223 C 39.502 -65.7227 42.041 -64.3066 45.3125 -65.1855 C 50.9277 -66.6016 56.25 -66.5527 61.0352 -63.7207 L 59.1797 -59.0332 C 58.4961 -57.3242 58.252 -55.8105 58.4473 -54.3945 L 12.4512 -12.1094 C 7.86133 -7.91016 7.56836 -2.83203 11.6211 1.26953 Z M 49.2676 -72.4609 C 58.3008 -77.6367 69.5312 -75.9277 77.4414 -68.0176 L 86.5723 -58.9355 C 87.4512 -58.0566 87.5977 -57.2754 87.4023 -55.957 L 86.3281 -50.3418 L 93.0176 -43.6523 L 96.875 -43.8477 C 97.6562 -43.8965 97.8516 -43.7988 98.4375 -43.2617 L 99.6094 -42.0898 L 91.9922 -34.4727 L 90.8203 -35.6445 C 90.2832 -36.1816 90.1855 -36.4258 90.1855 -37.207 L 90.4297 -41.0645 L 83.7402 -47.7539 L 77.9785 -46.8262 C 76.7578 -46.6309 76.0742 -46.6797 75.1465 -47.6074 L 68.5547 -54.1992 C 67.627 -55.0781 67.334 -55.8594 67.8711 -57.1289 L 71.3379 -65.4785 C 65.1367 -71.7285 56.9336 -73.9746 49.4629 -72.0215 C 49.1211 -71.9238 48.9746 -72.2168 49.2676 -72.4609 Z M 23.7305 0.292969 L 20.166 -3.27148 C 19.043 -4.44336 19.2871 -5.17578 20.2148 -6.05469 L 63.4277 -47.0703 L 67.0898 -43.4082 L 26.4648 0.244141 C 25.6348 1.17188 24.8535 1.41602 23.7305 0.292969 Z"/>
  </g>
  <g id="Semibold-S" transform="matrix(1 0 0 1 1985.09 696)">
   <path d="M 11.4746 0.683594 L 18.75 8.00781 C 22.5586 11.8652 27.2949 11.5723 31.3477 7.12891 L 72.2168 -38.1348 C 73.3398 -37.8418 74.5117 -37.9395 75.8301 -38.1836 L 79.248 -38.8184 L 81.1035 -37.0117 L 80.9082 -35.0586 C 80.6641 -33.0078 81.4453 -31.1523 83.4961 -29.1504 L 86.5234 -26.1719 C 88.916 -23.7793 92.0898 -23.6816 94.3848 -25.9766 L 105.908 -37.5 C 108.203 -39.8438 108.105 -42.9199 105.713 -45.3125 L 102.686 -48.3398 C 100.684 -50.3906 98.8281 -51.2207 96.8262 -50.9766 L 94.8242 -50.7812 L 93.1152 -52.4902 L 93.8965 -56.25 C 94.5312 -59.0332 93.7988 -61.084 90.918 -63.9648 L 82.666 -72.2168 C 68.9453 -85.8887 50.3418 -85.7422 38.1836 -73.5352 C 36.2793 -71.6797 36.1328 -69.0918 37.207 -67.2363 C 38.2812 -65.332 40.625 -64.0625 43.75 -64.8438 C 49.2676 -66.3086 54.7852 -66.3574 59.8633 -63.2812 L 57.9102 -58.3008 C 57.2266 -56.543 57.0312 -55.0293 57.2266 -53.6621 L 12.3047 -11.9141 C 7.95898 -7.91016 7.61719 -3.17383 11.4746 0.683594 Z M 46.9727 -71.7285 C 56.1523 -77.3438 67.7246 -75.9277 75.9277 -67.7246 L 85.2539 -58.4473 C 86.1328 -57.5684 86.2793 -56.8359 86.0352 -55.6152 L 84.8633 -49.8535 L 91.3574 -43.457 L 95.2148 -43.6523 C 96.0449 -43.7012 96.2891 -43.6035 96.875 -43.0176 L 98.3887 -41.5039 L 90.2344 -33.3984 L 88.7695 -34.8633 C 88.1348 -35.498 88.0371 -35.6934 88.0859 -36.5723 L 88.3301 -40.4297 L 81.8848 -46.8262 L 76.0254 -45.8984 C 74.8047 -45.7031 74.2188 -45.752 73.291 -46.6309 L 66.2109 -53.7109 C 65.332 -54.5898 65.1367 -55.2246 65.6738 -56.543 L 69.1406 -64.8438 C 62.8906 -70.9961 54.7363 -73.3398 47.168 -71.2402 C 46.7773 -71.0938 46.6309 -71.4355 46.9727 -71.7285 Z M 22.8027 0.439453 L 18.9453 -3.36914 C 17.5781 -4.73633 17.9199 -5.61523 18.9941 -6.64062 L 61.7676 -47.168 L 66.0156 -42.9199 L 26.0742 0.439453 C 25.0977 1.51367 24.1699 1.80664 22.8027 0.439453 Z"/>
  </g>
  <g id="Medium-S" transform="matrix(1 0 0 1 1689.3 696)">
   <path d="M 11.3281 0.195312 L 18.4082 7.32422 C 22.0703 11.0352 26.5137 10.791 30.4199 6.49414 L 70.8008 -38.1836 C 71.875 -37.8906 72.998 -37.9395 74.2676 -38.1836 L 77.9297 -38.8672 L 79.9805 -36.8164 L 79.7852 -34.7656 C 79.6387 -32.8125 80.3223 -31.0547 82.3242 -29.1016 L 85.3027 -26.1719 C 87.5488 -23.9258 90.5273 -23.7793 92.6758 -25.9277 L 104.15 -37.4023 C 106.299 -39.5996 106.201 -42.4805 103.955 -44.7754 L 100.928 -47.7539 C 98.9746 -49.707 97.2656 -50.4883 95.3613 -50.293 L 93.2129 -50.0977 L 91.3086 -52.002 L 92.1875 -56.0059 C 92.7246 -58.5449 92.041 -60.498 89.4043 -63.1348 L 80.957 -71.5332 C 67.2852 -85.1074 49.2676 -84.8145 37.3047 -72.8516 C 35.498 -71.0449 35.3516 -68.5547 36.377 -66.748 C 37.4023 -65.0391 39.5996 -63.8672 42.5293 -64.6484 C 47.998 -66.0645 53.7109 -66.2109 58.9844 -62.9395 L 56.9336 -57.7637 C 56.25 -55.957 56.0547 -54.4434 56.3477 -53.0762 L 12.1582 -11.7676 C 8.00781 -7.91016 7.66602 -3.4668 11.3281 0.195312 Z M 45.2148 -71.1426 C 54.5898 -77.1484 66.3574 -75.9277 74.8047 -67.5293 L 84.2773 -58.1055 C 85.1562 -57.2266 85.2539 -56.543 85.0098 -55.3223 L 83.7891 -49.5117 L 90.0879 -43.2617 L 93.9453 -43.5059 C 94.8242 -43.5547 95.0684 -43.457 95.7031 -42.8223 L 97.4609 -41.1133 L 88.916 -32.5684 L 87.207 -34.2773 C 86.5234 -34.9121 86.4258 -35.1562 86.4746 -36.084 L 86.7676 -39.9414 L 80.5176 -46.1914 L 74.5117 -45.166 C 73.3398 -44.9707 72.8027 -45.0195 71.9238 -45.8984 L 64.4531 -53.3203 C 63.5742 -54.1504 63.4277 -54.7852 64.0137 -56.0547 L 67.4316 -64.4043 C 61.2305 -70.4102 53.0273 -72.9004 45.459 -70.6055 C 45.0195 -70.5078 44.8242 -70.8496 45.2148 -71.1426 Z M 22.0703 0.585938 L 18.0176 -3.41797 C 16.5039 -4.98047 16.8945 -6.00586 18.0664 -7.08008 L 60.498 -47.2656 L 65.1855 -42.5293 L 25.7324 0.585938 C 24.6582 1.80664 23.6328 2.14844 22.0703 0.585938 Z"/>
  </g>
  <g id="Regular-S" transform="matrix(1 0 0 1 1393.81 696)">
   <path d="M 11.1816 -0.390625 L 18.0176 6.49414 C 21.4355 10.0098 25.5371 9.76562 29.248 5.61523 L 68.8965 -38.1836 C 69.9707 -37.8906 71.0449 -37.9883 72.2656 -38.1836 L 76.2207 -38.8672 L 78.5645 -36.5723 L 78.3691 -34.375 C 78.2227 -32.5195 78.8574 -30.9082 80.7617 -29.0527 L 83.6914 -26.123 C 85.791 -24.0723 88.5254 -23.9258 90.4785 -25.9277 L 101.807 -37.2559 C 103.809 -39.3066 103.711 -41.8945 101.611 -43.9941 L 98.6328 -46.9727 C 96.7773 -48.8281 95.2148 -49.5605 93.4082 -49.4141 L 91.1133 -49.1699 L 88.916 -51.3672 L 89.8926 -55.7617 C 90.3809 -57.9102 89.7461 -59.668 87.4023 -62.0117 L 78.7109 -70.7031 C 65.1855 -84.1797 47.8516 -83.5938 36.1328 -71.875 C 34.4727 -70.2148 34.3262 -67.8223 35.3027 -66.1621 C 36.2305 -64.6484 38.1836 -63.6719 40.9668 -64.3555 C 46.3379 -65.7227 52.2461 -66.0156 57.8613 -62.4512 L 55.7129 -57.0312 C 54.9805 -55.2246 54.834 -53.7109 55.1758 -52.3438 L 11.9629 -11.5723 C 8.05664 -7.91016 7.71484 -3.85742 11.1816 -0.390625 Z M 42.9199 -70.4102 C 52.4902 -76.8555 64.5996 -75.9766 73.291 -67.2363 L 82.959 -57.6172 C 83.8379 -56.7871 83.9355 -56.1523 83.6914 -54.9316 L 82.373 -49.0234 L 88.4277 -43.0664 L 92.334 -43.2617 C 93.2617 -43.3105 93.5059 -43.2617 94.1895 -42.5781 L 96.2402 -40.5273 L 87.1582 -31.4941 L 85.1562 -33.4961 C 84.4727 -34.2285 84.3262 -34.4727 84.375 -35.4492 L 84.668 -39.3066 L 78.7109 -45.2637 L 72.5586 -44.2383 C 71.4355 -44.043 70.9961 -44.0918 70.1172 -44.9219 L 62.207 -52.832 C 61.3281 -53.6621 61.2793 -54.1504 61.8164 -55.4688 L 65.2832 -63.7695 C 59.0332 -69.6777 50.8301 -72.2656 43.2129 -69.8242 C 42.6758 -69.6777 42.5293 -70.1172 42.9199 -70.4102 Z M 21.1426 0.78125 L 16.8457 -3.51562 C 15.0391 -5.27344 15.5273 -6.44531 16.8457 -7.66602 L 58.8379 -47.3633 L 64.1113 -41.9922 L 25.293 0.78125 C 24.1211 2.14844 22.9492 2.53906 21.1426 0.78125 Z"/>
  </g>
  <g id="Light-S" transform="matrix(1 0 0 1 1097.76 696)">
   <path d="M 11.084 -0.292969 L 17.627 6.29883 C 20.9473 9.61914 24.6094 9.375 28.1738 5.46875 L 68.1641 -38.5254 C 69.1895 -38.1836 70.2148 -38.2324 71.4844 -38.4766 L 75.7812 -39.2578 L 78.6133 -36.4258 L 78.4668 -34.2285 C 78.3691 -32.2266 78.8086 -30.8105 80.7129 -28.9551 L 83.6914 -25.9766 C 85.4004 -24.2676 87.5488 -24.1699 89.2578 -25.8789 L 100.732 -37.4023 C 102.441 -39.1113 102.344 -41.1621 100.635 -42.9199 L 97.6074 -45.8984 C 95.752 -47.7539 94.3848 -48.291 92.4316 -48.1445 L 90.1855 -47.998 L 87.4023 -50.7324 L 88.3301 -55.0781 C 88.8184 -57.373 88.2324 -59.1309 86.0352 -61.3281 L 77.4902 -69.7754 C 64.7949 -82.4707 47.3633 -82.373 36.3281 -71.3379 C 34.7168 -69.7754 34.6191 -67.6758 35.5469 -66.2109 C 36.377 -64.8926 38.0859 -64.0625 40.3809 -64.6484 C 46.3867 -65.9668 52.4414 -66.1133 58.0566 -62.3047 L 55.5664 -56.4453 C 54.7852 -54.4922 54.7363 -52.8809 55.3223 -51.4648 L 11.8652 -10.791 C 8.05664 -7.27539 7.76367 -3.61328 11.084 -0.292969 Z M 41.4062 -69.9219 C 50.8789 -77.2949 64.502 -75.8789 73.1934 -67.1875 L 82.5684 -57.8613 C 83.5938 -56.8359 83.7891 -56.0547 83.4961 -54.6387 L 82.2754 -48.9258 L 88.0371 -43.2129 L 91.8457 -43.4082 C 92.8711 -43.457 93.2617 -43.3594 94.0918 -42.5293 L 96.5332 -40.0879 L 86.5234 -30.0781 L 84.082 -32.5195 C 83.252 -33.3496 83.1055 -33.7402 83.1543 -34.8145 L 83.4473 -38.5742 L 77.6855 -44.2871 L 71.8262 -43.2617 C 70.459 -43.0176 69.7754 -43.1641 68.75 -44.1895 L 60.9863 -51.9043 C 59.9121 -52.9785 59.7656 -53.7598 60.4492 -55.3223 L 63.8672 -63.3789 C 57.8125 -68.9453 50.0488 -71.2402 41.7969 -68.9941 C 41.1133 -68.8477 40.8691 -69.4336 41.4062 -69.9219 Z M 20.2148 1.95312 L 15.3809 -2.83203 C 13.5254 -4.73633 13.916 -6.15234 15.625 -7.71484 L 58.3008 -47.7051 L 64.4043 -41.5527 L 25.0488 1.70898 C 23.5352 3.41797 22.0703 3.80859 20.2148 1.95312 Z"/>
  </g>
  <g id="Thin-S" transform="matrix(1 0 0 1 801.881 696)">
   <path d="M 10.9863 -0.195312 L 17.1387 6.00586 C 20.2637 9.13086 23.3887 8.88672 26.7578 5.27344 L 67.1875 -38.9648 C 68.1152 -38.5742 69.0918 -38.623 70.4102 -38.8672 L 75.1953 -39.7461 L 78.7109 -36.2305 L 78.6133 -34.082 C 78.5645 -31.8359 78.7109 -30.7129 80.6152 -28.8574 L 83.6914 -25.8301 C 84.9121 -24.5605 86.3281 -24.5117 87.5977 -25.8301 L 99.3164 -37.5488 C 100.635 -38.8672 100.586 -40.2344 99.3652 -41.4551 L 96.2891 -44.4824 C 94.3848 -46.3379 93.3105 -46.6309 91.0645 -46.5332 L 88.916 -46.4355 L 85.4004 -49.9512 L 86.2793 -54.248 C 86.7676 -56.6406 86.2305 -58.3984 84.2285 -60.3516 L 75.9277 -68.6035 C 64.3066 -80.1758 46.6797 -80.8105 36.5234 -70.6543 C 35.1074 -69.2383 35.0586 -67.4316 35.8887 -66.2109 C 36.5723 -65.2344 37.8906 -64.6484 39.6484 -64.9902 C 46.4844 -66.2598 52.6367 -66.2598 58.3008 -62.1582 L 55.4688 -55.6641 C 54.5898 -53.6133 54.6875 -51.9531 55.6641 -50.4395 L 11.6699 -9.76562 C 8.10547 -6.44531 7.8125 -3.32031 10.9863 -0.195312 Z M 39.4043 -69.2871 C 48.7793 -77.832 64.4043 -75.7812 73.0469 -67.1387 L 82.0312 -58.1543 C 83.252 -56.9336 83.5938 -55.957 83.252 -54.1992 L 82.1289 -48.8281 L 87.5977 -43.3594 L 91.1621 -43.6035 C 92.2852 -43.6523 92.9688 -43.457 93.8965 -42.5293 L 96.9238 -39.502 L 85.6445 -28.2227 L 82.666 -31.25 C 81.6895 -32.1777 81.4941 -32.8613 81.543 -34.0332 L 81.7871 -37.5488 L 76.3672 -43.0176 L 70.8984 -41.9922 C 69.1895 -41.6504 68.2129 -41.9434 66.9922 -43.1641 L 59.4238 -50.7324 C 58.0078 -52.0996 57.8125 -53.2715 58.6426 -55.1758 L 61.9629 -62.8906 C 56.1523 -67.9199 49.0234 -69.8242 39.9902 -67.8711 C 39.0625 -67.7246 38.6719 -68.5547 39.4043 -69.2871 Z M 18.9453 3.41797 L 13.5254 -2.00195 C 11.5234 -4.00391 11.8164 -5.76172 14.0137 -7.8125 L 57.666 -48.1445 L 64.8438 -40.918 L 24.7559 2.92969 C 22.7539 5.17578 20.9473 5.41992 18.9453 3.41797 Z"/>
  </g>
  <g id="Ultralight-S" transform="matrix(1 0 0 1 505.61 696)">
   <path d="M 10.8887 -0.0976562 L 16.8457 5.85938 C 19.9219 8.88672 22.7539 8.64258 26.0254 5.17578 L 66.6992 -39.209 C 67.5781 -38.8184 68.5059 -38.8184 69.873 -39.0625 L 74.9023 -40.0391 L 78.7598 -36.1328 L 78.7109 -33.9844 C 78.6621 -31.6406 78.6621 -30.6152 80.5664 -28.7598 L 83.6914 -25.6836 C 84.668 -24.707 85.6934 -24.707 86.7676 -25.7812 L 98.6328 -37.6465 C 99.707 -38.7207 99.6582 -39.6973 98.6816 -40.7227 L 95.5566 -43.75 C 93.6523 -45.6055 92.7734 -45.752 90.3809 -45.7031 L 88.2324 -45.6543 L 84.375 -49.5117 L 85.2051 -53.8086 C 85.6934 -56.2988 85.2051 -58.0078 83.3008 -59.8633 L 75.0977 -68.0176 C 64.0137 -79.0039 46.3379 -79.9805 36.6699 -70.3125 C 35.2539 -68.8965 35.2539 -67.334 36.0352 -66.2598 C 36.6699 -65.4297 37.8418 -64.9414 39.2578 -65.1855 C 46.5332 -66.4062 52.7832 -66.3574 58.4473 -62.0117 L 55.3711 -55.2734 C 54.4434 -53.2227 54.6875 -51.4648 55.8594 -49.9512 L 11.6211 -9.22852 C 8.10547 -6.00586 7.86133 -3.17383 10.8887 -0.0976562 Z M 38.3789 -68.9453 C 47.7051 -78.125 64.3555 -75.6836 72.9492 -67.0898 L 81.7383 -58.3008 C 83.1055 -56.9824 83.4961 -55.8594 83.1055 -54.0039 L 82.0312 -48.7305 L 87.3535 -43.5059 L 90.8203 -43.7012 C 91.9922 -43.75 92.8223 -43.5059 93.8477 -42.4805 L 97.1191 -39.1602 L 85.1562 -27.2461 L 81.9336 -30.5664 C 80.9082 -31.5918 80.6641 -32.373 80.7129 -33.5938 L 80.9082 -37.0117 L 75.6348 -42.334 L 70.3613 -41.3086 C 68.5059 -40.918 67.4316 -41.3086 66.0645 -42.627 L 58.5938 -50.1465 C 57.0801 -51.6602 56.7871 -53.0273 57.7148 -55.0781 L 61.0352 -62.6465 C 55.3223 -67.3828 48.5352 -69.0918 39.0625 -67.334 C 37.9883 -67.1387 37.5 -68.0664 38.3789 -68.9453 Z M 18.3105 4.19922 L 12.5488 -1.5625 C 10.498 -3.61328 10.6934 -5.56641 13.1836 -7.86133 L 57.3242 -48.3398 L 65.0391 -40.625 L 24.6094 3.56445 C 22.3633 6.05469 20.3613 6.25 18.3105 4.19922 Z"/>
  </g>
 </g>
</svg>
